<?xml version="1.0" encoding="utf-8"?>
<!-- This file is generated automatically by pnpm run build:icons -->
<svg xmlns="http://www.w3.org/2000/svg" xmlns:xlink="http://www.w3.org/1999/xlink" width="0" height="0">
<defs>
<symbol viewBox="0 0 16 16" fill="none" id="action">
  <circle cx="7.99976" cy="7.99976" r="6.40679" stroke="#939393" stroke-width="1.1"></circle>
  <path d="M8.91914 4.50647L8.92936 7.44046L10.3281 7.44101C10.7038 7.44101 10.9248 7.8208 10.7109 8.09878L7.91709 11.7302C7.65721 12.0681 7.06863 11.9025 7.06863 11.4916L7.06801 8.56097L5.6725 8.56118C5.29739 8.56118 5.07624 8.18236 5.28902 7.90429L8.07001 4.27004C8.32886 3.93179 8.91768 4.09573 8.91914 4.50647Z" fill="currentColor"></path>
</symbol>
<symbol viewBox="0 0 20 21" fill="none" id="activity">
<path d="M12.0551 2.68624L12.078 9.24875L15.2066 9.24998C16.0469 9.24998 16.5412 10.0995 16.0629 10.7212L9.81382 18.8438C9.23254 19.5994 7.91606 19.229 7.91606 18.31L7.91467 11.755L4.79331 11.7555C3.95429 11.7555 3.45964 10.9082 3.93557 10.2862L10.1559 2.15743C10.7348 1.40084 12.0518 1.76754 12.0551 2.68624Z" fill="currentColor"></path>
</symbol>
<symbol viewBox="0 0 24 25" fill="none" id="agent">
<path fill-rule="evenodd" clip-rule="evenodd" d="M12.0517 21.0773C16.7127 21.0773 20.4911 17.2988 20.4911 12.6379C20.4911 7.97692 16.7127 4.19846 12.0517 4.19846C7.39074 4.19846 3.61228 7.97692 3.61228 12.6379C3.61228 17.2988 7.39074 21.0773 12.0517 21.0773ZM12.0517 23.0021C17.7757 23.0021 22.4159 18.3619 22.4159 12.6379C22.4159 6.91389 17.7757 2.27368 12.0517 2.27368C6.32771 2.27368 1.6875 6.91389 1.6875 12.6379C1.6875 18.3619 6.32771 23.0021 12.0517 23.0021Z" fill="currentColor"></path>
<path fill-rule="evenodd" clip-rule="evenodd" d="M21.7604 15.9482C20.3777 19.8074 16.6877 22.5682 12.3529 22.5682C12.2795 22.5682 12.2062 22.5674 12.1331 22.5659C11.1367 20.1776 10.7021 17.6643 11.0679 14.9347C11.1946 14.4818 11.37 13.8202 11.3419 13.2212C11.3291 12.9471 11.0284 12.9803 10.9529 13.2442C10.8608 13.5658 10.7324 13.903 10.5696 14.2011C10.3829 14.2316 10.1447 14.253 9.84442 14.2353C8.89878 14.1797 8.20169 13.6862 8.05277 13.5267C7.78227 13.6493 7.76532 13.7401 7.7491 13.827C7.7389 13.8817 7.729 13.9347 7.6565 13.9932L7.63423 14.0114C7.50276 14.1195 7.40664 14.1985 7.10473 13.7403C6.83312 13.2077 6.63285 12.43 7.44954 11.5934C7.93537 11.0958 8.90676 10.6894 9.04515 10.6681C9.04515 9.88096 9.66213 8.46196 11.4283 7.96536C13.2916 7.44146 15.4425 7.97378 16.6851 9.79022C17.4657 10.9313 17.5423 11.5907 17.6007 12.0938C17.6616 12.6182 17.7028 12.973 18.5008 13.5267C18.7213 13.6796 18.9427 13.8289 19.166 13.9795C19.9916 14.5361 20.8425 15.1097 21.7604 15.9482ZM12.0158 10.7617C12.3108 10.7617 12.5499 10.5226 12.5499 10.2276C12.5499 9.93255 12.3108 9.6934 12.0158 9.6934C11.7208 9.6934 11.4816 9.93255 11.4816 10.2276C11.4816 10.5226 11.7208 10.7617 12.0158 10.7617Z" fill="currentColor"></path>
</symbol>
<symbol viewBox="0 0 92.2 65" id="anthropic-logomark">
 <path fill="currentColor" d="M66.5,0H52.4l25.7,65h14.1L66.5,0z M25.7,0L0,65h14.4l5.3-13.6h26.9L51.8,65h14.4L40.5,0C40.5,0,25.7,0,25.7,0z   M24.3,39.3l8.8-22.8l8.8,22.8H24.3z">
 </path>
</symbol>
<symbol viewBox="0 0 256 256" fill="currentColor" id="arrow-enter">
                  <path d="M200 32v144a8 8 0 0 1-8 8H67.31l34.35 34.34a8 8 0 0 1-11.32 11.32l-48-48a8 8 0 0 1 0-11.32l48-48a8 8 0 0 1 11.32 11.32L67.31 168H184V32a8 8 0 0 1 16 0Z" ></path>
                </symbol>
<symbol viewBox="0 0 14 14" fill="none" id="arrow-up">
<path d="M2.5863 6.85203C2.49111 6.75684 2.49111 6.60251 2.5863 6.50732L6.82373 2.26988C6.91892 2.17469 7.07341 2.17453 7.1686 2.26972L7.74723 2.84835C7.74975 2.85087 7.7522 2.85342 7.75458 2.85602L11.4135 6.51491C11.5087 6.6101 11.5087 6.76444 11.4135 6.85963L10.8348 7.43825C10.7397 7.53344 10.5853 7.53344 10.4901 7.43825L7.92638 4.87451C7.82401 4.77214 7.64898 4.84464 7.64898 4.98941L7.64898 11.9237C7.64898 12.0584 7.53985 12.1675 7.40523 12.1675L6.58692 12.1675C6.4523 12.1675 6.34317 12.0584 6.34317 11.9237L6.34317 4.98943C6.34317 4.84466 6.16814 4.77216 6.06577 4.87453L3.50964 7.43066C3.41445 7.52585 3.26011 7.52585 3.16492 7.43066L2.5863 6.85203Z" fill="currentColor"></path>
</symbol>
<symbol viewBox="0 0 155 144" fill="none" id="asana">
<path d="M110.73 34.0139C110.73 52.5445 95.7048 67.581 77.1742 67.581C58.6319 67.581 43.607 52.5562 43.607 34.0139C43.607 15.4716 58.6319 0.446716 77.1742 0.446716C95.7048 0.446716 110.73 15.4716 110.73 34.0139ZM33.5671 75.967C15.0365 75.967 0 90.9919 0 109.523C0 128.053 15.0248 143.09 33.5671 143.09C52.1094 143.09 67.1343 128.065 67.1343 109.523C67.1343 90.9919 52.1094 75.967 33.5671 75.967ZM120.77 75.967C102.227 75.967 87.2024 90.9919 87.2024 109.534C87.2024 128.076 102.227 143.101 120.77 143.101C139.3 143.101 154.337 128.076 154.337 109.534C154.337 90.9919 139.312 75.967 120.77 75.967Z" fill="currentColor"></path>
</symbol>
<symbol viewBox="0 0 24 24" fill="none" stroke="white" stroke-width="2" stroke-linecap="round" stroke-linejoin="round" class="lucide lucide-ban" id="ban"><circle cx="12" cy="12" r="10"></circle><path d="m4.9 4.9 14.2 14.2"></path></symbol>
<symbol viewBox="0 0 16 17" fill="none" id="block">
<path fill-rule="evenodd" clip-rule="evenodd" d="M2 4C2 3.172 2.674 2.5 3.5 2.5H5.5C6.328 2.5 7 3.174 7 4V6C7 6.828 6.326 7.5 5.5 7.5H3.5C2.672 7.5 2 6.826 2 6V4ZM2 11C2 10.172 2.674 9.5 3.5 9.5H5.5C6.328 9.5 7 10.174 7 11V13C7 13.828 6.326 14.5 5.5 14.5H3.5C2.672 14.5 2 13.826 2 13V11ZM9 4C9 3.172 9.674 2.5 10.5 2.5H12.5C13.328 2.5 14 3.174 14 4V6C14 6.828 13.326 7.5 12.5 7.5H10.5C9.672 7.5 9 6.826 9 6V4ZM9 11C9 10.172 9.674 9.5 10.5 9.5H12.5C13.328 9.5 14 10.174 14 11V13C14 13.828 13.326 14.5 12.5 14.5H10.5C9.672 14.5 9 13.826 9 13V11Z" fill="currentColor"></path>
</symbol>
<symbol viewBox="0 0 24 24" fill="none" stroke="currentColor" stroke-width="2" stroke-linecap="round" stroke-linejoin="round" class="lucide lucide-blocks" id="blocks"><rect width="7" height="7" x="14" y="3" rx="1"></rect><path d="M10 21V8a1 1 0 0 0-1-1H4a1 1 0 0 0-1 1v12a1 1 0 0 0 1 1h12a1 1 0 0 0 1-1v-5a1 1 0 0 0-1-1H3"></path></symbol>
<symbol viewBox="0 0 24 24" fill="none" stroke="currentColor" stroke-width="2" stroke-linecap="round" stroke-linejoin="round" class="lucide lucide-bold" id="bold"><path d="M6 12h9a4 4 0 0 1 0 8H7a1 1 0 0 1-1-1V5a1 1 0 0 1 1-1h7a4 4 0 0 1 0 8"></path></symbol>
<symbol viewBox="0 0 14 15" fill="none" id="book">
<g id="Book">
<path id="Vector" fill-rule="evenodd" clip-rule="evenodd" d="M4.09037 3.59924L5.70985 2.51959C5.78862 2.46707 5.95951 2.44868 6.04639 2.4821L10.4247 4.16605C10.4722 4.18435 10.5403 4.28349 10.5403 4.33879V12.2012C10.5403 12.4184 10.7164 12.5945 10.9337 12.5945C11.1509 12.5945 11.327 12.4184 11.327 12.2012V4.33879C11.327 3.95805 11.0586 3.56693 10.7071 3.43175L6.32881 1.74779C6.00447 1.62305 5.56549 1.67028 5.27344 1.86497L3.24139 3.21968L2.97866 3.39483L2.98066 3.39997C2.79413 3.48419 2.67285 3.678 2.67285 3.94034V11.0594C2.67285 11.4939 3.00183 11.9677 3.40595 12.117L8.22328 13.8971C8.62816 14.0467 8.95638 13.8137 8.95638 13.3817V5.91534C8.95638 5.48105 8.61855 5.02279 8.2109 4.89463L4.09037 3.59924Z" fill="currentColor"></path>
</g>
</symbol>
<symbol viewBox="0 0 14 15" fill="none" id="calendar-empty">
<path d="M9.625 1.55347C11.558 1.55347 13.125 3.12047 13.125 5.05347V10.3035C13.125 12.2364 11.558 13.8035 9.625 13.8035H4.375C2.442 13.8035 0.875 12.2364 0.875 10.3035V5.05347C0.875 3.12047 2.442 1.55347 4.375 1.55347H9.625ZM11.8125 5.92847H2.1875V10.3035C2.1875 11.5116 3.16688 12.491 4.375 12.491H9.625C10.8331 12.491 11.8125 11.5116 11.8125 10.3035V5.92847Z" fill="currentColor"></path>
</symbol>
<symbol viewBox="0 0 20 21" fill="none" id="calendar">
<path d="M13.75 1.75C16.5114 1.75 18.75 3.98857 18.75 6.75V14.25C18.75 17.0114 16.5114 19.25 13.75 19.25H6.25C3.48857 19.25 1.25 17.0114 1.25 14.25V6.75C1.25 3.98857 3.48857 1.75 6.25 1.75H13.75ZM16.875 8H3.125V14.25C3.125 15.9759 4.52411 17.375 6.25 17.375H13.75C15.4759 17.375 16.875 15.9759 16.875 14.25V8Z" fill="currentColor"></path>
</symbol>
<symbol viewBox="0 0 15 15" fill="none" id="cancel"><path d="M11.7816 4.03157C12.0062 3.80702 12.0062 3.44295 11.7816 3.2184C11.5571 2.99385 11.193 2.99385 10.9685 3.2184L7.50005 6.68682L4.03164 3.2184C3.80708 2.99385 3.44301 2.99385 3.21846 3.2184C2.99391 3.44295 2.99391 3.80702 3.21846 4.03157L6.68688 7.49999L3.21846 10.9684C2.99391 11.193 2.99391 11.557 3.21846 11.7816C3.44301 12.0061 3.80708 12.0061 4.03164 11.7816L7.50005 8.31316L10.9685 11.7816C11.193 12.0061 11.5571 12.0061 11.7816 11.7816C12.0062 11.557 12.0062 11.193 11.7816 10.9684L8.31322 7.49999L11.7816 4.03157Z" fill="currentColor" fill-rule="evenodd" clip-rule="evenodd"></path></symbol>
<symbol viewBox="0 0 7 6" fill="none" id="caret">
<path d="M4.33859 5.6875C4.14614 6.02083 3.66501 6.02083 3.47256 5.6875L0.874479 1.1875C0.682029 0.854166 0.922599 0.4375 1.3075 0.4375L6.50365 0.4375C6.88855 0.4375 7.12911 0.854166 6.93666 1.1875L4.33859 5.6875Z" fill="currentColor"></path>
</symbol>
<symbol viewBox="0 0 24 24" fill="none" stroke="currentColor" stroke-width="2" stroke-linecap="round" stroke-linejoin="round" class="lucide lucide-bot-message-square" id="chat-with-agent"><path d="M12 6V2H8"></path><path d="m8 18-4 4V8a2 2 0 0 1 2-2h12a2 2 0 0 1 2 2v8a2 2 0 0 1-2 2Z"></path><path d="M2 12h2"></path><path d="M9 11v2"></path><path d="M15 11v2"></path><path d="M20 12h2"></path></symbol>
<symbol viewBox="0 0 17 17" fill="none" id="check-in-circle">
<g id="Task">
<path id="Subtract" fill-rule="evenodd" clip-rule="evenodd" d="M8.05835 15.5C11.9243 15.5 15.0583 12.366 15.0583 8.5C15.0583 4.63401 11.9243 1.5 8.05835 1.5C4.19236 1.5 1.05835 4.63401 1.05835 8.5C1.05835 12.366 4.19236 15.5 8.05835 15.5ZM11.6997 5.95296C12.022 6.2735 12.0383 6.81053 11.7361 7.15245L8.09139 11.2764C7.59716 11.8356 6.77294 11.8754 6.23285 11.3661L4.22105 9.46925C3.89082 9.15789 3.86108 8.6215 4.15461 8.27121C4.44814 7.92092 4.9538 7.88937 5.28403 8.20074L7.10174 9.91466L10.5689 5.99165C10.8711 5.64974 11.3773 5.63241 11.6997 5.95296Z" fill="currentColor"></path>
</g>
</symbol>
<symbol fill="none" viewBox="0 0 24 24" stroke-width="1.5" stroke="currentColor" class="size-6" id="check">
  <path stroke-linecap="round" stroke-linejoin="round" d="m4.5 12.75 6 6 9-13.5" ></path>
</symbol>
<symbol viewBox="0 0 10 6" fill="none" id="chevron-down">
<g id="chevron-down" clip-path="url(#clip0_3668_3293)">
<path id="Vector" d="M1.97334 1.05705C1.84728 0.93699 1.67928 0.870974 1.50521 0.873097C1.33114 0.875219 1.1648 0.945311 1.0417 1.06841C0.918609 1.1915 0.848516 1.35784 0.846394 1.53191C0.844271 1.70598 0.910287 1.87399 1.03034 2.00005L3.89234 4.86205C3.97983 4.94964 4.08373 5.01913 4.19809 5.06654C4.31246 5.11396 4.43504 5.13836 4.55885 5.13836C4.68265 5.13836 4.80523 5.11396 4.9196 5.06654C5.03396 5.01913 5.13786 4.94964 5.22534 4.86205L8.08635 2.00005C8.2064 1.87399 8.27242 1.70598 8.2703 1.53191C8.26817 1.35784 8.19808 1.1915 8.07499 1.06841C7.95189 0.945311 7.78555 0.875219 7.61148 0.873097C7.43741 0.870974 7.26941 0.93699 7.14335 1.05705L4.55835 3.64005L1.97334 1.05705Z" fill="currentColor"></path>
</g>
<defs>
<clipPath id="clip0_3668_3293">
<rect width="9" height="5" fill="currentColor" transform="translate(0.0583496 0.5)"></rect>
</clipPath>
</defs>
</symbol>
<symbol viewBox="0 0 24 24" fill="none" stroke="currentColor" stroke-width="2" stroke-linecap="round" stroke-linejoin="round" class="lucide lucide-chevron-up" id="chevron-up"><path d="m18 15-6-6-6 6"></path></symbol>
<symbol viewBox="0 0 24 24" fill="none" stroke="currentColor" stroke-width="2" stroke-linecap="round" stroke-linejoin="round" id="circle"><circle cx="12" cy="12" r="10"></circle></symbol>
<symbol fill="none" viewBox="0 0 24 24" stroke-width="1.5" stroke="currentColor" class="size-6" id="clipboard">
  <path stroke-linecap="round" stroke-linejoin="round" d="M15.666 3.888A2.25 2.25 0 0 0 13.5 2.25h-3c-1.03 0-1.9.693-2.166 1.638m7.332 0c.055.194.084.4.084.612v0a.75.75 0 0 1-.75.75H9a.75.75 0 0 1-.75-.75v0c0-.212.03-.418.084-.612m7.332 0c.646.049 1.288.11 1.927.184 1.1.128 1.907 1.077 1.907 2.185V19.5a2.25 2.25 0 0 1-2.25 2.25H6.75A2.25 2.25 0 0 1 4.5 19.5V6.257c0-1.108.806-2.057 1.907-2.185a48.208 48.208 0 0 1 1.927-.184" ></path>
</symbol>
<symbol viewBox="0 0 24 24" fill="none" stroke="currentColor" stroke-width="2" stroke-linecap="round" stroke-linejoin="round" class="lucide lucide-clock" id="clock"><circle cx="12" cy="12" r="10"></circle><polyline points="12 6 12 12 16 14"></polyline></symbol>
<symbol viewBox="0 0 16 17" fill="none" id="code">
<path fill-rule="evenodd" clip-rule="evenodd" d="M1.32698 3.13803C1 3.77976 1 4.61984 1 6.3V10.7C1 12.3802 1 13.2202 1.32698 13.862C1.6146 14.4265 2.07354 14.8854 2.63803 15.173C3.27976 15.5 4.11984 15.5 5.8 15.5H10.2C11.8802 15.5 12.7202 15.5 13.362 15.173C13.9265 14.8854 14.3854 14.4265 14.673 13.862C15 13.2202 15 12.3802 15 10.7V6.3C15 4.61984 15 3.77976 14.673 3.13803C14.3854 2.57354 13.9265 2.1146 13.362 1.82698C12.7202 1.5 11.8802 1.5 10.2 1.5H5.8C4.11984 1.5 3.27976 1.5 2.63803 1.82698C2.07354 2.1146 1.6146 2.57354 1.32698 3.13803ZM4.15148 7.61652C3.80161 7.39478 3.33824 7.49864 3.11649 7.8485C2.89475 8.19836 2.99861 8.66174 3.34847 8.88348L5.89898 10.5L3.34847 12.1165C2.99861 12.3383 2.89475 12.8016 3.11649 13.1515C3.33824 13.5014 3.80161 13.6052 4.15148 13.3835L7.70148 11.1335C7.91847 10.996 8.04997 10.7569 8.04997 10.5C8.04997 10.2431 7.91847 10.0041 7.70148 9.86652L4.15148 7.61652Z" fill="currentColor"></path>
</symbol>
<symbol viewBox="0 0 17 16" fill="none" id="companies">
<rect x="1.41357" y="6.38281" width="4.43823" height="8.33674" rx="0.6" fill="currentColor"></rect>
<path fill-rule="evenodd" clip-rule="evenodd" d="M7.54629 1.28125C7.21492 1.28125 6.94629 1.54988 6.94629 1.88125V14.1198C6.94629 14.4512 7.21492 14.7198 7.54629 14.7198H10.4785C10.7547 14.7198 10.9785 14.496 10.9785 14.2198V12.3439C10.9785 12.0125 11.2471 11.7439 11.5785 11.7439H13.0286C13.3599 11.7439 13.6286 12.0125 13.6286 12.3439V14.2198C13.6286 14.496 13.8524 14.7198 14.1286 14.7198H14.9869C15.3183 14.7198 15.5869 14.4512 15.5869 14.1198V1.88125C15.5869 1.54988 15.3183 1.28125 14.9869 1.28125H7.54629Z" fill="currentColor"></path>
</symbol>
<symbol data-testid="geist-icon" stroke-linejoin="round" viewBox="0 0 16 16" style="color: currentcolor;" id="connections-db"><path fill-rule="evenodd" clip-rule="evenodd" d="M10.5 4C10.5 4.82843 11.1716 5.5 12 5.5C12.8284 5.5 13.5 4.82843 13.5 4C13.5 3.17157 12.8284 2.5 12 2.5C11.1716 2.5 10.5 3.17157 10.5 4ZM9.41536 5.52397C9.15145 5.07734 9 4.55636 9 4C9 2.34315 10.3431 1 12 1C13.6569 1 15 2.34315 15 4C15 5.65685 13.6569 7 12 7C11.4436 7 10.9227 6.84855 10.476 6.58464L6.58464 10.476C6.84855 10.9227 7 11.4436 7 12C7 13.6569 5.65685 15 4 15C2.34315 15 1 13.6569 1 12C1 10.3431 2.34315 9 4 9C4.55636 9 5.07734 9.15145 5.52398 9.41537L9.41536 5.52397ZM2.5 12C2.5 12.8284 3.17157 13.5 4 13.5C4.82843 13.5 5.5 12.8284 5.5 12C5.5 11.1716 4.82843 10.5 4 10.5C3.17157 10.5 2.5 11.1716 2.5 12Z" fill="currentColor"></path></symbol>
<symbol viewBox="0 0 24 24" fill="none" stroke="currentColor" stroke-width="2" stroke-linecap="round" stroke-linejoin="round" class="lucide lucide-copy" id="copy"><rect width="14" height="14" x="8" y="8" rx="2" ry="2"></rect><path d="M4 16c-1.1 0-2-.9-2-2V4c0-1.1.9-2 2-2h10c1.1 0 2 .9 2 2"></path></symbol>
<symbol viewBox="0 0 12 11" fill="none" id="dashboard">
<path fill-rule="evenodd" clip-rule="evenodd" d="M0.75 1.61719C0.75 0.892687 1.33975 0.304688 2.0625 0.304688H3.8125C4.537 0.304688 5.125 0.894438 5.125 1.61719V3.36719C5.125 4.09169 4.53525 4.67969 3.8125 4.67969H2.0625C1.338 4.67969 0.75 4.08994 0.75 3.36719V1.61719ZM0.75 7.74219C0.75 7.01769 1.33975 6.42969 2.0625 6.42969H3.8125C4.537 6.42969 5.125 7.01944 5.125 7.74219V9.49219C5.125 10.2167 4.53525 10.8047 3.8125 10.8047H2.0625C1.338 10.8047 0.75 10.2149 0.75 9.49219V7.74219ZM6.875 1.61719C6.875 0.892687 7.46475 0.304688 8.1875 0.304688H9.9375C10.662 0.304688 11.25 0.894438 11.25 1.61719V3.36719C11.25 4.09169 10.6602 4.67969 9.9375 4.67969H8.1875C7.463 4.67969 6.875 4.08994 6.875 3.36719V1.61719ZM6.875 7.74219C6.875 7.01769 7.46475 6.42969 8.1875 6.42969H9.9375C10.662 6.42969 11.25 7.01944 11.25 7.74219V9.49219C11.25 10.2167 10.6602 10.8047 9.9375 10.8047H8.1875C7.463 10.8047 6.875 10.2149 6.875 9.49219V7.74219Z" fill="currentColor"></path>
</symbol>
<symbol viewBox="0 0 14 14" fill="none" id="display">
    <path d="M1.146 1.63383C1.146 1.36441 1.36441 1.146 1.63384 1.146H5.53659C5.80602 1.146 6.02443 1.36441 6.02443 1.63383V5.5365C6.02443 5.80592 5.80602 6.02434 5.53659 6.02434H1.63384C1.36441 6.02434 1.146 5.80592 1.146 5.5365V1.63383Z" fill="currentColor"></path>
    <path d="M1.146 8.4635C1.146 8.19408 1.36441 7.97567 1.63384 7.97567H5.56264C5.83207 7.97567 6.05048 8.19408 6.05048 8.4635V12.3662C6.05048 12.6356 5.83207 12.854 5.56264 12.854H1.63384C1.36441 12.854 1.146 12.6356 1.146 12.3662V8.4635Z" fill="currentColor"></path>
    <path d="M7.97581 1.63383C7.97581 1.36441 8.19422 1.146 8.46365 1.146H12.3664C12.6358 1.146 12.8542 1.36441 12.8542 1.63383V5.5365C12.8542 5.80592 12.6358 6.02434 12.3664 6.02434H8.46365C8.19422 6.02434 7.97581 5.80592 7.97581 5.5365V1.63383Z" fill="currentColor"></path>
    <path fill-rule="evenodd" clip-rule="evenodd" d="M8.80908 8.86353V11.9797H11.9793V8.86353H8.80908ZM8.45908 7.98853C8.16913 7.98853 7.93408 8.22358 7.93408 8.51353V12.3297C7.93408 12.6197 8.16913 12.8547 8.45908 12.8547H12.3293C12.6193 12.8547 12.8543 12.6197 12.8543 12.3297V8.51353C12.8543 8.22358 12.6193 7.98853 12.3293 7.98853H8.45908Z" fill="currentColor"></path>
</symbol>
<symbol viewBox="0 0 14 14" fill="none" id="documentation">
<path fill-rule="evenodd" clip-rule="evenodd" d="M3.76403 2.31566L5.56519 1.11489C5.6528 1.05648 5.84285 1.03603 5.93948 1.0732L10.8089 2.94606C10.8618 2.9664 10.9375 3.07667 10.9375 3.13817V11.8825C10.9375 12.1242 11.1334 12.32 11.375 12.32C11.6166 12.32 11.8125 12.1242 11.8125 11.8825V3.13817C11.8125 2.71472 11.5139 2.27973 11.123 2.12938L6.25358 0.256519C5.89286 0.117779 5.40463 0.170309 5.07982 0.386847L2.81982 1.89352L2.52762 2.08832L2.52984 2.09403C2.32238 2.1877 2.1875 2.40325 2.1875 2.69503V10.6127C2.1875 11.0959 2.55339 11.6229 3.00284 11.789L8.36058 13.7688C8.81087 13.9351 9.17591 13.6759 9.17591 13.1955V4.89158C9.17591 4.40857 8.80018 3.8989 8.34681 3.75637L3.76403 2.31566Z" fill="currentColor"></path>
</symbol>
<symbol viewBox="0 0 17 17" fill="none" id="dot-menu-sleep">
<path d="M3.32617 6.73145C3.724 6.73145 4.10553 6.88948 4.38683 7.17078C4.66814 7.45209 4.82617 7.83362 4.82617 8.23145C4.82617 8.62927 4.66814 9.0108 4.38683 9.29211C4.10553 9.57341 3.724 9.73145 3.32617 9.73145C2.92835 9.73145 2.54682 9.57341 2.26551 9.29211C1.98421 9.0108 1.82617 8.62927 1.82617 8.23145C1.82617 7.83362 1.98421 7.45209 2.26551 7.17078C2.54682 6.88948 2.92835 6.73145 3.32617 6.73145ZM8.32617 6.73145C8.724 6.73145 9.10553 6.88948 9.38683 7.17078C9.66814 7.45209 9.82617 7.83362 9.82617 8.23145C9.82617 8.62927 9.66814 9.0108 9.38683 9.29211C9.10553 9.57341 8.724 9.73145 8.32617 9.73145C7.92835 9.73145 7.54682 9.57341 7.26551 9.29211C6.98421 9.0108 6.82617 8.62927 6.82617 8.23145C6.82617 7.83362 6.98421 7.45209 7.26551 7.17078C7.54682 6.88948 7.92835 6.73145 8.32617 6.73145ZM13.3262 6.73145C13.724 6.73145 14.1055 6.88948 14.3868 7.17078C14.6681 7.45209 14.8262 7.83362 14.8262 8.23145C14.8262 8.62927 14.6681 9.0108 14.3868 9.29211C14.1055 9.57341 13.724 9.73145 13.3262 9.73145C12.9283 9.73145 12.5468 9.57341 12.2655 9.29211C11.9842 9.0108 11.8262 8.62927 11.8262 8.23145C11.8262 7.83362 11.9842 7.45209 12.2655 7.17078C12.5468 6.88948 12.9283 6.73145 13.3262 6.73145Z" fill="currentColor"></path>
</symbol>
<symbol viewBox="0 0 15 15" fill="none" id="down-caret">
<path d="M4.18179 6.18181C4.35753 6.00608 4.64245 6.00608 4.81819 6.18181L7.49999 8.86362L10.1818 6.18181C10.3575 6.00608 10.6424 6.00608 10.8182 6.18181C10.9939 6.35755 10.9939 6.64247 10.8182 6.81821L7.81819 9.81821C7.73379 9.9026 7.61934 9.95001 7.49999 9.95001C7.38064 9.95001 7.26618 9.9026 7.18179 9.81821L4.18179 6.81821C4.00605 6.64247 4.00605 6.35755 4.18179 6.18181Z" fill="currentColor" stroke-width="2" fill-rule="evenodd" clip-rule="evenodd"></path>
</symbol>
<symbol viewBox="0 0 7 12" fill="none" id="draggable">
    <circle cx="1.42693" cy="1.4406" r="1.10466" fill="currentColor"></circle>
    <circle cx="1.42693" cy="5.83611" r="1.10466" fill="currentColor"></circle>
    <circle cx="1.42693" cy="10.2306" r="1.10466" fill="currentColor"></circle>
    <circle cx="5.82195" cy="10.2306" r="1.10466" fill="currentColor"></circle>
    <circle cx="5.82195" cy="5.83611" r="1.10466" fill="currentColor"></circle>
    <circle cx="5.82195" cy="1.4406" r="1.10466" fill="currentColor"></circle>
</symbol>
<symbol viewBox="0 0 15 15" fill="none" id="edit">
    <path d="M3.39215 9.97187C4.50508 9.98552 5.43563 10.84 5.55059 11.9504C4.96858 12.3132 3.71671 12.6336 2.95473 12.8055C2.66507 12.8707 2.42021 12.6056 2.50814 12.3231C2.71159 11.6694 3.05517 10.6398 3.39215 9.97187Z" fill="currentColor"></path>
    <path d="M12.7618 4.6922C13.1279 4.09122 13.0537 3.29314 12.5391 2.77209C12.0195 2.24606 11.2212 2.17448 10.6258 2.55736C11.1129 3.46283 11.8558 4.20542 12.7618 4.6922Z" fill="currentColor"></path>
    <path d="M9.64788 3.48964L4.36389 8.80443C5.40323 9.11436 6.24577 9.89547 6.63751 10.9065L11.8417 5.67762C10.9461 5.13401 10.1937 4.38351 9.64788 3.48964Z" fill="currentColor"></path>
</symbol>
<symbol viewBox="0 0 15 14" fill="none" id="enrich">
<circle cx="7.84082" cy="7" r="5.49424" stroke="#737373" stroke-width="1.26152"></circle>
<path d="M8.63005 3.99748L8.63884 6.5194L9.84115 6.51987C10.1641 6.51987 10.354 6.84631 10.1702 7.08525L7.76875 10.2067C7.54537 10.497 7.03946 10.3547 7.03946 10.0016L7.03892 7.48253L5.83941 7.48271C5.51698 7.48271 5.32689 7.15709 5.50979 6.91808L7.90019 3.79427C8.12268 3.50352 8.6288 3.64444 8.63005 3.99748Z" fill="currentColor"></path>
</symbol>
<symbol viewBox="0 0 20 21" fill="none" id="envelope">
<path fill-rule="evenodd" clip-rule="evenodd" d="M4.375 4.25C2.99429 4.25 1.875 5.36929 1.875 6.75V14.25C1.875 15.6307 2.99429 16.75 4.375 16.75H15.625C17.0057 16.75 18.125 15.6307 18.125 14.25V6.75C18.125 5.36929 17.0057 4.25 15.625 4.25H4.375ZM5.41157 6.27965C5.1518 6.05235 4.75695 6.07867 4.52965 6.33844C4.30235 6.59822 4.32867 6.99307 4.58844 7.22037L9.58844 11.5954C9.82408 11.8016 10.1759 11.8016 10.4116 11.5954L15.4116 7.22037C15.6713 6.99307 15.6977 6.59822 15.4704 6.33844C15.2431 6.07867 14.8482 6.05235 14.5884 6.27965L10 10.2945L5.41157 6.27965Z" fill="currentColor"></path>
</symbol>
<symbol viewBox="0 0 14 14" fill="none" id="four-boxes">
  <path fill-rule="evenodd" clip-rule="evenodd" d="M2.28589 3.46373C2.28589 2.81316 2.81546 2.28516 3.46446 2.28516H5.03589C5.68646 2.28516 6.21446 2.81473 6.21446 3.46373V5.03516C6.21446 5.68573 5.68489 6.21373 5.03589 6.21373H3.46446C2.81389 6.21373 2.28589 5.68416 2.28589 5.03516V3.46373ZM2.28589 8.96373C2.28589 8.31316 2.81546 7.78516 3.46446 7.78516H5.03589C5.68646 7.78516 6.21446 8.31473 6.21446 8.96373V10.5352C6.21446 11.1857 5.68489 11.7137 5.03589 11.7137H3.46446C2.81389 11.7137 2.28589 11.1842 2.28589 10.5352V8.96373ZM7.78589 3.46373C7.78589 2.81316 8.31546 2.28516 8.96446 2.28516H10.5359C11.1865 2.28516 11.7145 2.81473 11.7145 3.46373V5.03516C11.7145 5.68573 11.1849 6.21373 10.5359 6.21373H8.96446C8.31389 6.21373 7.78589 5.68416 7.78589 5.03516V3.46373ZM7.78589 8.96373C7.78589 8.31316 8.31546 7.78516 8.96446 7.78516H10.5359C11.1865 7.78516 11.7145 8.31473 11.7145 8.96373V10.5352C11.7145 11.1857 11.1849 11.7137 10.5359 11.7137H8.96446C8.31389 11.7137 7.78589 11.1842 7.78589 10.5352V8.96373Z" fill="currentColor"></path>
</symbol>
<symbol viewBox="0 0 24 24" fill="none" stroke="white" stroke-width="2" stroke-linecap="round" stroke-linejoin="round" class="lucide lucide-github" id="github"><path d="M15 22v-4a4.8 4.8 0 0 0-1-3.5c3 0 6-2 6-5.5.08-1.25-.27-2.48-1-3.5.28-1.15.28-2.35 0-3.5 0 0-1 0-3 1.5-2.64-.5-5.36-.5-8 0C6 2 5 2 5 2c-.3 1.15-.3 2.35 0 3.5A5.403 5.403 0 0 0 4 9c0 3.5 3 5.5 6 5.5-.39.49-.68 1.05-.85 1.65-.17.6-.22 1.23-.15 1.85v4"></path><path d="M9 18c-4.51 2-5-2-7-2"></path></symbol>
<symbol viewBox="0 0 15 14" fill="none" id="google">
<g clip-path="url(#clip0_12063_134302)">
<path d="M13.5018 7.13949C13.5018 6.70522 13.4628 6.28765 13.3904 5.88678H7.62241V8.25858H10.9184C10.7737 9.02134 10.3394 9.66718 9.68799 10.1015V11.6437H11.6756C12.8337 10.5747 13.5018 9.00464 13.5018 7.13949Z" fill="currentColor"></path>
<path d="M7.6222 13.1247C9.27578 13.1247 10.6623 12.579 11.6756 11.6437L9.68799 10.1015C9.14236 10.4689 8.4462 10.6917 7.6222 10.6917C6.02986 10.6917 4.67694 9.61716 4.19256 8.16959H2.15482V9.75078C3.16255 11.7496 5.22813 13.1247 7.6222 13.1247Z" fill="currentColor"></path>
<path d="M4.19277 8.16397C4.07028 7.79651 3.9979 7.40677 3.9979 7.00034C3.9979 6.5939 4.07028 6.20417 4.19277 5.83671V4.25551H2.15502C1.73745 5.07952 1.49805 6.00931 1.49805 7.00034C1.49805 7.99137 1.73745 8.92116 2.15502 9.74517L3.74179 8.50916L4.19277 8.16397Z" fill="currentColor"></path>
<path d="M7.6222 3.31458C8.52415 3.31458 9.32588 3.62637 9.96616 4.22767L11.72 2.47388C10.6565 1.48284 9.27577 0.875977 7.6222 0.875977C5.22813 0.875977 3.16276 2.25118 2.15502 4.25551L4.19277 5.83671C4.67715 4.38914 6.02986 3.31458 7.6222 3.31458Z" fill="currentColor"></path>
</g>
<defs>
<clipPath id="clip0_12063_134302">
<rect width="12.2487" height="12.2487" fill="currentColor" transform="translate(1.37585 0.875977)"></rect>
</clipPath>
</defs>
</symbol>
<symbol viewBox="0 0 16 17" fill="none" id="grid">
<rect width="4.99902" height="3.42873" rx="0.6" transform="matrix(-1 0 0 1 6.30859 6.83984)" fill="currentColor"></rect>
<rect width="4.99902" height="3.42873" rx="0.6" transform="matrix(-1 0 0 1 6.30859 1.81055)" fill="currentColor"></rect>
<rect width="4.99902" height="3.42873" rx="0.6" transform="matrix(-1 0 0 1 6.30859 11.7617)" fill="currentColor"></rect>
<rect width="3.42842" height="3.50567" rx="0.6" transform="matrix(-2.37171e-08 1 1 8.05614e-08 7.59473 6.83984)" fill="currentColor"></rect>
<rect width="3.42842" height="3.50567" rx="0.6" transform="matrix(-3.79023e-08 1 1 5.04108e-08 7.59473 1.81055)" fill="currentColor"></rect>
<rect width="3.42842" height="2.30326" rx="0.6" transform="matrix(-1.55824e-08 1 1 1.22618e-07 12.3867 6.83984)" fill="currentColor"></rect>
<rect width="3.42842" height="2.30326" rx="0.6" transform="matrix(-2.49022e-08 1 1 7.67276e-08 12.3867 1.81055)" fill="currentColor"></rect>
<rect width="3.42842" height="3.50567" rx="0.6" transform="matrix(-2.18985e-08 1 1 8.72518e-08 7.59473 11.7617)" fill="currentColor"></rect>
<rect width="3.42842" height="2.30326" rx="0.6" transform="matrix(-1.43875e-08 1 1 1.32801e-07 12.3867 11.7617)" fill="currentColor"></rect>
</symbol>
<symbol viewBox="0 0 16 13" fill="none" id="handshake">
<path d="M7.82396 1.50793L5.20855 3.86191C4.77355 4.25223 4.6898 4.95482 5.01942 5.45624C5.36796 5.99069 6.04613 6.09578 6.51356 5.69044L9.19651 3.3725C9.38564 3.21036 9.65582 3.24639 9.80443 3.45657C9.95303 3.66674 9.9179 3.96699 9.72877 4.13213L9.16408 4.61854L13.9518 9.51865H14.0498C14.7658 9.51865 15.3467 8.87311 15.3467 8.07744V4.23422C15.3467 3.43855 14.7658 2.79301 14.0498 2.79301H13.0278H12.9197H12.9008L12.7954 2.71795L10.8338 1.32178C10.4205 1.02753 9.93682 0.871399 9.44508 0.871399C8.85607 0.871399 8.28328 1.09659 7.82396 1.50793ZM8.43999 5.24306L7.04312 6.45008C6.19203 7.18869 4.95728 6.99653 4.31964 6.02372C3.71983 5.10795 3.87113 3.82888 4.66278 3.11728L6.91073 1.09659C6.59731 0.949464 6.25958 0.874401 5.91644 0.874401C5.40849 0.871399 4.91405 1.03954 4.48986 1.3518L2.54452 2.79301H1.64357C0.927581 2.79301 0.34668 3.43855 0.34668 4.23422V8.07744C0.34668 8.87311 0.927581 9.51865 1.64357 9.51865H3.30644L5.77595 12.0227C6.30551 12.5602 7.12418 12.5182 7.60781 11.9297C7.75641 11.7465 7.85638 11.5333 7.90772 11.3112L8.36703 11.7795C8.8939 12.317 9.71526 12.278 10.1989 11.6925C10.3205 11.5453 10.4096 11.3742 10.4664 11.1971C10.9905 11.5874 11.7038 11.5063 12.1442 10.9719C12.6279 10.3864 12.5928 9.47361 12.0659 8.93616L8.43999 5.24306Z" fill="currentColor"></path>
</symbol>
<symbol viewBox="0 0 24 24" fill="none" stroke="currentColor" stroke-width="2" stroke-linecap="round" stroke-linejoin="round" class="lucide lucide-heading-1" id="heading-1"><path d="M4 12h8"></path><path d="M4 18V6"></path><path d="M12 18V6"></path><path d="m17 12 3-2v8"></path></symbol>
<symbol viewBox="0 0 24 24" fill="none" stroke="currentColor" stroke-width="2" stroke-linecap="round" stroke-linejoin="round" class="lucide lucide-heading-2" id="heading-2"><path d="M4 12h8"></path><path d="M4 18V6"></path><path d="M12 18V6"></path><path d="M21 18h-4c0-4 4-3 4-6 0-1.5-2-2.5-4-1"></path></symbol>
<symbol viewBox="0 0 24 24" fill="none" stroke="currentColor" stroke-width="2" stroke-linecap="round" stroke-linejoin="round" class="lucide lucide-heading-3" id="heading-3"><path d="M4 12h8"></path><path d="M4 18V6"></path><path d="M12 18V6"></path><path d="M17.5 10.5c1.7-1 3.5 0 3.5 1.5a2 2 0 0 1-2 2"></path><path d="M17 17.5c2 1.5 4 .3 4-1.5a2 2 0 0 0-2-2"></path></symbol>
<symbol viewBox="0 0 24 24" fill="none" stroke="currentColor" stroke-width="2" stroke-linecap="round" stroke-linejoin="round" class="lucide lucide-info" id="info"><circle cx="12" cy="12" r="10"></circle><path d="M12 16v-4"></path><path d="M12 8h.01"></path></symbol>
<symbol viewBox="0 0 24 24" fill="none" stroke="currentColor" stroke-width="2" stroke-linecap="round" stroke-linejoin="round" class="lucide lucide-italic" id="italic"><line x1="19" x2="10" y1="4" y2="4"></line><line x1="14" x2="5" y1="20" y2="20"></line><line x1="15" x2="9" y1="4" y2="20"></line></symbol>
<symbol viewBox="0 0 24 24" fill="none" stroke="currentColor" stroke-width="2" stroke-linecap="round" stroke-linejoin="round" class="lucide lucide-braces" id="json"><path d="M8 3H7a2 2 0 0 0-2 2v5a2 2 0 0 1-2 2 2 2 0 0 1 2 2v5c0 1.1.9 2 2 2h1"></path><path d="M16 21h1a2 2 0 0 0 2-2v-5c0-1.1.9-2 2-2a2 2 0 0 1-2-2V5a2 2 0 0 0-2-2h-1"></path></symbol>
<symbol viewBox="0 0 16 17" fill="none" id="list-mini">
<g id="List mini">
<path id="Vector" d="M2 3.84535C2 3.56535 2 3.42535 2.04629 3.31835C2.08756 3.22438 2.15327 3.14807 2.234 3.10035C2.32571 3.04535 2.44571 3.04535 2.68571 3.04535H13.3143C13.5543 3.04535 13.6743 3.04535 13.766 3.09935C13.8465 3.1475 13.912 3.22416 13.9529 3.31835C14 3.42535 14 3.56535 14 3.84535V4.24535C14 4.52535 14 4.66535 13.9529 4.77235C13.912 4.86654 13.8465 4.9432 13.766 4.99135C13.6743 5.04535 13.5543 5.04535 13.3143 5.04535H2.68571C2.44571 5.04535 2.32571 5.04535 2.234 4.99135C2.15346 4.9432 2.08805 4.86654 2.04714 4.77235C2 4.66535 2 4.52535 2 4.24535V3.84535ZM2 11.8453C2 11.5653 2 11.4253 2.04629 11.3183C2.08756 11.2244 2.15327 11.1481 2.234 11.1003C2.32571 11.0453 2.44571 11.0453 2.68571 11.0453H13.3143C13.5543 11.0453 13.6743 11.0453 13.766 11.1003C13.8464 11.1482 13.9118 11.2245 13.9529 11.3183C14 11.4253 14 11.5653 14 11.8453V12.2453C14 12.5253 14 12.6653 13.9529 12.7723C13.9118 12.8662 13.8464 12.9425 13.766 12.9903C13.6743 13.0453 13.5543 13.0453 13.3143 13.0453H2.68571C2.44571 13.0453 2.32571 13.0453 2.234 12.9903C2.15359 12.9425 2.08819 12.8662 2.04714 12.7723C2 12.6653 2 12.5253 2 12.2453V11.8453ZM2 7.84535C2 7.56535 2 7.42535 2.04629 7.31835C2.08756 7.22438 2.15327 7.14807 2.234 7.10035C2.32571 7.04535 2.44571 7.04535 2.68571 7.04535H13.3143C13.5543 7.04535 13.6743 7.04535 13.766 7.09935C13.8465 7.1475 13.912 7.22416 13.9529 7.31835C14 7.42535 14 7.56535 14 7.84535V8.24535C14 8.52535 14 8.66535 13.9529 8.77235C13.9118 8.86616 13.8464 8.94246 13.766 8.99035C13.6743 9.04535 13.5543 9.04535 13.3143 9.04535H2.68571C2.44571 9.04535 2.32571 9.04535 2.234 8.99135C2.15346 8.9432 2.08805 8.86654 2.04714 8.77235C2 8.66535 2 8.52535 2 8.24535V7.84535Z" fill="currentColor"></path>
</g>
</symbol>
<symbol viewBox="0 0 24 24" fill="none" stroke="currentColor" stroke-width="2" stroke-linecap="round" stroke-linejoin="round" class="lucide lucide-list-ordered" id="list-ordered"><line x1="10" x2="21" y1="6" y2="6"></line><line x1="10" x2="21" y1="12" y2="12"></line><line x1="10" x2="21" y1="18" y2="18"></line><path d="M4 6h1v4"></path><path d="M4 10h2"></path><path d="M6 18H4c0-1 2-2 2-3s-1-1.5-2-1"></path></symbol>
<symbol viewBox="0 0 24 24" fill="none" stroke="currentColor" stroke-width="2" stroke-linecap="round" stroke-linejoin="round" class="lucide lucide-list" id="list"><line x1="8" x2="21" y1="6" y2="6"></line><line x1="8" x2="21" y1="12" y2="12"></line><line x1="8" x2="21" y1="18" y2="18"></line><line x1="3" x2="3.01" y1="6" y2="6"></line><line x1="3" x2="3.01" y1="12" y2="12"></line><line x1="3" x2="3.01" y1="18" y2="18"></line></symbol>
<symbol viewBox="0 0 24 24" fill="none" stroke="currentColor" stroke-width="2" stroke-linecap="round" stroke-linejoin="round" id="lock">
    <rect width="18" height="11" x="3" y="11" rx="2" ry="2" ></rect>
    <path d="M7 11V7a5 5 0 0 1 10 0v4" ></path>
  </symbol>
<symbol viewBox="0 0 36 36" fill="none" id="logo">
  <circle cx="18.0002" cy="18.0002" r="15.2365" stroke="white" stroke-width="1.25409"></circle>
  <ellipse cx="18.0008" cy="18" rx="15.2365" ry="10.2193" transform="rotate(45 18.0008 18)" stroke="white" stroke-width="1.25409"></ellipse>
  <path d="M11.7793 18.0547H24.3007" stroke="white" stroke-width="1.25409"></path>
  <path d="M14.8574 21.2354L21.2192 14.8736" stroke="white" stroke-width="1.25409"></path>
  <path d="M21.2207 21.2354L14.8589 14.8736" stroke="white" stroke-width="1.25409"></path>
  <path fill-rule="evenodd" clip-rule="evenodd" d="M7.57571 11.2943C4.93105 13.0681 3.39081 15.4508 3.39081 17.9997C3.39081 20.5486 4.93105 22.9313 7.57571 24.7051C10.2163 26.4762 13.9001 27.592 18.0003 27.592C22.1004 27.592 25.7842 26.4762 28.4248 24.7051C31.0695 22.9313 32.6097 20.5486 32.6097 17.9997C32.6097 15.4508 31.0695 13.0681 28.4248 11.2943C25.7842 9.5232 22.1004 8.40741 18.0003 8.40741C13.9001 8.40741 10.2163 9.5232 7.57571 11.2943ZM6.87715 10.2528C9.75106 8.32521 13.6855 7.15332 18.0003 7.15332C22.315 7.15332 26.2495 8.32521 29.1234 10.2528C31.9932 12.1776 33.8638 14.9046 33.8638 17.9997C33.8638 21.0948 31.9932 23.8218 29.1234 25.7466C26.2495 27.6742 22.315 28.8461 18.0003 28.8461C13.6855 28.8461 9.75106 27.6742 6.87715 25.7466C4.00728 23.8218 2.13672 21.0948 2.13672 17.9997C2.13672 14.9046 4.00728 12.1776 6.87715 10.2528Z" fill="currentColor"></path>
</symbol>
<symbol viewBox="0 0 500 500" preserveAspectRatio="xMidYMid meet" style="width: 100%; height: 100%; transform: translate3d(0px, 0px, 0px); content-visibility: visible;" id="logs"><defs><clipPath id="__lottie_element_137"><rect width="500" height="500" x="0" y="0"></rect></clipPath><clipPath id="__lottie_element_140"><path d="M0,0 L500,0 L500,500 L0,500z"></path></clipPath></defs><g clip-path="url(#__lottie_element_137)"><g clip-path="url(#__lottie_element_140)" transform="matrix(1,0,0,1,0,0)" opacity="1" style="display: block;"><g class="primary design" transform="matrix(20.829999923706055,0,0,20.829999923706055,-4957.498046875,-4957.498046875)" opacity="1" style="display: block;"><g opacity="1" transform="matrix(1,0,0,1,0,0)"><path stroke-linecap="butt" stroke-linejoin="miter" fill-opacity="0" stroke-miterlimit="4" class="primary" stroke="rgb(255,255,255)" stroke-opacity="1" stroke-width="2" d="M0 0"></path></g><g opacity="1" transform="matrix(1,0,0,1,250,249.9949951171875)"><path class="primary" fill="currentColor" fill-opacity="1" d=" M7.25,-4.005000114440918 C7.25,-4.005000114440918 -7.25,-4.005000114440918 -7.25,-4.005000114440918 C-8.210000038146973,-4.005000114440918 -9,-3.2149999141693115 -9,-2.255000114440918 C-9,-2.255000114440918 -9,2.244999885559082 -9,2.244999885559082 C-9,3.2149999141693115 -8.210000038146973,4.005000114440918 -7.25,4.005000114440918 C-7.25,4.005000114440918 7.25,4.005000114440918 7.25,4.005000114440918 C8.210000038146973,4.005000114440918 9,3.2149999141693115 9,2.255000114440918 C9,2.255000114440918 9,-2.244999885559082 9,-2.244999885559082 C9,-3.2149999141693115 8.210000038146973,-4.005000114440918 7.25,-4.005000114440918z M7.5,2.255000114440918 C7.5,2.3949999809265137 7.389999866485596,2.505000114440918 7.25,2.505000114440918 C7.25,2.505000114440918 -7.25,2.505000114440918 -7.25,2.505000114440918 C-7.389999866485596,2.505000114440918 -7.5,2.3949999809265137 -7.5,2.255000114440918 C-7.5,2.255000114440918 -7.5,-2.244999885559082 -7.5,-2.244999885559082 C-7.5,-2.384999990463257 -7.389999866485596,-2.494999885559082 -7.25,-2.494999885559082 C-7.25,-2.494999885559082 7.25,-2.494999885559082 7.25,-2.494999885559082 C7.389999866485596,-2.494999885559082 7.5,-2.384999990463257 7.5,-2.244999885559082 C7.5,-2.244999885559082 7.5,2.255000114440918 7.5,2.255000114440918z"></path></g><g opacity="1" transform="matrix(1,0,0,1,250,257.25)"><path class="primary" fill="currentColor" fill-opacity="1" d=" M8.25,-0.75 C8.25,-0.75 -8.25,-0.75 -8.25,-0.75 C-8.65999984741211,-0.75 -9,-0.4099999964237213 -9,0 C-9,0.4099999964237213 -8.65999984741211,0.75 -8.25,0.75 C-8.25,0.75 8.25,0.75 8.25,0.75 C8.65999984741211,0.75 9,0.4099999964237213 9,0 C9,-0.4099999964237213 8.65999984741211,-0.75 8.25,-0.75z"></path></g><g opacity="1" transform="matrix(1,0,0,1,250,242.75)"><path class="primary" fill="currentColor" fill-opacity="1" d=" M-8.25,0.75 C-8.25,0.75 8.25,0.75 8.25,0.75 C8.65999984741211,0.75 9,0.4099999964237213 9,0 C9,-0.4099999964237213 8.65999984741211,-0.75 8.25,-0.75 C8.25,-0.75 -8.25,-0.75 -8.25,-0.75 C-8.65999984741211,-0.75 -9,-0.4099999964237213 -9,0 C-9,0.4099999964237213 -8.65999984741211,0.75 -8.25,0.75z"></path></g></g><g class="primary design" style="display: none;"><g><path stroke-linecap="butt" stroke-linejoin="miter" fill-opacity="0" stroke-miterlimit="4" class="primary"></path></g><g><path class="primary"></path></g><g><path class="primary"></path></g><g><path class="primary"></path></g></g><g class="primary design" style="display: none;" transform="matrix(1,0,0,1,250.06500244140625,61.0407600402832)" opacity="1"><g opacity="1" transform="matrix(1,0,0,1,0,0)"><path stroke-linecap="round" stroke-linejoin="round" fill-opacity="0" class="primary" stroke="rgb(255,255,255)" stroke-opacity="1" stroke-width="31.3" d=" M-171.87600708007812,45.08399963378906 C-171.87600708007812,46.23099899291992 -171.87600708007812,46.85499954223633 -171.87600708007812,46.85499954223633 C-171.87600708007812,58.361000061035156 -162.54800415039062,67.68800354003906 -151.04200744628906,67.68800354003906 C-151.04200744628906,67.68800354003906 151.04200744628906,67.68800354003906 151.04200744628906,67.68800354003906 C162.54800415039062,67.68800354003906 171.87600708007812,58.361000061035156 171.87600708007812,46.85499954223633 C171.87600708007812,46.85499954223633 171.87600708007812,46.117000579833984 171.87600708007812,44.770999908447266"></path></g></g><g class="primary design" style="display: none;" transform="matrix(1,0,0,1,250.06500244140625,47.32442855834961)" opacity="1"><g opacity="1" transform="matrix(1,0,0,1,0,0)"><path stroke-linecap="round" stroke-linejoin="round" fill-opacity="0" class="primary" stroke="rgb(255,255,255)" stroke-opacity="1" stroke-width="31.3" d=" M-173.92999267578125,64.5739974975586 C-170.74600219726562,66.5479965209961 -166.98899841308594,67.68800354003906 -162.9669952392578,67.68800354003906 C-162.9669952392578,67.68800354003906 162.9669952392578,67.68800354003906 162.9669952392578,67.68800354003906 C167.87899780273438,67.68800354003906 172.3939971923828,65.98799896240234 175.95599365234375,63.14400100708008"></path></g></g><g class="primary design" style="display: none;" transform="matrix(1,0,0,1,250.06500244140625,62.216426849365234)" opacity="1"><g opacity="1" transform="matrix(1,0,0,1,0,0)"><path stroke-linecap="round" stroke-linejoin="round" fill-opacity="0" class="primary" stroke="rgb(255,255,255)" stroke-opacity="1" stroke-width="31.3" d=" M-171.9010009765625,42.220001220703125 C-171.9010009765625,45.15800094604492 -171.9010009765625,46.85499954223633 -171.9010009765625,46.85499954223633 C-171.9010009765625,58.361000061035156 -162.572998046875,67.68800354003906 -151.06700134277344,67.68800354003906 C-151.06700134277344,67.68800354003906 151.06700134277344,67.68800354003906 151.06700134277344,67.68800354003906 C162.572998046875,67.68800354003906 171.9010009765625,58.361000061035156 171.9010009765625,46.85499954223633 C171.9010009765625,46.85499954223633 171.9010009765625,44.64699935913086 171.9010009765625,40.909000396728516"></path></g></g><g class="primary design" style="display: none;" transform="matrix(1,0,0,1,250.06500244140625,249.96200561523438)" opacity="1"><g opacity="1" transform="matrix(1,0,0,1,0,0)"><path stroke-linecap="round" stroke-linejoin="round" fill-opacity="0" class="primary" stroke="rgb(255,255,255)" stroke-opacity="1" stroke-width="31.3" d=" M15.562999725341797,67.68800354003906 C85.55500030517578,67.68800354003906 151.04200744628906,67.68800354003906 151.04200744628906,67.68800354003906 C162.54800415039062,67.68800354003906 171.87600708007812,58.361000061035156 171.87600708007812,46.85499954223633 C171.87600708007812,46.85499954223633 171.87600708007812,-46.85499954223633 171.87600708007812,-46.85499954223633 C171.87600708007812,-58.36000061035156 162.54800415039062,-67.68800354003906 151.04200744628906,-67.68800354003906 C151.04200744628906,-67.68800354003906 151.04200744628906,-67.68800354003906 151.04200744628906,-67.68800354003906 C151.04200744628906,-67.68800354003906 -151.04200744628906,-67.68800354003906 -151.04200744628906,-67.68800354003906 C-162.54800415039062,-67.68800354003906 -171.87600708007812,-58.36000061035156 -171.87600708007812,-46.85499954223633 C-171.87600708007812,-46.85499954223633 -171.87600708007812,46.85499954223633 -171.87600708007812,46.85499954223633 C-171.87600708007812,58.361000061035156 -162.54800415039062,67.68800354003906 -151.04200744628906,67.68800354003906 C-151.04200744628906,67.68800354003906 -64.77200317382812,67.68800354003906 15.562999725341797,67.68800354003906"></path></g></g><g class="primary design" style="display: none;" transform="matrix(1,0,0,1,250.00399780273438,401.010986328125)" opacity="1"><g opacity="1" transform="matrix(1,0,0,1,0,0)"><path stroke-linecap="round" stroke-linejoin="round" fill-opacity="0" class="primary" stroke="rgb(255,255,255)" stroke-opacity="1" stroke-width="31.3" d=" M171.87600708007812,0 C171.87600708007812,0 -171.87600708007812,0 -171.87600708007812,0"></path></g></g><g class="primary design" style="display: none;" transform="matrix(1,0,0,1,250.00399780273438,99.14399719238281)" opacity="1"><g opacity="1" transform="matrix(1,0,0,1,0,0)"><path stroke-linecap="round" stroke-linejoin="round" fill-opacity="0" class="primary" stroke="rgb(255,255,255)" stroke-opacity="1" stroke-width="31.3" d=" M171.87600708007812,0 C171.87600708007812,0 -171.87600708007812,0 -171.87600708007812,0"></path></g></g></g></g></symbol>
<symbol viewBox="0 0 28 28" fill="none" id="mailchimp">
<path d="M19.2626 13.3712C19.4123 13.3712 19.562 13.3712 19.7118 13.3712C19.8071 13.167 19.8071 12.8675 19.7118 12.5272C19.6165 12.0235 19.4668 11.6832 19.1673 11.724C18.8678 11.7785 18.8678 12.1732 18.9631 12.6769C19.0039 12.9764 19.1128 13.2214 19.2626 13.3712Z" fill="currentColor"></path>
<path d="M16.6216 13.8202C16.8258 13.9155 16.9756 13.9699 17.0164 13.9155C17.0709 13.861 17.0164 13.8202 16.962 13.7113C16.8667 13.5071 16.608 13.3573 16.4174 13.2621C15.9138 13.0579 15.3693 13.1123 14.92 13.4662C14.7703 13.5615 14.6206 13.7113 14.675 13.8202C14.675 13.8746 14.7295 13.8746 14.7703 13.8746C14.8656 13.8746 15.3148 13.6704 15.8185 13.6296C16.118 13.616 16.4174 13.7249 16.6216 13.8202Z" fill="currentColor"></path>
<path d="M16.1723 14.0654C15.8728 14.1199 15.7231 14.2152 15.6278 14.3104C15.5325 14.4057 15.478 14.4602 15.478 14.5146V14.5691H15.5325C15.5869 14.5691 15.7367 14.5146 15.7367 14.5146C16.1314 14.3649 16.3901 14.3649 16.6351 14.4193C16.7849 14.4193 16.8393 14.4738 16.8801 14.4193C16.8801 14.4193 16.8801 14.3649 16.8801 14.3241C16.8665 14.1743 16.5671 14.0246 16.1723 14.0654Z" fill="currentColor"></path>
<path d="M18.3641 14.9635C18.5683 15.0587 18.7589 15.0179 18.8678 14.8682C18.9223 14.7184 18.8134 14.5142 18.6228 14.4189C18.4186 14.3236 18.228 14.3645 18.1191 14.5142C18.0102 14.664 18.1599 14.8682 18.3641 14.9635Z" fill="currentColor"></path>
<path d="M19.6027 13.8745C19.453 13.8745 19.3032 14.0243 19.3032 14.2693C19.3032 14.4735 19.3985 14.6641 19.6027 14.6641C19.7524 14.6641 19.9022 14.5143 19.9022 14.2693C19.8613 14.0651 19.7524 13.8745 19.6027 13.8745Z" fill="currentColor"></path>
<path d="M9.05252 17.7542C8.99807 17.6998 8.95723 17.6998 8.90278 17.7542C8.84833 17.7542 8.80749 17.7542 8.75304 17.7542C8.65775 17.7542 8.54885 17.6998 8.50801 17.6045C8.46717 17.5092 8.45356 17.3595 8.50801 17.1553L8.56246 17.06C8.7122 16.7605 8.91639 16.3113 8.65775 15.862C8.45356 15.5081 8.20853 15.3175 7.85459 15.2631C7.50066 15.2086 7.16034 15.3584 6.95615 15.617C6.60221 16.0118 6.56137 16.5155 6.60221 16.706C6.60221 16.7605 6.65666 16.8013 6.6975 16.8013C6.75195 16.8013 6.84724 16.7469 6.9017 16.5971V16.5427C6.9017 16.4474 6.95615 16.3385 7.05144 16.1888C7.14673 16.039 7.29647 15.9437 7.44621 15.9437C7.59595 15.8893 7.80014 15.9437 7.94988 16.039C8.19491 16.1888 8.30382 16.4882 8.19491 16.7877C8.04517 16.9375 7.99072 17.1825 7.99072 17.4411C8.04517 17.8904 8.34466 18.0946 8.58969 18.1354C8.83472 18.1354 9.03891 17.9856 9.03891 17.8904C9.09336 17.8087 9.05252 17.8087 9.05252 17.7542Z" fill="currentColor"></path>
<path d="M23.5368 16.9103C23.5368 16.8558 23.4823 16.6652 23.387 16.3658L23.1828 15.9165C23.5368 15.4129 23.5368 14.9228 23.4823 14.6778C23.4279 14.3783 23.2781 14.0788 23.0331 13.7793C22.7881 13.4798 22.1891 13.1804 21.4404 12.9762L21.0456 12.8809C21.0456 12.8809 21.0456 11.928 20.9912 11.5332C20.9912 11.2337 20.9367 10.7845 20.787 10.3353C20.6372 9.73631 20.3377 9.19179 19.943 8.83786C20.9367 7.78967 21.5901 6.59174 21.5901 5.598C21.5901 3.70582 19.2487 3.10685 16.3084 4.30478L15.7094 4.54982C15.7094 4.54982 14.6204 3.46079 14.5659 3.46079C11.3397 0.574869 1.03476 12.0777 4.31545 14.8683L5.0097 15.4673C4.80551 15.971 4.76467 16.5155 4.80551 17.1145C4.9008 17.8632 5.30918 18.6119 5.89454 19.2108C6.4935 19.7553 7.28305 20.1093 8.0862 20.1093C9.37942 23.1041 12.3198 24.8874 15.7502 24.9963C19.4393 25.0916 22.5703 23.3491 23.8635 20.259C23.9588 20.0548 24.3127 19.0611 24.3127 18.1626C24.3944 17.2506 23.8907 16.9103 23.5368 16.9103ZM8.3993 19.2517C8.30401 19.2517 8.15427 19.3061 8.04536 19.2517C6.95634 19.1972 5.70396 18.2035 5.60867 17.0056C5.51338 15.7123 6.15318 14.7186 7.35111 14.46C7.50085 14.4055 7.65059 14.4055 7.85478 14.4055C8.5082 14.46 9.50194 14.95 9.74697 16.393C9.93755 17.7543 9.65168 19.0475 8.3993 19.2517ZM7.16053 13.6704C6.41182 13.8202 5.77202 14.2149 5.36364 14.8139C5.11861 14.6097 4.66938 14.2149 4.61493 14.0652C3.96151 12.8673 5.30919 10.485 6.26208 9.17818C8.54904 5.89749 12.1837 3.40634 13.8308 3.84195C14.1303 3.93724 15.0287 4.98543 15.0287 4.98543C15.0287 4.98543 13.3408 5.93832 11.7889 7.23154C9.69252 8.78341 8.09981 11.1248 7.16053 13.6704ZM18.9084 18.748L18.9629 18.6935C18.9629 18.6391 18.9084 18.6391 18.9084 18.6391C18.9084 18.6391 17.166 18.8841 15.5188 18.2852C15.723 17.6862 16.1722 17.8904 16.9073 17.9857C18.2005 18.081 19.3985 17.8904 20.2425 17.6317C20.9912 17.4276 21.9849 16.9783 22.7336 16.393C22.9786 16.9375 23.0875 17.5909 23.0875 17.5909C23.0875 17.5909 23.2917 17.5365 23.4415 17.6454C23.5912 17.7406 23.6865 17.9448 23.6457 18.4485C23.4959 19.4423 23.0467 20.191 22.4069 20.9397C22.0121 21.3889 21.454 21.7837 20.8687 22.0831C20.5692 22.2329 20.2152 22.3826 19.8749 22.4779C17.1796 23.3219 14.4978 22.4235 13.6539 20.3815C13.5994 20.2318 13.5041 20.0821 13.5041 19.8779C13.1502 18.5302 13.4497 16.9375 14.457 15.9438C14.5115 15.8893 14.5523 15.794 14.5523 15.6987C14.5523 15.6034 14.4978 15.549 14.457 15.4945C14.1031 14.9909 12.9188 14.1469 13.1638 12.4997C13.3135 11.3018 14.3617 10.5122 15.301 10.5531H15.546C15.9408 10.5531 16.3492 10.6484 16.6351 10.6484C17.1796 10.6484 17.7241 10.5939 18.3231 10.1039C18.5272 9.95411 18.677 9.80437 18.9765 9.74992C19.0309 9.74992 19.0718 9.69547 19.2215 9.74992C19.3712 9.74992 19.521 9.80437 19.6163 9.89966C20.1199 10.2536 20.1608 10.9887 20.2152 11.5876C20.2152 11.9416 20.2697 12.7311 20.2697 12.9353C20.3241 13.439 20.4194 13.5343 20.7189 13.6296C20.8687 13.684 21.0184 13.7249 21.2226 13.7793C21.876 13.9835 22.2708 14.1332 22.5158 14.3783C22.6655 14.528 22.72 14.6778 22.7608 14.8275C22.8561 15.372 22.3116 16.0663 20.9639 16.7197C19.4665 17.4139 17.7241 17.5637 16.4853 17.4139L16.0361 17.3595C15.0424 17.2097 14.4978 18.503 15.0832 19.347C15.478 19.8915 16.5262 20.2999 17.5199 20.2999C19.9158 20.2999 21.7535 19.3061 22.4069 18.4077L22.4614 18.3124C22.5158 18.2579 22.4614 18.2171 22.4069 18.2579C21.8624 18.6527 19.3712 20.1501 16.7303 19.7009C16.7303 19.7009 16.4309 19.6464 16.1314 19.5512C15.8864 19.4559 15.4371 19.2517 15.3282 18.748C17.5607 19.4014 18.9084 18.748 18.9084 18.748ZM11.435 9.19179C12.2381 8.23889 13.2727 7.3949 14.1711 6.94567C14.2256 6.94567 14.2256 6.94568 14.2256 7.00013C14.1711 7.14987 14.0214 7.3949 13.9806 7.59909C13.9806 7.65354 14.035 7.65354 14.035 7.65354C14.5795 7.25877 15.5733 6.85038 16.4309 6.80954C16.4853 6.80954 16.4853 6.864 16.4853 6.864C16.3356 6.95929 16.2403 7.10903 16.0905 7.25877C16.0905 7.25877 16.0905 7.31322 16.145 7.31322C16.744 7.31322 17.588 7.51741 18.1325 7.85773C18.1869 7.85773 18.1325 7.95302 18.078 7.95302C17.234 7.74883 15.8864 7.59909 14.4434 7.95302C13.1502 8.25251 12.1973 8.75618 11.503 9.24624C11.435 9.23263 11.3941 9.23263 11.435 9.19179Z" fill="currentColor"></path>
</symbol>
<symbol viewBox="0 0 16 16" fill="none" id="multibranch">
<g id="If / else">
<path id="Union" fill-rule="evenodd" clip-rule="evenodd" d="M8.5453 2.80313C8.5453 2.47175 8.27667 2.20312 7.9453 2.20312C7.61393 2.20312 7.3453 2.47175 7.3453 2.80313V5.50506L6.01353 6.17377C4.77462 6.79585 3.9926 8.06359 3.9926 9.44991V11.8366L3.17035 10.8554C2.95751 10.6015 2.57907 10.5681 2.3251 10.781C2.07112 10.9938 2.03778 11.3722 2.25062 11.6262L4.12254 13.8599C4.23359 13.9924 4.39641 14.0706 4.56926 14.0744C4.74212 14.0781 4.9082 14.0072 5.02495 13.8797L7.06989 11.646C7.29365 11.4016 7.27691 11.0221 7.0325 10.7983C6.78809 10.5745 6.40856 10.5913 6.1848 10.8357L5.1926 11.9194V9.44991C5.1926 8.51738 5.71863 7.66463 6.552 7.24618L7.9453 6.54657L9.33863 7.24618C10.172 7.66463 10.698 8.51739 10.698 9.44992V11.8408L9.87224 10.8554C9.65939 10.6015 9.28096 10.5681 9.02698 10.781C8.77301 10.9938 8.73966 11.3722 8.95251 11.6262L10.8244 13.8599C10.9355 13.9924 11.0983 14.0706 11.2711 14.0744C11.444 14.0781 11.6101 14.0072 11.7268 13.8797L13.7718 11.646C13.9955 11.4016 13.9788 11.0221 13.7344 10.7983C13.49 10.5745 13.1104 10.5913 12.8867 10.8357L11.898 11.9156V9.44992C11.898 8.06359 11.116 6.79585 9.8771 6.17378L8.5453 5.50506V2.80313Z" fill="currentColor"></path>
</g>
</symbol>
<symbol viewBox="0 0 320 320" id="openai-logomark"><path fill="currentColor" d="m297.06 130.97c7.26-21.79 4.76-45.66-6.85-65.48-17.46-30.4-52.56-46.04-86.84-38.68-15.25-17.18-37.16-26.95-60.13-26.81-35.04-.08-66.13 22.48-76.91 55.82-22.51 4.61-41.94 18.7-53.31 38.67-17.59 30.32-13.58 68.54 9.92 94.54-7.26 21.79-4.76 45.66 6.85 65.48 17.46 30.4 52.56 46.04 86.84 38.68 15.24 17.18 37.16 26.95 60.13 26.8 35.06.09 66.16-22.49 76.94-55.86 22.51-4.61 41.94-18.7 53.31-38.67 17.57-30.32 13.55-68.51-9.94-94.51zm-120.28 168.11c-14.03.02-27.62-4.89-38.39-13.88.49-.26 1.34-.73 1.89-1.07l63.72-36.8c3.26-1.85 5.26-5.32 5.24-9.07v-89.83l26.93 15.55c.29.14.48.42.52.74v74.39c-.04 33.08-26.83 59.9-59.91 59.97zm-128.84-55.03c-7.03-12.14-9.56-26.37-7.15-40.18.47.28 1.3.79 1.89 1.13l63.72 36.8c3.23 1.89 7.23 1.89 10.47 0l77.79-44.92v31.1c.02.32-.13.63-.38.83l-64.41 37.19c-28.69 16.52-65.33 6.7-81.92-21.95zm-16.77-139.09c7-12.16 18.05-21.46 31.21-26.29 0 .55-.03 1.52-.03 2.2v73.61c-.02 3.74 1.98 7.21 5.23 9.06l77.79 44.91-26.93 15.55c-.27.18-.61.21-.91.08l-64.42-37.22c-28.63-16.58-38.45-53.21-21.95-81.89zm221.26 51.49-77.79-44.92 26.93-15.54c.27-.18.61-.21.91-.08l64.42 37.19c28.68 16.57 38.51 53.26 21.94 81.94-7.01 12.14-18.05 21.44-31.2 26.28v-75.81c.03-3.74-1.96-7.2-5.2-9.06zm26.8-40.34c-.47-.29-1.3-.79-1.89-1.13l-63.72-36.8c-3.23-1.89-7.23-1.89-10.47 0l-77.79 44.92v-31.1c-.02-.32.13-.63.38-.83l64.41-37.16c28.69-16.55 65.37-6.7 81.91 22 6.99 12.12 9.52 26.31 7.15 40.1zm-168.51 55.43-26.94-15.55c-.29-.14-.48-.42-.52-.74v-74.39c.02-33.12 26.89-59.96 60.01-59.94 14.01 0 27.57 4.92 38.34 13.88-.49.26-1.33.73-1.89 1.07l-63.72 36.8c-3.26 1.85-5.26 5.31-5.24 9.06l-.04 89.79zm14.63-31.54 34.65-20.01 34.65 20v40.01l-34.65 20-34.65-20z"></path></symbol>
<symbol viewBox="0 0 17 16" fill="none" id="people">
  <path fill-rule="evenodd" clip-rule="evenodd" d="M8.5 15C10.3565 15 12.137 14.2625 13.4497 12.9497C14.7625 11.637 15.5 9.85652 15.5 8C15.5 6.14348 14.7625 4.36301 13.4497 3.05025C12.137 1.7375 10.3565 1 8.5 1C6.64348 1 4.86301 1.7375 3.55025 3.05025C2.2375 4.36301 1.5 6.14348 1.5 8C1.5 9.85652 2.2375 11.637 3.55025 12.9497C4.86301 14.2625 6.64348 15 8.5 15ZM5.621 10.879L4.611 11.889C3.84179 11.1198 3.31794 10.1398 3.1057 9.07291C2.89346 8.00601 3.00236 6.90013 3.41864 5.89512C3.83491 4.89012 4.53986 4.03112 5.44434 3.42676C6.34881 2.8224 7.41219 2.49983 8.5 2.49983C9.58781 2.49983 10.6512 2.8224 11.5557 3.42676C12.4601 4.03112 13.1651 4.89012 13.5814 5.89512C13.9976 6.90013 14.1065 8.00601 13.8943 9.07291C13.6821 10.1398 13.1582 11.1198 12.389 11.889L11.379 10.879C11.1004 10.6003 10.7696 10.3792 10.4055 10.2284C10.0414 10.0776 9.6511 9.99995 9.257 10H7.743C7.3489 9.99995 6.95865 10.0776 6.59455 10.2284C6.23045 10.3792 5.89963 10.6003 5.621 10.879Z" fill="currentColor"></path>
  <path d="M8.5 4C7.96957 4 7.46086 4.21071 7.08579 4.58579C6.71071 4.96086 6.5 5.46957 6.5 6V6.5C6.5 7.03043 6.71071 7.53914 7.08579 7.91421C7.46086 8.28929 7.96957 8.5 8.5 8.5C9.03043 8.5 9.53914 8.28929 9.91421 7.91421C10.2893 7.53914 10.5 7.03043 10.5 6.5V6C10.5 5.46957 10.2893 4.96086 9.91421 4.58579C9.53914 4.21071 9.03043 4 8.5 4Z" fill="currentColor"></path>
</symbol>
<symbol viewBox="0 0 24 24" fill="none" stroke="currentColor" stroke-width="2" stroke-linecap="round" stroke-linejoin="round" class="lucide lucide-circle-play" id="play-circle"><circle cx="12" cy="12" r="10"></circle><polygon points="10 8 16 12 10 16 10 8"></polygon></symbol>
<symbol viewBox="0 0 15 15" fill="none" id="playground">
<path fill-rule="evenodd" clip-rule="evenodd" d="M1.23225 1.82553C0.905273 2.46726 0.905273 3.30734 0.905273 4.9875V9.3875C0.905273 11.0677 0.905273 11.9077 1.23225 12.5495C1.51987 13.114 1.97881 13.5729 2.5433 13.8605C3.18503 14.1875 4.02511 14.1875 5.70527 14.1875H10.1053C11.7855 14.1875 12.6255 14.1875 13.2673 13.8605C13.8318 13.5729 14.2907 13.114 14.5783 12.5495C14.9053 11.9077 14.9053 11.0677 14.9053 9.3875V4.9875C14.9053 3.30734 14.9053 2.46726 14.5783 1.82553C14.2907 1.26104 13.8318 0.8021 13.2673 0.51448C12.6255 0.1875 11.7855 0.1875 10.1053 0.1875H5.70527C4.02511 0.1875 3.18503 0.1875 2.5433 0.51448C1.97881 0.8021 1.51987 1.26104 1.23225 1.82553ZM4.05675 6.30402C3.70688 6.08228 3.24351 6.18614 3.02176 6.536C2.80002 6.88586 2.90388 7.34924 3.25374 7.57098L5.80425 9.1875L3.25374 10.804C2.90388 11.0258 2.80002 11.4891 3.02176 11.839C3.24351 12.1889 3.70688 12.2927 4.05675 12.071L7.60675 9.821C7.82374 9.6835 7.95524 9.4444 7.95524 9.1875C7.95524 8.93059 7.82374 8.69156 7.60675 8.55402L4.05675 6.30402Z" fill="currentColor"></path>
</symbol>
<symbol viewBox="0 0 16 16" fill="none" id="plus-icon">
<path d="M7.99998 2C8.33749 2 8.61642 2.3564 8.6606 2.81882L8.66665 2.94737V13.0526C8.66665 13.5758 8.36816 14 7.99998 14C7.66247 14 7.38353 13.6435 7.33936 13.1812L7.33331 13.0526V2.94737C7.33331 2.42416 7.6318 2 7.99998 2Z" fill="currentColor" fill-opacity="0.784314"></path>
<path d="M13.0526 7.33331C13.5758 7.33331 14 7.6318 14 7.99998C14 8.33749 13.6435 8.61642 13.1812 8.6606L13.0526 8.66665H2.94737C2.42416 8.66665 2 8.36816 2 7.99998C2 7.66247 2.3564 7.38353 2.81882 7.33936L2.94737 7.33331H13.0526Z" fill="currentColor" fill-opacity="0.784314"></path>
</symbol>
<symbol viewBox="0 0 16 17" fill="none" id="record-created">
<path fill-rule="evenodd" clip-rule="evenodd" d="M10.5386 1.97437C12.4665 1.97437 14.0293 3.53719 14.0293 5.46503V5.92637C14.0293 6.31193 13.7167 6.6245 13.3312 6.6245C12.9456 6.6245 12.633 6.31193 12.633 5.92637V5.46503C12.633 4.30833 11.6953 3.37063 10.5386 3.37063H4.95355C3.79685 3.37063 2.85915 4.30833 2.85915 5.46503V11.2553C2.85915 12.412 3.79685 13.3497 4.95355 13.3497H6.1697C6.55527 13.3497 6.86783 13.6622 6.86783 14.0479C6.86783 14.4334 6.55527 14.746 6.1697 14.746H4.95355C3.02572 14.746 1.46289 13.1831 1.46289 11.2553V5.46503C1.46289 3.53719 3.02572 1.97437 4.95355 1.97437H10.5386ZM10.7988 14.746C10.5227 14.746 10.2988 14.5221 10.2988 14.246V11.9497H8.00244C7.7263 11.9497 7.50244 11.7258 7.50244 11.4497V11.1824C7.50244 10.9063 7.7263 10.6824 8.00244 10.6824H10.2988V8.38574C10.2988 8.1096 10.5227 7.88574 10.7988 7.88574H11.0661C11.3422 7.88574 11.5661 8.1096 11.5661 8.38574V10.6824H13.8627C14.1388 10.6824 14.3627 10.9063 14.3627 11.1824V11.4497C14.3627 11.7258 14.1388 11.9497 13.8627 11.9497H11.5661V14.246C11.5661 14.5221 11.3422 14.746 11.0661 14.746H10.7988Z" fill="currentColor"></path>
</symbol>
<symbol viewBox="0 0 16 17" fill="none" id="record-creted">
<path fill-rule="evenodd" clip-rule="evenodd" d="M10.5386 1.97437C12.4665 1.97437 14.0293 3.53719 14.0293 5.46503V5.92637C14.0293 6.31193 13.7167 6.6245 13.3312 6.6245C12.9456 6.6245 12.633 6.31193 12.633 5.92637V5.46503C12.633 4.30833 11.6953 3.37063 10.5386 3.37063H4.95355C3.79685 3.37063 2.85915 4.30833 2.85915 5.46503V11.2553C2.85915 12.412 3.79685 13.3497 4.95355 13.3497H6.1697C6.55527 13.3497 6.86783 13.6622 6.86783 14.0479C6.86783 14.4334 6.55527 14.746 6.1697 14.746H4.95355C3.02572 14.746 1.46289 13.1831 1.46289 11.2553V5.46503C1.46289 3.53719 3.02572 1.97437 4.95355 1.97437H10.5386ZM10.7988 14.746C10.5227 14.746 10.2988 14.5221 10.2988 14.246V11.9497H8.00244C7.7263 11.9497 7.50244 11.7258 7.50244 11.4497V11.1824C7.50244 10.9063 7.7263 10.6824 8.00244 10.6824H10.2988V8.38574C10.2988 8.1096 10.5227 7.88574 10.7988 7.88574H11.0661C11.3422 7.88574 11.5661 8.1096 11.5661 8.38574V10.6824H13.8627C14.1388 10.6824 14.3627 10.9063 14.3627 11.1824V11.4497C14.3627 11.7258 14.1388 11.9497 13.8627 11.9497H11.5661V14.246C11.5661 14.5221 11.3422 14.746 11.0661 14.746H10.7988Z" fill="currentColor"></path>
</symbol>
<symbol viewBox="0 0 24 24" fill="none" stroke="currentColor" stroke-width="1.5" stroke-linecap="round" stroke-linejoin="round" id="records"><path d="M15 2H6a2 2 0 0 0-2 2v16a2 2 0 0 0 2 2h12a2 2 0 0 0 2-2V7Z"></path><path d="M14 2v4a2 2 0 0 0 2 2h4"></path><path d="M10 9H8"></path><path d="M16 13H8"></path><path d="M16 17H8"></path></symbol>
<symbol viewBox="0 0 24 24" fill="none" stroke="currentColor" stroke-width="2" stroke-linecap="round" stroke-linejoin="round" class="lucide lucide-redo-2" id="redo"><path d="m15 14 5-5-5-5"></path><path d="M20 9H9.5A5.5 5.5 0 0 0 4 14.5A5.5 5.5 0 0 0 9.5 20H13"></path></symbol>
<symbol viewBox="0 0 14 15" fill="none" id="reply">
  <path fill-rule="evenodd" clip-rule="evenodd" d="M6.75208 2.75128C6.75208 2.52872 6.4925 2.40714 6.32152 2.54963L1.06271 6.93231C0.93678 7.03725 0.93678 7.23067 1.06271 7.33561L6.32152 11.7183C6.4925 11.8608 6.75208 11.7392 6.75208 11.5166V9.60018C6.75208 9.46167 6.85898 9.34626 6.99748 9.34501C8.52357 9.33128 10.7773 10.0617 12.4659 12.8814C12.6202 13.139 13.043 13.0144 12.9846 12.7199C12.3895 9.72154 10.7679 5.86085 6.98742 5.30168C6.85491 5.28208 6.75208 5.17001 6.75208 5.03605V2.75128Z" fill="currentColor"></path>
</symbol>
<symbol viewBox="0 0 256 256" fill="none" class="w:24 h:auto mr:6 h:auto" id="rewatch">
        <path fill="currentColor" d="M7.7 171.7a10.6 10.6 0 1 0 20-7.3 106.9 106.9 0 0 1 137-136.7 10.6 10.6 0 1 0 7.3-20 128 128 0 0 0-164.2 164Z"></path>
        <path fill="currentColor" d="m111.8 83.4 63.5 35.3c7.3 4 7.3 14.5 0 18.5l-63.5 35.3c-7 4-15.8-1.2-15.8-9.3V92.7c0-8.1 8.8-13.3 15.8-9.3Z"></path>
        <path fill="currentColor" d="M128 255.9a128 128 0 0 1-43.8-7.7 10.6 10.6 0 1 1 7.3-20A106.8 106.8 0 0 0 228.3 91.5a10.6 10.6 0 1 1 20-7.3A128.1 128.1 0 0 1 128 256l.2-.1Z"></path>
        <path fill="currentColor" d="M224.4 45a13.3 13.3 0 1 1-26.7 0 13.3 13.3 0 0 1 26.7 0Z"></path>
        <path fill="currentColor" d="M45 224.2a13.3 13.3 0 1 0 0-26.6 13.3 13.3 0 0 0 0 26.6Z"></path>
        <defs>
            <radialGradient id="logo-icon-light-a" cx="0" cy="0" r="1" gradientTransform="matrix(0 256 -405 0 128 0)" gradientUnits="userSpaceOnUse">
                <stop stop-color="#20AFFF"></stop>
                <stop offset="1" stop-color="#0036F3"></stop>
            </radialGradient>
            <radialGradient id="logo-icon-light-b" cx="0" cy="0" r="1" gradientTransform="matrix(0 256 -405 0 128 0)" gradientUnits="userSpaceOnUse">
                <stop stop-color="#20AFFF"></stop>
                <stop offset="1" stop-color="#0036F3"></stop>
            </radialGradient>
            <radialGradient id="logo-icon-light-c" cx="0" cy="0" r="1" gradientTransform="matrix(0 256 -405 0 128 0)" gradientUnits="userSpaceOnUse">
                <stop stop-color="#20AFFF"></stop>
                <stop offset="1" stop-color="#0036F3"></stop>
            </radialGradient>
            <radialGradient id="logo-icon-light-d" cx="0" cy="0" r="1" gradientTransform="matrix(0 256 -405 0 128 0)" gradientUnits="userSpaceOnUse">
                <stop stop-color="#20AFFF"></stop>
                <stop offset="1" stop-color="#0036F3"></stop>
            </radialGradient>
            <radialGradient id="logo-icon-light-e" cx="0" cy="0" r="1" gradientTransform="matrix(0 256 -405 0 128 0)" gradientUnits="userSpaceOnUse">
                <stop stop-color="#20AFFF"></stop>
                <stop offset="1" stop-color="#0036F3"></stop>
            </radialGradient>
        </defs>
    </symbol>
<symbol viewBox="0 0 16 16" fill="none" id="rule">
  <path fill-rule="evenodd" clip-rule="evenodd" d="M8.45809 2.68289C8.45809 2.39095 8.22143 2.1543 7.9295 2.1543C7.63757 2.1543 7.40091 2.39095 7.40091 2.68289V5.27144L6.00043 5.97464C4.90897 6.52268 4.22003 7.63954 4.22003 8.86086V9.67385H2.64793C2.42413 9.67385 2.28998 9.92254 2.41289 10.1096L4.59996 13.4375C4.71267 13.609 4.96519 13.6059 5.07371 13.4317L7.14697 10.1038C7.26368 9.91648 7.12897 9.67385 6.90825 9.67385H5.27721V8.86086C5.27721 8.03932 5.74063 7.28806 6.47482 6.91941L7.9295 6.18899L9.38421 6.91941C10.1184 7.28806 10.5818 8.03933 10.5818 8.86087V10.9695H9.60366C9.24122 10.9695 8.94741 11.2633 8.94741 11.6258C8.94741 11.9882 9.24122 12.282 9.60366 12.282H11.0368H12.7558C13.1183 12.282 13.4121 11.9882 13.4121 11.6258C13.4121 11.2633 13.1183 10.9695 12.7558 10.9695H11.639V8.86087C11.639 7.63954 10.9501 6.52268 9.85859 5.97464L8.45809 5.27144V2.68289Z" fill="currentColor"></path>
</symbol>
<symbol viewBox="0 0 15 15" fill="none" id="search">
  <path d="M13.4349 12.6027L10.0413 9.20825C10.7819 8.23427 11.1252 7.01521 11.0015 5.7977C10.8778 4.5802 10.2963 3.45516 9.37477 2.65019C8.45326 1.84523 7.26046 1.42042 6.03769 1.46174C4.81493 1.50306 3.65351 2.0074 2.78839 2.87274C1.92327 3.73808 1.41905 4.8998 1.37775 6.12288C1.33645 7.34596 1.76114 8.53906 2.5659 9.46086C3.37066 10.3826 4.49541 10.9642 5.7126 11.0879C6.92979 11.2117 8.14853 10.8684 9.12226 10.1274L12.5158 13.5219C12.6388 13.6419 12.8037 13.709 12.9754 13.709C13.1471 13.709 13.3119 13.6419 13.4349 13.5219C13.5566 13.4 13.625 13.2347 13.625 13.0624C13.625 12.89 13.5566 12.7247 13.4349 12.6027ZM2.70978 6.30195C2.70978 5.60786 2.91555 4.92935 3.30106 4.35223C3.68659 3.77512 4.23454 3.3253 4.87563 3.05969C5.51672 2.79407 6.22217 2.72457 6.90275 2.85998C7.58332 2.9954 8.20848 3.32963 8.69915 3.82043C9.18982 4.31123 9.52396 4.93654 9.65932 5.6173C9.79469 6.29806 9.72521 7.00367 9.45973 7.64494C9.19415 8.2862 8.74446 8.83429 8.16749 9.21991C7.59052 9.6055 6.91219 9.81138 6.21827 9.81138C5.2881 9.81025 4.39634 9.44012 3.73861 8.78225C3.08088 8.12435 2.71088 7.23236 2.70978 6.30195Z" fill="currentColor"></path>
</symbol>
<symbol viewBox="0 0 24 24" fill="none" stroke="currentColor" stroke-width="2" stroke-linecap="round" stroke-linejoin="round" class="lucide lucide-send" id="send"><path d="M14.536 21.686a.5.5 0 0 0 .937-.024l6.5-19a.496.496 0 0 0-.635-.635l-19 6.5a.5.5 0 0 0-.024.937l7.93 3.18a2 2 0 0 1 1.112 1.11z"></path><path d="m21.854 2.147-10.94 10.939"></path></symbol>
<symbol viewBox="0 0 17 16" fill="none" id="settings">
<g id="settings">
<path id="Vector" d="M9.48527 1C9.6034 1.00084 9.71742 1.04348 9.80711 1.12036C9.8968 1.19724 9.95638 1.30339 9.97527 1.42L10.2253 2.9C10.2408 2.98726 10.2796 3.06869 10.3378 3.13561C10.3959 3.20252 10.471 3.25243 10.5553 3.28C10.7353 3.339 10.9083 3.412 11.0753 3.5C11.1521 3.54682 11.2403 3.57158 11.3303 3.57158C11.4202 3.57158 11.5085 3.54682 11.5853 3.5L12.8053 2.63C12.8951 2.55517 13.0083 2.51419 13.1253 2.51419C13.2422 2.51419 13.3554 2.55517 13.4453 2.63L14.2653 3.45C14.3474 3.53385 14.3974 3.64391 14.4065 3.76092C14.4157 3.87792 14.3834 3.99442 14.3153 4.09L13.4453 5.31C13.3985 5.38682 13.3737 5.47504 13.3737 5.565C13.3737 5.65496 13.3985 5.74318 13.4453 5.82C13.5333 5.987 13.6063 6.16 13.6653 6.34C13.6928 6.42423 13.7428 6.4994 13.8097 6.55752C13.8766 6.61563 13.958 6.6545 14.0453 6.67L15.5253 6.92C15.6419 6.9389 15.748 6.99847 15.8249 7.08816C15.9018 7.17786 15.9444 7.29187 15.9453 7.41V8.58C15.9444 8.69813 15.9018 8.81214 15.8249 8.90184C15.748 8.99153 15.6419 9.0511 15.5253 9.07L14.0453 9.32C13.958 9.3355 13.8766 9.37437 13.8097 9.43248C13.7428 9.4906 13.6928 9.56577 13.6653 9.65C13.6066 9.82917 13.533 10.0031 13.4453 10.17C13.3985 10.2468 13.3737 10.335 13.3737 10.425C13.3737 10.515 13.3985 10.6032 13.4453 10.68L14.3153 11.9C14.3834 11.9956 14.4157 12.1121 14.4065 12.2291C14.3974 12.3461 14.3474 12.4562 14.2653 12.54L13.4453 13.36C13.3614 13.4421 13.2514 13.4921 13.1344 13.5013C13.0174 13.5104 12.9009 13.4781 12.8053 13.41L11.5853 12.54C11.5085 12.4932 11.4202 12.4684 11.3303 12.4684C11.2403 12.4684 11.1521 12.4932 11.0753 12.54C10.9084 12.6277 10.7344 12.7013 10.5553 12.76C10.471 12.7876 10.3959 12.8375 10.3378 12.9044C10.2796 12.9713 10.2408 13.0527 10.2253 13.14L9.97527 14.62C9.95638 14.7366 9.8968 14.8428 9.80711 14.9196C9.71742 14.9965 9.6034 15.0392 9.48527 15.04H8.32527C8.20715 15.0392 8.09313 14.9965 8.00344 14.9196C7.91375 14.8428 7.85417 14.7366 7.83527 14.62L7.58527 13.1C7.56978 13.0127 7.5309 12.9313 7.47279 12.8644C7.41468 12.7975 7.3395 12.7476 7.25527 12.72C7.07611 12.6613 6.90217 12.5877 6.73527 12.5C6.65846 12.4532 6.57023 12.4284 6.48027 12.4284C6.39031 12.4284 6.30209 12.4532 6.22527 12.5L5.00527 13.37C4.90969 13.4381 4.7932 13.4704 4.67619 13.4613C4.55918 13.4521 4.44912 13.4021 4.36527 13.32L3.54527 12.5C3.47044 12.4102 3.42946 12.2969 3.42946 12.18C3.42946 12.0631 3.47044 11.9498 3.54527 11.86L4.41527 10.64C4.46209 10.5632 4.48685 10.475 4.48685 10.385C4.48685 10.295 4.46209 10.2068 4.41527 10.13C4.32757 9.96311 4.25398 9.78917 4.19527 9.61C4.1677 9.52577 4.1178 9.4506 4.05088 9.39248C3.98396 9.33437 3.90254 9.2955 3.81527 9.28L2.32527 9.07C2.20866 9.0511 2.10251 8.99153 2.02563 8.90184C1.94875 8.81214 1.90611 8.69813 1.90527 8.58V7.42C1.90611 7.30187 1.94875 7.18786 2.02563 7.09817C2.10251 7.00847 2.20866 6.9489 2.32527 6.93L3.80527 6.68C3.89254 6.6645 3.97396 6.62563 4.04088 6.56752C4.1078 6.5094 4.1577 6.43423 4.18527 6.35C4.24398 6.17083 4.31757 5.99689 4.40527 5.83C4.45209 5.75318 4.47685 5.66496 4.47685 5.575C4.47685 5.48504 4.45209 5.39682 4.40527 5.32L3.49527 4.1C3.42044 4.01016 3.37946 3.89693 3.37946 3.78C3.37946 3.66307 3.42044 3.54984 3.49527 3.46L4.31527 2.64C4.40512 2.56517 4.51835 2.52419 4.63527 2.52419C4.7522 2.52419 4.86543 2.56517 4.95527 2.64L6.17527 3.51C6.25209 3.55682 6.34031 3.58158 6.43027 3.58158C6.52023 3.58158 6.60846 3.55682 6.68527 3.51C6.85217 3.42229 7.02611 3.3487 7.20527 3.29C7.2895 3.26243 7.36468 3.21252 7.42279 3.14561C7.4809 3.07869 7.51978 2.99726 7.53527 2.91L7.83527 1.42C7.85417 1.30339 7.91375 1.19724 8.00344 1.12036C8.09313 1.04348 8.20715 1.00084 8.32527 1H9.48527ZM8.90527 6C8.37484 6 7.86613 6.21071 7.49106 6.58579C7.11599 6.96086 6.90527 7.46957 6.90527 8C6.90527 8.53043 7.11599 9.03914 7.49106 9.41421C7.86613 9.78929 8.37484 10 8.90527 10C9.43571 10 9.94441 9.78929 10.3195 9.41421C10.6946 9.03914 10.9053 8.53043 10.9053 8C10.9053 7.46957 10.6946 6.96086 10.3195 6.58579C9.94441 6.21071 9.43571 6 8.90527 6Z" fill="currentColor"></path>
</g>
</symbol>
<symbol viewBox="0 0 24 24" fill="none" stroke="currentColor" stroke-width="2" stroke-linecap="round" stroke-linejoin="round" class="lucide lucide-slack" id="slack"><rect width="3" height="8" x="13" y="2" rx="1.5"></rect><path d="M19 8.5V10h1.5A1.5 1.5 0 1 0 19 8.5"></path><rect width="3" height="8" x="8" y="14" rx="1.5"></rect><path d="M5 15.5V14H3.5A1.5 1.5 0 1 0 5 15.5"></path><rect width="8" height="3" x="14" y="13" rx="1.5"></rect><path d="M15.5 19H14v1.5a1.5 1.5 0 1 0 1.5-1.5"></path><rect width="8" height="3" x="2" y="8" rx="1.5"></rect><path d="M8.5 5H10V3.5A1.5 1.5 0 1 0 8.5 5"></path></symbol>
<symbol viewBox="0 0 24 24" fill="none" stroke="white" stroke-width="2" stroke-linecap="round" stroke-linejoin="round" class="lucide lucide-arrow-down-wide-narrow" id="sort-down">
  <path d="m3 16 4 4 4-4" ></path>
  <path d="M7 20V4" ></path>
  <path d="M11 4h10" ></path>
  <path d="M11 8h7" ></path>
  <path d="M11 12h4" ></path>
</symbol>
<symbol viewBox="0 0 24 24" fill="none" stroke="white" stroke-width="2" stroke-linecap="round" stroke-linejoin="round" class="lucide lucide-arrow-up-narrow-wide" id="sort-up">
  <path d="m3 8 4-4 4 4" ></path>
  <path d="M7 4v16" ></path>
  <path d="M11 12h4" ></path>
  <path d="M11 16h7" ></path>
  <path d="M11 20h10" ></path>
</symbol>
<symbol viewBox="0 0 24 24" fill="none" stroke="currentColor" stroke-width="2" stroke-linecap="round" stroke-linejoin="round" class="lucide lucide-strikethrough" id="strikethrough"><path d="M16 4H9a3 3 0 0 0-2.83 4"></path><path d="M14 12a4 4 0 0 1 0 8H6"></path><line x1="4" x2="20" y1="12" y2="12"></line></symbol>
<symbol viewBox="0 0 24 24" fill="none" stroke="currentColor" stroke-width="2" stroke-linecap="round" stroke-linejoin="round" class="lucide lucide-refresh-ccw" id="sync"><path d="M21 12a9 9 0 0 0-9-9 9.75 9.75 0 0 0-6.74 2.74L3 8"></path><path d="M3 3v5h5"></path><path d="M3 12a9 9 0 0 0 9 9 9.75 9.75 0 0 0 6.74-2.74L21 16"></path><path d="M16 16h5v5"></path></symbol>
<symbol viewBox="0 0 24 24" fill="none" stroke="currentColor" stroke-width="2" stroke-linecap="round" stroke-linejoin="round" class="lucide lucide-monitor-cog" id="system"><path d="M12 17v4"></path><path d="m15.2 4.9-.9-.4"></path><path d="m15.2 7.1-.9.4"></path><path d="m16.9 3.2-.4-.9"></path><path d="m16.9 8.8-.4.9"></path><path d="m19.5 2.3-.4.9"></path><path d="m19.5 9.7-.4-.9"></path><path d="m21.7 4.5-.9.4"></path><path d="m21.7 7.5-.9-.4"></path><path d="M22 13v2a2 2 0 0 1-2 2H4a2 2 0 0 1-2-2V5a2 2 0 0 1 2-2h7"></path><path d="M8 21h8"></path><circle cx="18" cy="6" r="3"></circle></symbol>
<symbol viewBox="0 0 17 17" fill="none" id="text">
<path fill-rule="evenodd" clip-rule="evenodd" d="M2.43174 2.52282C2.32202 2.79369 2.32202 3.13611 2.32202 3.82094V13.3509C2.32202 14.0357 2.32202 14.3781 2.43174 14.649C2.58415 15.0253 2.8826 15.3238 3.2589 15.4762C3.52977 15.5859 3.87219 15.5859 4.55702 15.5859H12.087C12.7718 15.5859 13.1142 15.5859 13.3851 15.4762C13.7614 15.3238 14.0599 15.0253 14.2123 14.649C14.322 14.3781 14.322 14.0357 14.322 13.3509V7.58594V3.82094C14.322 3.13611 14.322 2.79369 14.2123 2.52282C14.0599 2.14652 13.7614 1.84807 13.3851 1.69566C13.1142 1.58594 12.7718 1.58594 12.087 1.58594H9.95838H4.55702C3.87219 1.58594 3.52977 1.58594 3.2589 1.69566C2.8826 1.84807 2.58415 2.14652 2.43174 2.52282ZM12.322 4.08594C12.322 3.8098 12.0981 3.58594 11.822 3.58594H4.82202C4.54588 3.58594 4.32202 3.8098 4.32202 4.08594V6.08594C4.32202 6.36208 4.54588 6.58594 4.82202 6.58594H4.93163C5.16107 6.58594 5.36106 6.42979 5.4167 6.20721L5.74627 4.88893C5.79079 4.71086 5.95078 4.58594 6.13433 4.58594H7.57202V11.5859C7.57202 12.1382 7.1243 12.5859 6.57202 12.5859H6.15535C5.69512 12.5859 5.32202 12.959 5.32202 13.4192C5.32202 13.5113 5.39664 13.5859 5.48869 13.5859H11.1553C11.2474 13.5859 11.322 13.5113 11.322 13.4192C11.322 12.959 10.9489 12.5859 10.4887 12.5859H10.072C9.51974 12.5859 9.07202 12.1382 9.07202 11.5859V4.58594H10.5097C10.6932 4.58594 10.8532 4.71086 10.8977 4.88893L11.2273 6.20721C11.283 6.42979 11.483 6.58594 11.7124 6.58594H11.822C12.0981 6.58594 12.322 6.36208 12.322 6.08594V4.08594Z" fill="currentColor"></path>
</symbol>
<symbol viewBox="0 0 17 16" fill="none" id="trash">
<g id="trash">
<path id="Vector" fill-rule="evenodd" clip-rule="evenodd" d="M12.427 6.5C12.7031 6.5 12.927 6.72386 12.927 7C12.927 7.03856 12.9225 7.07699 12.9137 7.11452L11.4211 13.4581C11.2085 14.3615 10.4024 15 9.47432 15H6.64238C5.71428 15 4.90812 14.3615 4.69555 13.4581L3.20294 7.11452C3.1397 6.84572 3.30633 6.57654 3.57513 6.51329C3.61266 6.50446 3.65109 6.5 3.68965 6.5H12.427ZM8.55835 1C9.93906 1 11.0583 2.11929 11.0583 3.5H13.0583C13.6106 3.5 14.0583 3.94772 14.0583 4.5V5C14.0583 5.27614 13.8344 5.5 13.5583 5.5H2.55835C2.28221 5.5 2.05835 5.27614 2.05835 5V4.5C2.05835 3.94772 2.50607 3.5 3.05835 3.5H5.05835C5.05835 2.11929 6.17764 1 7.55835 1H8.55835ZM8.55835 2.5H7.55835C7.00607 2.5 6.55835 2.94772 6.55835 3.5H9.55835C9.55835 2.94772 9.11063 2.5 8.55835 2.5Z" fill="currentColor"></path>
</g>
</symbol>
<symbol viewBox="0 0 16 17" fill="none" id="trigger">
<g id="Trigger">
<circle id="Ellipse 254" cx="7.99976" cy="8.49976" r="6.40679" stroke="#939393" stroke-width="1.1"></circle>
<path id="Polygon 13" d="M10.8941 8.1548C11.1608 8.30876 11.1608 8.69366 10.8941 8.84762L6.40538 11.4392C6.13871 11.5932 5.80538 11.4007 5.80538 11.0928L5.80538 8.50149L5.80538 5.90962C5.80538 5.6017 6.13871 5.40925 6.40538 5.56321L10.8941 8.1548Z" fill="currentColor"></path>
</g>
</symbol>
<symbol fill="none" viewBox="0 0 48 48" id="twilio"><path d="M15 32.846a3.846 3.846 0 1 0 0-7.692 3.846 3.846 0 0 0 0 7.692m0-10a3.846 3.846 0 1 0 0-7.692 3.846 3.846 0 0 0 0 7.692m10 10a3.846 3.846 0 1 0 0-7.692 3.846 3.846 0 0 0 0 7.692m0-10a3.846 3.846 0 1 0 0-7.692 3.846 3.846 0 0 0 0 7.692M20 4c10.833 0 20 9.167 20 20s-9.167 20-20 20S0 34.833 0 24 9.167 4 20 4m0 5.385c-8.049 0-14.615 6.339-14.615 14.347S11.95 38.615 20 38.615s14.615-6.876 14.615-14.884S28.05 9.386 20 9.38" fill="currentColor"></path></symbol>
<symbol viewBox="0 0 1200 1227" fill="none" id="twitter">
<path d="M714.163 519.284L1160.89 0H1055.03L667.137 450.887L357.328 0H0L468.492 681.821L0 1226.37H105.866L515.491 750.218L842.672 1226.37H1200L714.137 519.284H714.163ZM569.165 687.828L521.697 619.934L144.011 79.6944H306.615L611.412 515.685L658.88 583.579L1055.08 1150.3H892.476L569.165 687.854V687.828Z" fill="currentColor"></path>
</symbol>
<symbol viewBox="0 0 24 24" fill="none" stroke="currentColor" stroke-width="2" stroke-linecap="round" stroke-linejoin="round" class="lucide lucide-underline" id="underline"><path d="M6 4v6a6 6 0 0 0 12 0V4"></path><line x1="4" x2="20" y1="20" y2="20"></line></symbol>
<symbol viewBox="0 0 24 24" fill="none" stroke="currentColor" stroke-width="2" stroke-linecap="round" stroke-linejoin="round" class="lucide lucide-undo-2" id="undo"><path d="M9 14 4 9l5-5"></path><path d="M4 9h10.5a5.5 5.5 0 0 1 5.5 5.5a5.5 5.5 0 0 1-5.5 5.5H11"></path></symbol>
<symbol viewBox="0 0 24 24" fill="none" stroke="currentColor" stroke-width="2" stroke-linecap="round" stroke-linejoin="round" id="unplug"><path d="m19 5 3-3"></path><path d="m2 22 3-3"></path><path d="M6.3 20.3a2.4 2.4 0 0 0 3.4 0L12 18l-6-6-2.3 2.3a2.4 2.4 0 0 0 0 3.4Z"></path><path d="M7.5 13.5 10 11"></path><path d="M10.5 16.5 13 14"></path><path d="m12 6 6 6 2.3-2.3a2.4 2.4 0 0 0 0-3.4l-2.6-2.6a2.4 2.4 0 0 0-3.4 0Z"></path></symbol>
<symbol viewBox="0 0 20 21" fill="none" id="user">
<path fill-rule="evenodd" clip-rule="evenodd" d="M10 19.25C12.3206 19.25 14.5462 18.3281 16.1872 16.6872C17.8281 15.0462 18.75 12.8206 18.75 10.5C18.75 8.17936 17.8281 5.95376 16.1872 4.31282C14.5462 2.67187 12.3206 1.75 10 1.75C7.67936 1.75 5.45376 2.67187 3.81282 4.31282C2.17187 5.95376 1.25 8.17936 1.25 10.5C1.25 12.8206 2.17187 15.0462 3.81282 16.6872C5.45376 18.3281 7.67936 19.25 10 19.25ZM6.40125 14.0987L5.13875 15.3612C4.17723 14.3998 3.52242 13.1748 3.25712 11.8411C2.99183 10.5075 3.12796 9.12516 3.6483 7.8689C4.16864 6.61264 5.04983 5.5389 6.18042 4.78345C7.31102 4.028 8.64024 3.62478 10 3.62478C11.3598 3.62478 12.689 4.028 13.8196 4.78345C14.9502 5.5389 15.8314 6.61264 16.3517 7.8689C16.872 9.12516 17.0082 10.5075 16.7429 11.8411C16.4776 13.1748 15.8228 14.3998 14.8612 15.3612L13.5987 14.0987C13.2505 13.7504 12.8369 13.474 12.3818 13.2855C11.9267 13.0969 11.4389 12.9999 10.9462 13H9.05375C8.56112 12.9999 8.07331 13.0969 7.61818 13.2855C7.16306 13.474 6.74954 13.7504 6.40125 14.0987Z" fill="currentColor"></path>
<path d="M10 5.5C9.33696 5.5 8.70107 5.76339 8.23223 6.23223C7.76339 6.70107 7.5 7.33696 7.5 8V8.625C7.5 9.28804 7.76339 9.92393 8.23223 10.3928C8.70107 10.8616 9.33696 11.125 10 11.125C10.663 11.125 11.2989 10.8616 11.7678 10.3928C12.2366 9.92393 12.5 9.28804 12.5 8.625V8C12.5 7.33696 12.2366 6.70107 11.7678 6.23223C11.2989 5.76339 10.663 5.5 10 5.5Z" fill="currentColor"></path>
</symbol>
<symbol viewBox="0 0 12 12" fill="none" id="warning-square">
<g id="warning-square" clip-path="url(#clip0_13318_41289)">
<path id="Vector" d="M2.24999 0.75C1.85217 0.75 1.47064 0.908034 1.18934 1.18934C0.908034 1.47064 0.75 1.85217 0.75 2.24999V9.74993C0.75 10.1478 0.908034 10.5293 1.18934 10.8106C1.47064 11.0919 1.85217 11.2499 2.24999 11.2499H9.74993C10.1478 11.2499 10.5293 11.0919 10.8106 10.8106C11.0919 10.5293 11.2499 10.1478 11.2499 9.74993V2.24999C11.2499 1.85217 11.0919 1.47064 10.8106 1.18934C10.5293 0.908034 10.1478 0.75 9.74993 0.75H2.24999ZM5.20361 3.65171C5.19367 3.29474 5.48034 2.99998 5.83744 2.99998C6.19437 2.99998 6.48097 3.29446 6.47128 3.65126L6.38951 6.66521C6.38141 6.96369 6.13711 7.20145 5.83852 7.20145C5.54008 7.20145 5.29585 6.96393 5.28754 6.6656L5.20361 3.65171ZM6.5422 8.37294C6.53987 8.55879 6.465 8.73638 6.33358 8.86781C6.20215 8.99924 6.02456 9.0741 5.83871 9.07644C5.74484 9.07951 5.65131 9.06367 5.56369 9.02987C5.47606 8.99607 5.39613 8.94499 5.32864 8.87968C5.26115 8.81436 5.20748 8.73614 5.17083 8.64967C5.13418 8.5632 5.1153 8.47023 5.1153 8.37632C5.1153 8.2824 5.13418 8.18944 5.17083 8.10296C5.20748 8.01649 5.26115 7.93827 5.32864 7.87295C5.39613 7.80764 5.47606 7.75656 5.56369 7.72276C5.65131 7.68896 5.74484 7.67312 5.83871 7.6762C6.21371 7.6762 6.5392 7.98894 6.5422 8.37294Z" fill="currentColor"></path>
</g>
<defs>
<clipPath id="clip0_13318_41289">
<rect width="12" height="12" fill="currentColor"></rect>
</clipPath>
</defs>
</symbol>
<symbol viewBox="0 0 24 24" fill="none" stroke="currentColor" stroke-width="2" stroke-linecap="round" stroke-linejoin="round" class="lucide lucide-workflow" id="workflow"><rect width="8" height="8" x="3" y="3" rx="2"></rect><path d="M7 11v4a2 2 0 0 0 2 2h4"></path><rect width="8" height="8" x="13" y="13" rx="2"></rect></symbol>
<symbol viewBox="0 0 1200 1227" fill="none" id="x">
<path d="M714.163 519.284L1160.89 0H1055.03L667.137 450.887L357.328 0H0L468.492 681.821L0 1226.37H105.866L515.491 750.218L842.672 1226.37H1200L714.137 519.284H714.163ZM569.165 687.828L521.697 619.934L144.011 79.6944H306.615L611.412 515.685L658.88 583.579L1055.08 1150.3H892.476L569.165 687.854V687.828Z" fill="currentColor"></path>
</symbol>
<symbol viewBox="0 -30.5 256 256" preserveAspectRatio="xMidYMid" id="zendesk">
    <g>
        <path d="M118.249172,51.2326115 L118.249172,194.005605 L0,194.005605 L118.249172,51.2326115 Z M118.249172,2.84217094e-14 C118.249172,32.6440764 91.7686624,59.124586 59.124586,59.124586 C26.4805096,59.124586 0,32.6440764 0,2.84217094e-14 L118.249172,2.84217094e-14 Z M137.750828,194.005605 C137.750828,161.328917 164.198726,134.881019 196.875414,134.881019 C229.552102,134.881019 256,161.361529 256,194.005605 L137.750828,194.005605 Z M137.750828,142.740382 L137.750828,0 L256,0 L137.750828,142.740382 Z" fill="currentColor">

</path>
    </g>
</symbol>
<symbol viewBox="0 0 15 15" fill="none" id="zoom-in">
<path fill-rule="evenodd" clip-rule="evenodd" d="M5.72057 12.0736L3.12994 12.4437C2.63963 12.5137 2.3115 12.1771 2.38049 11.6942L2.75058 9.10359C2.81939 8.6219 3.15131 8.51456 3.49301 8.85627L4.11173 9.47499L5.21137 8.41441C5.55543 8.07035 6.10698 8.07282 6.44869 8.41453C6.79278 8.75862 6.79045 9.31021 6.44881 9.65185L5.34917 10.7124L5.96789 11.3311C6.31198 11.6752 6.19887 12.0053 5.72057 12.0736ZM9.6779 2.184L12.2685 1.81391C12.7588 1.74387 13.087 2.08047 13.018 2.56336L12.6479 5.15399C12.5791 5.63568 12.2472 5.74302 11.9055 5.40131L11.2867 4.78259L10.2265 5.79757C9.88242 6.14163 9.33088 6.13916 8.98917 5.79745C8.64508 5.45336 8.64741 4.90177 8.98905 4.56013L10.0493 3.54516L9.43058 2.92644C9.08649 2.58235 9.1996 2.25233 9.6779 2.184Z" fill="currentColor"></path>
<path fill-rule="evenodd" clip-rule="evenodd" d="M12.644 9.10682L13.0141 11.6975C13.0842 12.1878 12.7476 12.5159 12.2647 12.4469L9.67403 12.0768C9.19234 12.008 9.085 11.6761 9.42671 11.3344L10.0454 10.7157L8.98485 9.61602C8.64078 9.27196 8.64326 8.72042 8.98497 8.37871C9.32906 8.03462 9.88064 8.03694 10.2223 8.37859L11.2829 9.47822L11.9016 8.8595C12.2457 8.51541 12.5757 8.62852 12.644 9.10682ZM2.75443 5.14949L2.38434 2.55886C2.3143 2.06855 2.6509 1.74042 3.1338 1.80941L5.72442 2.1795C6.20611 2.24831 6.31345 2.58023 5.97175 2.92194L5.35303 3.54066L6.368 4.6009C6.71207 4.94497 6.70959 5.49651 6.36788 5.83822C6.02379 6.18231 5.47221 6.17998 5.13057 5.83834L4.11559 4.77809L3.49687 5.39681C3.15278 5.7409 2.82276 5.62779 2.75443 5.14949Z" fill="currentColor"></path>
</symbol>
</defs>
</svg>
