<svg width="28" height="28" viewBox="0 0 28 28" fill="none" xmlns="http://www.w3.org/2000/svg">
<g clip-path="url(#clip0_10672_110797)">
<path d="M24.7802 14.25C24.7802 13.47 24.7102 12.72 24.5802 12H14.2202V16.26H20.1402C19.8802 17.63 19.1002 18.79 17.9302 19.57V22.34H21.5002C23.5802 20.42 24.7802 17.6 24.7802 14.25Z" fill="#4285F4"/>
<path d="M14.2204 25.0001C17.1904 25.0001 19.6804 24.0201 21.5004 22.3401L17.9304 19.5701C16.9504 20.2301 15.7004 20.6301 14.2204 20.6301C11.3604 20.6301 8.93039 18.7001 8.06039 16.1001H4.40039V18.9401C6.21039 22.5301 9.92039 25.0001 14.2204 25.0001Z" fill="#34A853"/>
<path d="M8.06022 16.0903C7.84022 15.4303 7.71022 14.7303 7.71022 14.0003C7.71022 13.2703 7.84022 12.5703 8.06022 11.9103V9.07031H4.40022C3.65021 10.5503 3.22021 12.2203 3.22021 14.0003C3.22021 15.7803 3.65021 17.4503 4.40022 18.9303L7.25022 16.7103L8.06022 16.0903Z" fill="#FBBC05"/>
<path d="M14.2204 7.38C15.8404 7.38 17.2804 7.94 18.4304 9.02L21.5804 5.87C19.6704 4.09 17.1904 3 14.2204 3C9.92039 3 6.21039 5.47 4.40039 9.07L8.06039 11.91C8.93039 9.31 11.3604 7.38 14.2204 7.38Z" fill="#EA4335"/>
</g>
<defs>
<clipPath id="clip0_10672_110797">
<rect width="22" height="22" fill="white" transform="translate(3 3)"/>
</clipPath>
</defs>
</svg>
