<svg xmlns="http://www.w3.org/2000/svg" width="14" height="14" viewBox="0 0 14 14" fill="none">
<path d="M2.5863 6.85203C2.49111 6.75684 2.49111 6.60251 2.5863 6.50732L6.82373 2.26988C6.91892 2.17469 7.07341 2.17453 7.1686 2.26972L7.74723 2.84835C7.74975 2.85087 7.7522 2.85342 7.75458 2.85602L11.4135 6.51491C11.5087 6.6101 11.5087 6.76444 11.4135 6.85963L10.8348 7.43825C10.7397 7.53344 10.5853 7.53344 10.4901 7.43825L7.92638 4.87451C7.82401 4.77214 7.64898 4.84464 7.64898 4.98941L7.64898 11.9237C7.64898 12.0584 7.53985 12.1675 7.40523 12.1675L6.58692 12.1675C6.4523 12.1675 6.34317 12.0584 6.34317 11.9237L6.34317 4.98943C6.34317 4.84466 6.16814 4.77216 6.06577 4.87453L3.50964 7.43066C3.41445 7.52585 3.26011 7.52585 3.16492 7.43066L2.5863 6.85203Z" fill="#898989"/>
</svg>
