<svg width="10" height="8" viewBox="0 0 10 8" fill="none" xmlns="http://www.w3.org/2000/svg">
<path d="M5.33154 1.15132C5.5539 0.951197 5.57193 0.608706 5.3718 0.386347C5.17168 0.163987 4.82919 0.145961 4.60683 0.346085L0.995717 3.59609C0.88158 3.69881 0.816406 3.84515 0.816406 3.9987C0.816406 4.15226 0.88158 4.2986 0.995717 4.40132L4.60683 7.65132C4.82919 7.85144 5.17168 7.83342 5.3718 7.61106C5.57193 7.3887 5.5539 7.04621 5.33154 6.84609L2.76963 4.54037H8.64215C8.94131 4.54037 9.18382 4.29786 9.18382 3.9987C9.18382 3.69955 8.94131 3.45704 8.64215 3.45704H2.76963L5.33154 1.15132Z" fill="#5699A8"/>
</svg>
