<svg width="14" height="15" viewBox="0 0 14 15" fill="none" xmlns="http://www.w3.org/2000/svg">
<g id="Book">
<path id="Vector" fill-rule="evenodd" clip-rule="evenodd" d="M4.09037 3.59924L5.70985 2.51959C5.78862 2.46707 5.95951 2.44868 6.04639 2.4821L10.4247 4.16605C10.4722 4.18435 10.5403 4.28349 10.5403 4.33879V12.2012C10.5403 12.4184 10.7164 12.5945 10.9337 12.5945C11.1509 12.5945 11.327 12.4184 11.327 12.2012V4.33879C11.327 3.95805 11.0586 3.56693 10.7071 3.43175L6.32881 1.74779C6.00447 1.62305 5.56549 1.67028 5.27344 1.86497L3.24139 3.21968L2.97866 3.39483L2.98066 3.39997C2.79413 3.48419 2.67285 3.678 2.67285 3.94034V11.0594C2.67285 11.4939 3.00183 11.9677 3.40595 12.117L8.22328 13.8971C8.62816 14.0467 8.95638 13.8137 8.95638 13.3817V5.91534C8.95638 5.48105 8.61855 5.02279 8.2109 4.89463L4.09037 3.59924Z" fill="#939393"/>
</g>
</svg>
