<svg width="12" height="11" viewBox="0 0 12 11" fill="none" xmlns="http://www.w3.org/2000/svg">
<path fill-rule="evenodd" clip-rule="evenodd" d="M0.75 1.61719C0.75 0.892687 1.33975 0.304688 2.0625 0.304688H3.8125C4.537 0.304688 5.125 0.894438 5.125 1.61719V3.36719C5.125 4.09169 4.53525 4.67969 3.8125 4.67969H2.0625C1.338 4.67969 0.75 4.08994 0.75 3.36719V1.61719ZM0.75 7.74219C0.75 7.01769 1.33975 6.42969 2.0625 6.42969H3.8125C4.537 6.42969 5.125 7.01944 5.125 7.74219V9.49219C5.125 10.2167 4.53525 10.8047 3.8125 10.8047H2.0625C1.338 10.8047 0.75 10.2149 0.75 9.49219V7.74219ZM6.875 1.61719C6.875 0.892687 7.46475 0.304688 8.1875 0.304688H9.9375C10.662 0.304688 11.25 0.894438 11.25 1.61719V3.36719C11.25 4.09169 10.6602 4.67969 9.9375 4.67969H8.1875C7.463 4.67969 6.875 4.08994 6.875 3.36719V1.61719ZM6.875 7.74219C6.875 7.01769 7.46475 6.42969 8.1875 6.42969H9.9375C10.662 6.42969 11.25 7.01944 11.25 7.74219V9.49219C11.25 10.2167 10.6602 10.8047 9.9375 10.8047H8.1875C7.463 10.8047 6.875 10.2149 6.875 9.49219V7.74219Z" fill="#737373"/>
</svg>
