<svg xmlns="http://www.w3.org/2000/svg" width="14" height="14" viewBox="0 0 14 14" fill="none">
    <path
        d="M1.146 1.63383C1.146 1.36441 1.36441 1.146 1.63384 1.146H5.53659C5.80602 1.146 6.02443 1.36441 6.02443 1.63383V5.5365C6.02443 5.80592 5.80602 6.02434 5.53659 6.02434H1.63384C1.36441 6.02434 1.146 5.80592 1.146 5.5365V1.63383Z"
        fill="#737373" />
    <path
        d="M1.146 8.4635C1.146 8.19408 1.36441 7.97567 1.63384 7.97567H5.56264C5.83207 7.97567 6.05048 8.19408 6.05048 8.4635V12.3662C6.05048 12.6356 5.83207 12.854 5.56264 12.854H1.63384C1.36441 12.854 1.146 12.6356 1.146 12.3662V8.4635Z"
        fill="#737373" />
    <path
        d="M7.97581 1.63383C7.97581 1.36441 8.19422 1.146 8.46365 1.146H12.3664C12.6358 1.146 12.8542 1.36441 12.8542 1.63383V5.5365C12.8542 5.80592 12.6358 6.02434 12.3664 6.02434H8.46365C8.19422 6.02434 7.97581 5.80592 7.97581 5.5365V1.63383Z"
        fill="#737373" />
    <path fill-rule="evenodd" clip-rule="evenodd"
        d="M8.80908 8.86353V11.9797H11.9793V8.86353H8.80908ZM8.45908 7.98853C8.16913 7.98853 7.93408 8.22358 7.93408 8.51353V12.3297C7.93408 12.6197 8.16913 12.8547 8.45908 12.8547H12.3293C12.6193 12.8547 12.8543 12.6197 12.8543 12.3297V8.51353C12.8543 8.22358 12.6193 7.98853 12.3293 7.98853H8.45908Z"
        fill="#737373" />
</svg>