<svg width="86" height="85" viewBox="0 0 86 85" fill="none" xmlns="http://www.w3.org/2000/svg">
  <g filter="url(#filter0_d_12459_11835)">
    <mask id="path-1-inside-1_12459_11835" fill="white">
      <path fill-rule="evenodd" clip-rule="evenodd" d="M67.8504 55.8396C65.0091 60.6028 60.7267 64.4066 55.605 66.6495C43.1192 64.8787 33.6065 54.5565 33.6065 42.1827C33.6065 29.8087 43.1193 19.4864 55.6054 17.7158C60.7269 19.9586 65.0091 23.7623 67.8503 28.5253C50.361 30.0242 37.3787 35.5701 37.3787 42.1825C37.3787 48.7948 50.361 54.3408 67.8504 55.8396ZM30.3435 19.8033V64.5619C23.038 59.7983 18.209 51.5544 18.209 42.1826C18.209 32.8107 23.038 24.5668 30.3435 19.8033Z"/>
    </mask>
    <path fill-rule="evenodd" clip-rule="evenodd" d="M67.8504 55.8396C65.0091 60.6028 60.7267 64.4066 55.605 66.6495C43.1192 64.8787 33.6065 54.5565 33.6065 42.1827C33.6065 29.8087 43.1193 19.4864 55.6054 17.7158C60.7269 19.9586 65.0091 23.7623 67.8503 28.5253C50.361 30.0242 37.3787 35.5701 37.3787 42.1825C37.3787 48.7948 50.361 54.3408 67.8504 55.8396ZM30.3435 19.8033V64.5619C23.038 59.7983 18.209 51.5544 18.209 42.1826C18.209 32.8107 23.038 24.5668 30.3435 19.8033Z" fill="url(#paint0_linear_12459_11835)"/>
    <path fill-rule="evenodd" clip-rule="evenodd" d="M67.8504 55.8396C65.0091 60.6028 60.7267 64.4066 55.605 66.6495C43.1192 64.8787 33.6065 54.5565 33.6065 42.1827C33.6065 29.8087 43.1193 19.4864 55.6054 17.7158C60.7269 19.9586 65.0091 23.7623 67.8503 28.5253C50.361 30.0242 37.3787 35.5701 37.3787 42.1825C37.3787 48.7948 50.361 54.3408 67.8504 55.8396ZM30.3435 19.8033V64.5619C23.038 59.7983 18.209 51.5544 18.209 42.1826C18.209 32.8107 23.038 24.5668 30.3435 19.8033Z" fill="url(#paint1_linear_12459_11835)" fill-opacity="0.8"/>
    <path d="M67.8504 55.8396L68.2285 56.0652L68.589 55.461L67.888 55.4009L67.8504 55.8396ZM55.605 66.6495L55.5432 67.0854L55.6671 67.103L55.7817 67.0528L55.605 66.6495ZM55.6054 17.7158L55.782 17.3125L55.6674 17.2623L55.5435 17.2798L55.6054 17.7158ZM67.8503 28.5253L67.8879 28.964L68.5889 28.904L68.2284 28.2997L67.8503 28.5253ZM30.3435 19.8033H30.7839V18.9905L30.103 19.4344L30.3435 19.8033ZM30.3435 64.5619L30.103 64.9307L30.7839 65.3747V64.5619H30.3435ZM67.4722 55.6141C64.6776 60.299 60.4654 64.0404 55.4284 66.2461L55.7817 67.0528C60.9881 64.7729 65.3406 60.9066 68.2285 56.0652L67.4722 55.6141ZM33.1661 42.1827C33.1661 54.792 42.8566 65.2863 55.5432 67.0854L55.6669 66.2135C43.3817 64.4712 34.0468 54.3211 34.0468 42.1827H33.1661ZM55.5435 17.2798C42.8568 19.0789 33.1661 29.5732 33.1661 42.1827H34.0468C34.0468 30.0441 43.3819 19.8939 55.6672 18.1518L55.5435 17.2798ZM55.4287 18.1192C60.4655 20.3249 64.6775 24.0661 67.4721 28.7509L68.2284 28.2997C65.3406 23.4586 60.9882 19.5924 55.782 17.3125L55.4287 18.1192ZM37.819 42.1825C37.819 40.6843 38.5525 39.2039 39.99 37.7829C41.4289 36.3605 43.5462 35.0269 46.234 33.8391C51.6074 31.4645 59.1739 29.7108 67.8879 28.964L67.8127 28.0866C59.0374 28.8386 51.3681 30.6074 45.878 33.0336C43.134 34.2462 40.9127 35.6325 39.3709 37.1566C37.8277 38.682 36.9384 40.3745 36.9384 42.1825H37.819ZM67.888 55.4009C59.174 54.6541 51.6074 52.9005 46.234 50.5259C43.5463 49.3381 41.429 48.0044 39.99 46.5821C38.5525 45.1611 37.819 43.6806 37.819 42.1825H36.9384C36.9384 43.9905 37.8277 45.6829 39.3709 47.2084C40.9127 48.7324 43.134 50.1188 45.878 51.3314C51.3681 53.7576 59.0374 55.5263 67.8128 56.2784L67.888 55.4009ZM29.9032 19.8033V64.5619H30.7839V19.8033H29.9032ZM30.5841 64.193C23.3979 59.5073 18.6493 51.3994 18.6493 42.1826H17.7686C17.7686 51.7094 22.6781 60.0894 30.103 64.9307L30.5841 64.193ZM18.6493 42.1826C18.6493 32.9658 23.3979 24.8578 30.5841 20.1721L30.103 19.4344C22.6781 24.2758 17.7686 32.6557 17.7686 42.1826H18.6493Z" fill="url(#paint2_linear_12459_11835)" mask="url(#path-1-inside-1_12459_11835)"/>
  </g>
  <g opacity="0.4" filter="url(#filter1_f_12459_11835)">
    <path fill-rule="evenodd" clip-rule="evenodd" d="M67.8504 55.8396C65.0091 60.6028 60.7267 64.4066 55.605 66.6495C43.1192 64.8787 33.6065 54.5565 33.6065 42.1827C33.6065 29.8087 43.1193 19.4864 55.6054 17.7158C60.7269 19.9586 65.0091 23.7623 67.8503 28.5253C50.361 30.0242 37.3787 35.5701 37.3787 42.1825C37.3787 48.7948 50.361 54.3408 67.8504 55.8396ZM30.3435 19.8033V64.5619C23.038 59.7983 18.209 51.5544 18.209 42.1826C18.209 32.8107 23.038 24.5668 30.3435 19.8033Z" fill="url(#paint3_linear_12459_11835)"/>
  </g>
  <defs>
    <filter id="filter0_d_12459_11835" x="0.595499" y="0.102335" width="84.8683" height="84.1606" filterUnits="userSpaceOnUse" color-interpolation-filters="sRGB">
      <feFlood flood-opacity="0" result="BackgroundImageFix"/>
      <feColorMatrix in="SourceAlpha" type="matrix" values="0 0 0 0 0 0 0 0 0 0 0 0 0 0 0 0 0 0 127 0" result="hardAlpha"/>
      <feOffset/>
      <feGaussianBlur stdDeviation="8.80674"/>
      <feComposite in2="hardAlpha" operator="out"/>
      <feColorMatrix type="matrix" values="0 0 0 0 0 0 0 0 0 0 0 0 0 0 0 0 0 0 0.25 0"/>
      <feBlend mode="normal" in2="BackgroundImageFix" result="effect1_dropShadow_12459_11835"/>
      <feBlend mode="normal" in="SourceGraphic" in2="effect1_dropShadow_12459_11835" result="shape"/>
    </filter>
    <filter id="filter1_f_12459_11835" x="12.0443" y="11.5511" width="61.9708" height="61.263" filterUnits="userSpaceOnUse" color-interpolation-filters="sRGB">
      <feFlood flood-opacity="0" result="BackgroundImageFix"/>
      <feBlend mode="normal" in="SourceGraphic" in2="BackgroundImageFix" result="shape"/>
      <feGaussianBlur stdDeviation="3.08236" result="effect1_foregroundBlur_12459_11835"/>
    </filter>
    <linearGradient id="paint0_linear_12459_11835" x1="14.3614" y1="-3.20419" x2="73.0692" y2="2.5497" gradientUnits="userSpaceOnUse">
      <stop stop-color="#D5D5D5"/>
      <stop offset="1" stop-color="#C9C9C9"/>
    </linearGradient>
    <linearGradient id="paint1_linear_12459_11835" x1="26.0995" y1="63.18" x2="8.2088" y2="28.3271" gradientUnits="userSpaceOnUse">
      <stop stop-color="white" stop-opacity="0"/>
      <stop offset="1" stop-color="white"/>
    </linearGradient>
    <linearGradient id="paint2_linear_12459_11835" x1="47.5691" y1="29.2405" x2="64.6414" y2="59.2371" gradientUnits="userSpaceOnUse">
      <stop stop-color="white"/>
      <stop offset="1" stop-color="#E2E2E2" stop-opacity="0"/>
    </linearGradient>
    <linearGradient id="paint3_linear_12459_11835" x1="23.5342" y1="21.5928" x2="32.9817" y2="45.7282" gradientUnits="userSpaceOnUse">
      <stop stop-color="#D9D9D9"/>
      <stop offset="1" stop-color="white" stop-opacity="0"/>
    </linearGradient>
  </defs>
</svg>
