<svg width="16" height="16" viewBox="0 0 16 16" fill="none" xmlns="http://www.w3.org/2000/svg">
<g id="If / else">
<path id="Union" fill-rule="evenodd" clip-rule="evenodd" d="M8.5453 2.80313C8.5453 2.47175 8.27667 2.20312 7.9453 2.20312C7.61393 2.20312 7.3453 2.47175 7.3453 2.80313V5.50506L6.01353 6.17377C4.77462 6.79585 3.9926 8.06359 3.9926 9.44991V11.8366L3.17035 10.8554C2.95751 10.6015 2.57907 10.5681 2.3251 10.781C2.07112 10.9938 2.03778 11.3722 2.25062 11.6262L4.12254 13.8599C4.23359 13.9924 4.39641 14.0706 4.56926 14.0744C4.74212 14.0781 4.9082 14.0072 5.02495 13.8797L7.06989 11.646C7.29365 11.4016 7.27691 11.0221 7.0325 10.7983C6.78809 10.5745 6.40856 10.5913 6.1848 10.8357L5.1926 11.9194V9.44991C5.1926 8.51738 5.71863 7.66463 6.552 7.24618L7.9453 6.54657L9.33863 7.24618C10.172 7.66463 10.698 8.51739 10.698 9.44992V11.8408L9.87224 10.8554C9.65939 10.6015 9.28096 10.5681 9.02698 10.781C8.77301 10.9938 8.73966 11.3722 8.95251 11.6262L10.8244 13.8599C10.9355 13.9924 11.0983 14.0706 11.2711 14.0744C11.444 14.0781 11.6101 14.0072 11.7268 13.8797L13.7718 11.646C13.9955 11.4016 13.9788 11.0221 13.7344 10.7983C13.49 10.5745 13.1104 10.5913 12.8867 10.8357L11.898 11.9156V9.44992C11.898 8.06359 11.116 6.79585 9.8771 6.17378L8.5453 5.50506V2.80313Z" fill="white"/>
</g>
</svg>
