<svg width="16" height="16" viewBox="0 0 16 16" fill="none" xmlns="http://www.w3.org/2000/svg">
<path d="M7.99998 2C8.33749 2 8.61642 2.3564 8.6606 2.81882L8.66665 2.94737V13.0526C8.66665 13.5758 8.36816 14 7.99998 14C7.66247 14 7.38353 13.6435 7.33936 13.1812L7.33331 13.0526V2.94737C7.33331 2.42416 7.6318 2 7.99998 2Z" fill="white" fill-opacity="0.784314"/>
<path d="M13.0526 7.33331C13.5758 7.33331 14 7.6318 14 7.99998C14 8.33749 13.6435 8.61642 13.1812 8.6606L13.0526 8.66665H2.94737C2.42416 8.66665 2 8.36816 2 7.99998C2 7.66247 2.3564 7.38353 2.81882 7.33936L2.94737 7.33331H13.0526Z" fill="white" fill-opacity="0.784314"/>
</svg>
