<svg width="16" height="17" viewBox="0 0 16 17" fill="none" xmlns="http://www.w3.org/2000/svg" stroke-width="1.5">
<g id="Views">
<path id="Vector" fill-rule="evenodd" clip-rule="evenodd" d="M12.6541 11.2952L14.7544 12.1213C14.8576 12.1618 14.9394 12.2434 14.9801 12.3466C15.0511 12.5264 14.9828 12.7268 14.827 12.8284L14.755 12.8656L8.35645 15.3924C8.15935 15.4703 7.94372 15.4831 7.74052 15.4309L7.62035 15.3918L1.25259 12.8653C1.1499 12.8246 1.06864 12.7432 1.02806 12.6404C0.95707 12.4607 1.02536 12.2603 1.1812 12.1587L1.25319 12.1215L3.34307 11.2962L7.06917 12.7751C7.65895 13.0091 8.31525 13.0097 8.9054 12.7766L12.6541 11.2952ZM12.6541 7.27688L14.7544 8.10289C14.8576 8.14346 14.9394 8.22508 14.9801 8.32824C15.0511 8.50803 14.9828 8.70839 14.827 8.81004L14.755 8.8472L10.6001 10.4882L9.619 10.875L8.35645 11.3741L8.317 11.386L8.23566 11.4132C8.20301 11.4215 8.17004 11.4282 8.13688 11.4331C8.12585 11.4346 8.11547 11.436 8.10507 11.4372C8.02541 11.4468 7.94422 11.4464 7.86397 11.4363L7.74052 11.4126L7.62035 11.3735L6.391 10.885L5.38907 10.4882L1.25259 8.84697C1.1499 8.80623 1.06864 8.72483 1.02806 8.62208C0.95707 8.44229 1.02536 8.24192 1.1812 8.14029L1.25319 8.10312L3.34307 7.27788L7.06917 8.75677C7.65895 8.99078 8.31525 8.9913 8.9054 8.75824L12.6541 7.27688ZM7.62186 1.56989C7.85734 1.47691 8.11932 1.4767 8.35494 1.56931L14.7544 4.08452C14.8576 4.12509 14.9394 4.20671 14.9801 4.30987C15.0612 4.51534 14.9605 4.74769 14.755 4.82884L10.6001 6.46988L8.35565 7.356L8.27468 7.38396C8.25405 7.3901 8.23326 7.39557 8.21236 7.40036C8.09824 7.42674 7.98013 7.43258 7.86397 7.41788L7.74052 7.39419L7.62035 7.3551L1.25259 4.8286C1.1499 4.78786 1.06864 4.70646 1.02806 4.60371C0.946927 4.39823 1.04772 4.16589 1.25319 4.08475L7.62186 1.56989Z" fill="#818182"/>
</g>
</svg>
