<svg xmlns="http://www.w3.org/2000/svg" width="16" height="16" viewBox="0 0 16 16" fill="none">
  <path fill-rule="evenodd" clip-rule="evenodd" d="M8.45809 2.68289C8.45809 2.39095 8.22143 2.1543 7.9295 2.1543C7.63757 2.1543 7.40091 2.39095 7.40091 2.68289V5.27144L6.00043 5.97464C4.90897 6.52268 4.22003 7.63954 4.22003 8.86086V9.67385H2.64793C2.42413 9.67385 2.28998 9.92254 2.41289 10.1096L4.59996 13.4375C4.71267 13.609 4.96519 13.6059 5.07371 13.4317L7.14697 10.1038C7.26368 9.91648 7.12897 9.67385 6.90825 9.67385H5.27721V8.86086C5.27721 8.03932 5.74063 7.28806 6.47482 6.91941L7.9295 6.18899L9.38421 6.91941C10.1184 7.28806 10.5818 8.03933 10.5818 8.86087V10.9695H9.60366C9.24122 10.9695 8.94741 11.2633 8.94741 11.6258C8.94741 11.9882 9.24122 12.282 9.60366 12.282H11.0368H12.7558C13.1183 12.282 13.4121 11.9882 13.4121 11.6258C13.4121 11.2633 13.1183 10.9695 12.7558 10.9695H11.639V8.86087C11.639 7.63954 10.9501 6.52268 9.85859 5.97464L8.45809 5.27144V2.68289Z" fill="#939393"/>
</svg>