<svg xmlns="http://www.w3.org/2000/svg" width="15" height="15" viewBox="0 0 15 15" fill="none">
  <path d="M13.4349 12.6027L10.0413 9.20825C10.7819 8.23427 11.1252 7.01521 11.0015 5.7977C10.8778 4.5802 10.2963 3.45516 9.37477 2.65019C8.45326 1.84523 7.26046 1.42042 6.03769 1.46174C4.81493 1.50306 3.65351 2.0074 2.78839 2.87274C1.92327 3.73808 1.41905 4.8998 1.37775 6.12288C1.33645 7.34596 1.76114 8.53906 2.5659 9.46086C3.37066 10.3826 4.49541 10.9642 5.7126 11.0879C6.92979 11.2117 8.14853 10.8684 9.12226 10.1274L12.5158 13.5219C12.6388 13.6419 12.8037 13.709 12.9754 13.709C13.1471 13.709 13.3119 13.6419 13.4349 13.5219C13.5566 13.4 13.625 13.2347 13.625 13.0624C13.625 12.89 13.5566 12.7247 13.4349 12.6027ZM2.70978 6.30195C2.70978 5.60786 2.91555 4.92935 3.30106 4.35223C3.68659 3.77512 4.23454 3.3253 4.87563 3.05969C5.51672 2.79407 6.22217 2.72457 6.90275 2.85998C7.58332 2.9954 8.20848 3.32963 8.69915 3.82043C9.18982 4.31123 9.52396 4.93654 9.65932 5.6173C9.79469 6.29806 9.72521 7.00367 9.45973 7.64494C9.19415 8.2862 8.74446 8.83429 8.16749 9.21991C7.59052 9.6055 6.91219 9.81138 6.21827 9.81138C5.2881 9.81025 4.39634 9.44012 3.73861 8.78225C3.08088 8.12435 2.71088 7.23236 2.70978 6.30195Z" fill="#707070"/>
</svg>