<svg width="20" height="21" viewBox="0 0 20 21" fill="none" xmlns="http://www.w3.org/2000/svg">
<path fill-rule="evenodd" clip-rule="evenodd" d="M10 19.25C12.3206 19.25 14.5462 18.3281 16.1872 16.6872C17.8281 15.0462 18.75 12.8206 18.75 10.5C18.75 8.17936 17.8281 5.95376 16.1872 4.31282C14.5462 2.67187 12.3206 1.75 10 1.75C7.67936 1.75 5.45376 2.67187 3.81282 4.31282C2.17187 5.95376 1.25 8.17936 1.25 10.5C1.25 12.8206 2.17187 15.0462 3.81282 16.6872C5.45376 18.3281 7.67936 19.25 10 19.25ZM6.40125 14.0987L5.13875 15.3612C4.17723 14.3998 3.52242 13.1748 3.25712 11.8411C2.99183 10.5075 3.12796 9.12516 3.6483 7.8689C4.16864 6.61264 5.04983 5.5389 6.18042 4.78345C7.31102 4.028 8.64024 3.62478 10 3.62478C11.3598 3.62478 12.689 4.028 13.8196 4.78345C14.9502 5.5389 15.8314 6.61264 16.3517 7.8689C16.872 9.12516 17.0082 10.5075 16.7429 11.8411C16.4776 13.1748 15.8228 14.3998 14.8612 15.3612L13.5987 14.0987C13.2505 13.7504 12.8369 13.474 12.3818 13.2855C11.9267 13.0969 11.4389 12.9999 10.9462 13H9.05375C8.56112 12.9999 8.07331 13.0969 7.61818 13.2855C7.16306 13.474 6.74954 13.7504 6.40125 14.0987Z" fill="#939393"/>
<path d="M10 5.5C9.33696 5.5 8.70107 5.76339 8.23223 6.23223C7.76339 6.70107 7.5 7.33696 7.5 8V8.625C7.5 9.28804 7.76339 9.92393 8.23223 10.3928C8.70107 10.8616 9.33696 11.125 10 11.125C10.663 11.125 11.2989 10.8616 11.7678 10.3928C12.2366 9.92393 12.5 9.28804 12.5 8.625V8C12.5 7.33696 12.2366 6.70107 11.7678 6.23223C11.2989 5.76339 10.663 5.5 10 5.5Z" fill="#939393"/>
</svg>
