<svg width="12" height="12" viewBox="0 0 12 12" fill="none" xmlns="http://www.w3.org/2000/svg">
<g id="warning-square" clip-path="url(#clip0_13318_41289)">
<path id="Vector" d="M2.24999 0.75C1.85217 0.75 1.47064 0.908034 1.18934 1.18934C0.908034 1.47064 0.75 1.85217 0.75 2.24999V9.74993C0.75 10.1478 0.908034 10.5293 1.18934 10.8106C1.47064 11.0919 1.85217 11.2499 2.24999 11.2499H9.74993C10.1478 11.2499 10.5293 11.0919 10.8106 10.8106C11.0919 10.5293 11.2499 10.1478 11.2499 9.74993V2.24999C11.2499 1.85217 11.0919 1.47064 10.8106 1.18934C10.5293 0.908034 10.1478 0.75 9.74993 0.75H2.24999ZM5.20361 3.65171C5.19367 3.29474 5.48034 2.99998 5.83744 2.99998C6.19437 2.99998 6.48097 3.29446 6.47128 3.65126L6.38951 6.66521C6.38141 6.96369 6.13711 7.20145 5.83852 7.20145C5.54008 7.20145 5.29585 6.96393 5.28754 6.6656L5.20361 3.65171ZM6.5422 8.37294C6.53987 8.55879 6.465 8.73638 6.33358 8.86781C6.20215 8.99924 6.02456 9.0741 5.83871 9.07644C5.74484 9.07951 5.65131 9.06367 5.56369 9.02987C5.47606 8.99607 5.39613 8.94499 5.32864 8.87968C5.26115 8.81436 5.20748 8.73614 5.17083 8.64967C5.13418 8.5632 5.1153 8.47023 5.1153 8.37632C5.1153 8.2824 5.13418 8.18944 5.17083 8.10296C5.20748 8.01649 5.26115 7.93827 5.32864 7.87295C5.39613 7.80764 5.47606 7.75656 5.56369 7.72276C5.65131 7.68896 5.74484 7.67312 5.83871 7.6762C6.21371 7.6762 6.5392 7.98894 6.5422 8.37294Z" fill="#F09A56"/>
</g>
<defs>
<clipPath id="clip0_13318_41289">
<rect width="12" height="12" fill="white"/>
</clipPath>
</defs>
</svg>
