<svg xmlns="http://www.w3.org/2000/svg" width="17" height="16" viewBox="0 0 17 16" fill="none" stroke-width="1.5">
  <path fill-rule="evenodd" clip-rule="evenodd" d="M5.75 1.175C5.75 0.733172 6.10817 0.375 6.55 0.375H10.45C10.8918 0.375 11.25 0.733172 11.25 1.175V3.825C11.25 4.26683 10.8918 4.625 10.45 4.625H9.5V7.21327L10.3333 9.49545C10.2127 9.46475 10.0858 9.43383 9.95314 9.40184L9.87392 9.38278C9.48161 9.28848 9.01569 9.17649 8.64674 9.03006C8.60037 9.01166 8.55108 8.99106 8.5 8.96789C8.44892 8.99106 8.39963 9.01166 8.35326 9.03006C7.98431 9.17649 7.51839 9.28848 7.12608 9.38278L7.04686 9.40184C6.91416 9.43383 6.78728 9.46475 6.66666 9.49545L7.5 7.21327V4.625H6.55C6.10817 4.625 5.75 4.26683 5.75 3.825V1.175ZM6.66666 9.49545C6.66666 9.49545 6.66667 9.49545 6.66666 9.49545L5.98035 11.375H6.45C6.89183 11.375 7.25 11.7332 7.25 12.175V14.825C7.25 15.2668 6.89183 15.625 6.45 15.625H2.55C2.10817 15.625 1.75 15.2668 1.75 14.825V12.175C1.75 11.7332 2.10817 11.375 2.55 11.375H3.33888C3.3705 11.0068 3.41405 10.6204 3.47454 10.2575C3.54791 9.81729 3.66031 9.31832 3.85557 8.92779C4.16007 8.3188 4.77901 8.02135 5.18092 7.86331C5.63169 7.68606 6.15413 7.55975 6.57814 7.45754C6.97303 7.36234 7.27621 7.28898 7.5 7.21327L6.66666 9.49545ZM5.98035 11.375L6.66666 9.49545C6.37734 9.5691 6.12401 9.64153 5.91283 9.72458C5.73044 9.7963 5.65054 9.84958 5.62363 9.86839C5.57156 9.9949 5.50642 10.2317 5.44733 10.5863C5.40635 10.8322 5.3734 11.1014 5.34711 11.375H5.98035ZM10.3333 9.49545L9.5 7.21327C9.72379 7.28898 10.027 7.36234 10.4219 7.45754C10.8459 7.55975 11.3683 7.68606 11.8191 7.86331C12.221 8.02135 12.8399 8.3188 13.1444 8.92779C13.3397 9.31832 13.4521 9.81729 13.5255 10.2575C13.5859 10.6204 13.6295 11.0068 13.6611 11.375H14.45C14.8918 11.375 15.25 11.7332 15.25 12.175V14.825C15.25 15.2668 14.8918 15.625 14.45 15.625H10.55C10.1082 15.625 9.75 15.2668 9.75 14.825V12.175C9.75 11.7332 10.1082 11.375 10.55 11.375H11.0197L10.3333 9.49545ZM10.3333 9.49545L11.0197 11.375H11.6529C11.6266 11.1014 11.5937 10.8322 11.5527 10.5863C11.4936 10.2317 11.4284 9.9949 11.3764 9.86839C11.3495 9.84958 11.2696 9.7963 11.0872 9.72458C10.876 9.64153 10.6227 9.5691 10.3333 9.49545Z" fill="#707070"/>
</svg>