<?xml version="1.0" encoding="utf-8"?>
<!-- This file is generated automatically by pnpm run build:icons -->
<svg xmlns="http://www.w3.org/2000/svg" xmlns:xlink="http://www.w3.org/1999/xlink" width="0" height="0">
<defs>
<symbol viewBox="0 0 10 6" fill="none" id="chevron-down">
<g id="chevron-down" clip-path="url(#clip0_3668_3293)">
<path id="Vector" d="M1.97334 1.05705C1.84728 0.93699 1.67928 0.870974 1.50521 0.873097C1.33114 0.875219 1.1648 0.945311 1.0417 1.06841C0.918609 1.1915 0.848516 1.35784 0.846394 1.53191C0.844271 1.70598 0.910287 1.87399 1.03034 2.00005L3.89234 4.86205C3.97983 4.94964 4.08373 5.01913 4.19809 5.06654C4.31246 5.11396 4.43504 5.13836 4.55885 5.13836C4.68265 5.13836 4.80523 5.11396 4.9196 5.06654C5.03396 5.01913 5.13786 4.94964 5.22534 4.86205L8.08635 2.00005C8.2064 1.87399 8.27242 1.70598 8.2703 1.53191C8.26817 1.35784 8.19808 1.1915 8.07499 1.06841C7.95189 0.945311 7.78555 0.875219 7.61148 0.873097C7.43741 0.870974 7.26941 0.93699 7.14335 1.05705L4.55835 3.64005L1.97334 1.05705Z" fill="currentColor"></path>
</g>
<defs>
<clipPath id="clip0_3668_3293">
<rect width="9" height="5" fill="currentColor" transform="translate(0.0583496 0.5)"></rect>
</clipPath>
</defs>
</symbol>
<symbol viewBox="0 0 17 17" fill="none" id="dot-menu-sleep">
<path d="M3.32617 6.73145C3.724 6.73145 4.10553 6.88948 4.38683 7.17078C4.66814 7.45209 4.82617 7.83362 4.82617 8.23145C4.82617 8.62927 4.66814 9.0108 4.38683 9.29211C4.10553 9.57341 3.724 9.73145 3.32617 9.73145C2.92835 9.73145 2.54682 9.57341 2.26551 9.29211C1.98421 9.0108 1.82617 8.62927 1.82617 8.23145C1.82617 7.83362 1.98421 7.45209 2.26551 7.17078C2.54682 6.88948 2.92835 6.73145 3.32617 6.73145ZM8.32617 6.73145C8.724 6.73145 9.10553 6.88948 9.38683 7.17078C9.66814 7.45209 9.82617 7.83362 9.82617 8.23145C9.82617 8.62927 9.66814 9.0108 9.38683 9.29211C9.10553 9.57341 8.724 9.73145 8.32617 9.73145C7.92835 9.73145 7.54682 9.57341 7.26551 9.29211C6.98421 9.0108 6.82617 8.62927 6.82617 8.23145C6.82617 7.83362 6.98421 7.45209 7.26551 7.17078C7.54682 6.88948 7.92835 6.73145 8.32617 6.73145ZM13.3262 6.73145C13.724 6.73145 14.1055 6.88948 14.3868 7.17078C14.6681 7.45209 14.8262 7.83362 14.8262 8.23145C14.8262 8.62927 14.6681 9.0108 14.3868 9.29211C14.1055 9.57341 13.724 9.73145 13.3262 9.73145C12.9283 9.73145 12.5468 9.57341 12.2655 9.29211C11.9842 9.0108 11.8262 8.62927 11.8262 8.23145C11.8262 7.83362 11.9842 7.45209 12.2655 7.17078C12.5468 6.88948 12.9283 6.73145 13.3262 6.73145Z" fill="currentColor"></path>
</symbol>
<symbol viewBox="0 0 14 14" fill="none" id="four-boxes">
  <path fill-rule="evenodd" clip-rule="evenodd" d="M2.28589 3.46373C2.28589 2.81316 2.81546 2.28516 3.46446 2.28516H5.03589C5.68646 2.28516 6.21446 2.81473 6.21446 3.46373V5.03516C6.21446 5.68573 5.68489 6.21373 5.03589 6.21373H3.46446C2.81389 6.21373 2.28589 5.68416 2.28589 5.03516V3.46373ZM2.28589 8.96373C2.28589 8.31316 2.81546 7.78516 3.46446 7.78516H5.03589C5.68646 7.78516 6.21446 8.31473 6.21446 8.96373V10.5352C6.21446 11.1857 5.68489 11.7137 5.03589 11.7137H3.46446C2.81389 11.7137 2.28589 11.1842 2.28589 10.5352V8.96373ZM7.78589 3.46373C7.78589 2.81316 8.31546 2.28516 8.96446 2.28516H10.5359C11.1865 2.28516 11.7145 2.81473 11.7145 3.46373V5.03516C11.7145 5.68573 11.1849 6.21373 10.5359 6.21373H8.96446C8.31389 6.21373 7.78589 5.68416 7.78589 5.03516V3.46373ZM7.78589 8.96373C7.78589 8.31316 8.31546 7.78516 8.96446 7.78516H10.5359C11.1865 7.78516 11.7145 8.31473 11.7145 8.96373V10.5352C11.7145 11.1857 11.1849 11.7137 10.5359 11.7137H8.96446C8.31389 11.7137 7.78589 11.1842 7.78589 10.5352V8.96373Z" fill="currentColor"></path>
</symbol>
<symbol viewBox="0 0 15 14" fill="none" id="google">
<g clip-path="url(#clip0_12063_134302)">
<path d="M13.5018 7.13949C13.5018 6.70522 13.4628 6.28765 13.3904 5.88678H7.62241V8.25858H10.9184C10.7737 9.02134 10.3394 9.66718 9.68799 10.1015V11.6437H11.6756C12.8337 10.5747 13.5018 9.00464 13.5018 7.13949Z" fill="currentColor"></path>
<path d="M7.6222 13.1247C9.27578 13.1247 10.6623 12.579 11.6756 11.6437L9.68799 10.1015C9.14236 10.4689 8.4462 10.6917 7.6222 10.6917C6.02986 10.6917 4.67694 9.61716 4.19256 8.16959H2.15482V9.75078C3.16255 11.7496 5.22813 13.1247 7.6222 13.1247Z" fill="currentColor"></path>
<path d="M4.19277 8.16397C4.07028 7.79651 3.9979 7.40677 3.9979 7.00034C3.9979 6.5939 4.07028 6.20417 4.19277 5.83671V4.25551H2.15502C1.73745 5.07952 1.49805 6.00931 1.49805 7.00034C1.49805 7.99137 1.73745 8.92116 2.15502 9.74517L3.74179 8.50916L4.19277 8.16397Z" fill="currentColor"></path>
<path d="M7.6222 3.31458C8.52415 3.31458 9.32588 3.62637 9.96616 4.22767L11.72 2.47388C10.6565 1.48284 9.27577 0.875977 7.6222 0.875977C5.22813 0.875977 3.16276 2.25118 2.15502 4.25551L4.19277 5.83671C4.67715 4.38914 6.02986 3.31458 7.6222 3.31458Z" fill="currentColor"></path>
</g>
<defs>
<clipPath id="clip0_12063_134302">
<rect width="12.2487" height="12.2487" fill="currentColor" transform="translate(1.37585 0.875977)"></rect>
</clipPath>
</defs>
</symbol>
<symbol viewBox="0 0 86 85" fill="none" id="logo">
  <g filter="url(#filter0_d_12459_11835)">
    <mask id="path-1-inside-1_12459_11835" fill="white">
      <path fill-rule="evenodd" clip-rule="evenodd" d="M67.8504 55.8396C65.0091 60.6028 60.7267 64.4066 55.605 66.6495C43.1192 64.8787 33.6065 54.5565 33.6065 42.1827C33.6065 29.8087 43.1193 19.4864 55.6054 17.7158C60.7269 19.9586 65.0091 23.7623 67.8503 28.5253C50.361 30.0242 37.3787 35.5701 37.3787 42.1825C37.3787 48.7948 50.361 54.3408 67.8504 55.8396ZM30.3435 19.8033V64.5619C23.038 59.7983 18.209 51.5544 18.209 42.1826C18.209 32.8107 23.038 24.5668 30.3435 19.8033Z"></path>
    </mask>
    <path fill-rule="evenodd" clip-rule="evenodd" d="M67.8504 55.8396C65.0091 60.6028 60.7267 64.4066 55.605 66.6495C43.1192 64.8787 33.6065 54.5565 33.6065 42.1827C33.6065 29.8087 43.1193 19.4864 55.6054 17.7158C60.7269 19.9586 65.0091 23.7623 67.8503 28.5253C50.361 30.0242 37.3787 35.5701 37.3787 42.1825C37.3787 48.7948 50.361 54.3408 67.8504 55.8396ZM30.3435 19.8033V64.5619C23.038 59.7983 18.209 51.5544 18.209 42.1826C18.209 32.8107 23.038 24.5668 30.3435 19.8033Z" fill="currentColor"></path>
    <path fill-rule="evenodd" clip-rule="evenodd" d="M67.8504 55.8396C65.0091 60.6028 60.7267 64.4066 55.605 66.6495C43.1192 64.8787 33.6065 54.5565 33.6065 42.1827C33.6065 29.8087 43.1193 19.4864 55.6054 17.7158C60.7269 19.9586 65.0091 23.7623 67.8503 28.5253C50.361 30.0242 37.3787 35.5701 37.3787 42.1825C37.3787 48.7948 50.361 54.3408 67.8504 55.8396ZM30.3435 19.8033V64.5619C23.038 59.7983 18.209 51.5544 18.209 42.1826C18.209 32.8107 23.038 24.5668 30.3435 19.8033Z" fill="currentColor" fill-opacity="0.8"></path>
    <path d="M67.8504 55.8396L68.2285 56.0652L68.589 55.461L67.888 55.4009L67.8504 55.8396ZM55.605 66.6495L55.5432 67.0854L55.6671 67.103L55.7817 67.0528L55.605 66.6495ZM55.6054 17.7158L55.782 17.3125L55.6674 17.2623L55.5435 17.2798L55.6054 17.7158ZM67.8503 28.5253L67.8879 28.964L68.5889 28.904L68.2284 28.2997L67.8503 28.5253ZM30.3435 19.8033H30.7839V18.9905L30.103 19.4344L30.3435 19.8033ZM30.3435 64.5619L30.103 64.9307L30.7839 65.3747V64.5619H30.3435ZM67.4722 55.6141C64.6776 60.299 60.4654 64.0404 55.4284 66.2461L55.7817 67.0528C60.9881 64.7729 65.3406 60.9066 68.2285 56.0652L67.4722 55.6141ZM33.1661 42.1827C33.1661 54.792 42.8566 65.2863 55.5432 67.0854L55.6669 66.2135C43.3817 64.4712 34.0468 54.3211 34.0468 42.1827H33.1661ZM55.5435 17.2798C42.8568 19.0789 33.1661 29.5732 33.1661 42.1827H34.0468C34.0468 30.0441 43.3819 19.8939 55.6672 18.1518L55.5435 17.2798ZM55.4287 18.1192C60.4655 20.3249 64.6775 24.0661 67.4721 28.7509L68.2284 28.2997C65.3406 23.4586 60.9882 19.5924 55.782 17.3125L55.4287 18.1192ZM37.819 42.1825C37.819 40.6843 38.5525 39.2039 39.99 37.7829C41.4289 36.3605 43.5462 35.0269 46.234 33.8391C51.6074 31.4645 59.1739 29.7108 67.8879 28.964L67.8127 28.0866C59.0374 28.8386 51.3681 30.6074 45.878 33.0336C43.134 34.2462 40.9127 35.6325 39.3709 37.1566C37.8277 38.682 36.9384 40.3745 36.9384 42.1825H37.819ZM67.888 55.4009C59.174 54.6541 51.6074 52.9005 46.234 50.5259C43.5463 49.3381 41.429 48.0044 39.99 46.5821C38.5525 45.1611 37.819 43.6806 37.819 42.1825H36.9384C36.9384 43.9905 37.8277 45.6829 39.3709 47.2084C40.9127 48.7324 43.134 50.1188 45.878 51.3314C51.3681 53.7576 59.0374 55.5263 67.8128 56.2784L67.888 55.4009ZM29.9032 19.8033V64.5619H30.7839V19.8033H29.9032ZM30.5841 64.193C23.3979 59.5073 18.6493 51.3994 18.6493 42.1826H17.7686C17.7686 51.7094 22.6781 60.0894 30.103 64.9307L30.5841 64.193ZM18.6493 42.1826C18.6493 32.9658 23.3979 24.8578 30.5841 20.1721L30.103 19.4344C22.6781 24.2758 17.7686 32.6557 17.7686 42.1826H18.6493Z" fill="currentColor" mask="url(#path-1-inside-1_12459_11835)"></path>
  </g>
  <g opacity="0.4" filter="url(#filter1_f_12459_11835)">
    <path fill-rule="evenodd" clip-rule="evenodd" d="M67.8504 55.8396C65.0091 60.6028 60.7267 64.4066 55.605 66.6495C43.1192 64.8787 33.6065 54.5565 33.6065 42.1827C33.6065 29.8087 43.1193 19.4864 55.6054 17.7158C60.7269 19.9586 65.0091 23.7623 67.8503 28.5253C50.361 30.0242 37.3787 35.5701 37.3787 42.1825C37.3787 48.7948 50.361 54.3408 67.8504 55.8396ZM30.3435 19.8033V64.5619C23.038 59.7983 18.209 51.5544 18.209 42.1826C18.209 32.8107 23.038 24.5668 30.3435 19.8033Z" fill="currentColor"></path>
  </g>
  <defs>
    <filter id="filter0_d_12459_11835" x="0.595499" y="0.102335" width="84.8683" height="84.1606" filterUnits="userSpaceOnUse" color-interpolation-filters="sRGB">
      <feFlood flood-opacity="0" result="BackgroundImageFix"></feFlood>
      <feColorMatrix in="SourceAlpha" type="matrix" values="0 0 0 0 0 0 0 0 0 0 0 0 0 0 0 0 0 0 127 0" result="hardAlpha"></feColorMatrix>
      <feOffset></feOffset>
      <feGaussianBlur stdDeviation="8.80674"></feGaussianBlur>
      <feComposite in2="hardAlpha" operator="out"></feComposite>
      <feColorMatrix type="matrix" values="0 0 0 0 0 0 0 0 0 0 0 0 0 0 0 0 0 0 0.25 0"></feColorMatrix>
      <feBlend mode="normal" in2="BackgroundImageFix" result="effect1_dropShadow_12459_11835"></feBlend>
      <feBlend mode="normal" in="SourceGraphic" in2="effect1_dropShadow_12459_11835" result="shape"></feBlend>
    </filter>
    <filter id="filter1_f_12459_11835" x="12.0443" y="11.5511" width="61.9708" height="61.263" filterUnits="userSpaceOnUse" color-interpolation-filters="sRGB">
      <feFlood flood-opacity="0" result="BackgroundImageFix"></feFlood>
      <feBlend mode="normal" in="SourceGraphic" in2="BackgroundImageFix" result="shape"></feBlend>
      <feGaussianBlur stdDeviation="3.08236" result="effect1_foregroundBlur_12459_11835"></feGaussianBlur>
    </filter>
    <linearGradient id="paint0_linear_12459_11835" x1="14.3614" y1="-3.20419" x2="73.0692" y2="2.5497" gradientUnits="userSpaceOnUse">
      <stop stop-color="#D5D5D5"></stop>
      <stop offset="1" stop-color="#C9C9C9"></stop>
    </linearGradient>
    <linearGradient id="paint1_linear_12459_11835" x1="26.0995" y1="63.18" x2="8.2088" y2="28.3271" gradientUnits="userSpaceOnUse">
      <stop stop-color="white" stop-opacity="0"></stop>
      <stop offset="1" stop-color="white"></stop>
    </linearGradient>
    <linearGradient id="paint2_linear_12459_11835" x1="47.5691" y1="29.2405" x2="64.6414" y2="59.2371" gradientUnits="userSpaceOnUse">
      <stop stop-color="white"></stop>
      <stop offset="1" stop-color="#E2E2E2" stop-opacity="0"></stop>
    </linearGradient>
    <linearGradient id="paint3_linear_12459_11835" x1="23.5342" y1="21.5928" x2="32.9817" y2="45.7282" gradientUnits="userSpaceOnUse">
      <stop stop-color="#D9D9D9"></stop>
      <stop offset="1" stop-color="white" stop-opacity="0"></stop>
    </linearGradient>
  </defs>
</symbol>
<symbol viewBox="0 0 500 500" preserveAspectRatio="xMidYMid meet" style="width: 100%; height: 100%; transform: translate3d(0px, 0px, 0px); content-visibility: visible;" id="logs"><defs><clipPath id="__lottie_element_137"><rect width="500" height="500" x="0" y="0"></rect></clipPath><clipPath id="__lottie_element_140"><path d="M0,0 L500,0 L500,500 L0,500z"></path></clipPath></defs><g clip-path="url(#__lottie_element_137)"><g clip-path="url(#__lottie_element_140)" transform="matrix(1,0,0,1,0,0)" opacity="1" style="display: block;"><g class="primary design" transform="matrix(20.829999923706055,0,0,20.829999923706055,-4957.498046875,-4957.498046875)" opacity="1" style="display: block;"><g opacity="1" transform="matrix(1,0,0,1,0,0)"><path stroke-linecap="butt" stroke-linejoin="miter" fill-opacity="0" stroke-miterlimit="4" class="primary" stroke="rgb(255,255,255)" stroke-opacity="1" stroke-width="2" d="M0 0"></path></g><g opacity="1" transform="matrix(1,0,0,1,250,249.9949951171875)"><path class="primary" fill="currentColor" fill-opacity="1" d=" M7.25,-4.005000114440918 C7.25,-4.005000114440918 -7.25,-4.005000114440918 -7.25,-4.005000114440918 C-8.210000038146973,-4.005000114440918 -9,-3.2149999141693115 -9,-2.255000114440918 C-9,-2.255000114440918 -9,2.244999885559082 -9,2.244999885559082 C-9,3.2149999141693115 -8.210000038146973,4.005000114440918 -7.25,4.005000114440918 C-7.25,4.005000114440918 7.25,4.005000114440918 7.25,4.005000114440918 C8.210000038146973,4.005000114440918 9,3.2149999141693115 9,2.255000114440918 C9,2.255000114440918 9,-2.244999885559082 9,-2.244999885559082 C9,-3.2149999141693115 8.210000038146973,-4.005000114440918 7.25,-4.005000114440918z M7.5,2.255000114440918 C7.5,2.3949999809265137 7.389999866485596,2.505000114440918 7.25,2.505000114440918 C7.25,2.505000114440918 -7.25,2.505000114440918 -7.25,2.505000114440918 C-7.389999866485596,2.505000114440918 -7.5,2.3949999809265137 -7.5,2.255000114440918 C-7.5,2.255000114440918 -7.5,-2.244999885559082 -7.5,-2.244999885559082 C-7.5,-2.384999990463257 -7.389999866485596,-2.494999885559082 -7.25,-2.494999885559082 C-7.25,-2.494999885559082 7.25,-2.494999885559082 7.25,-2.494999885559082 C7.389999866485596,-2.494999885559082 7.5,-2.384999990463257 7.5,-2.244999885559082 C7.5,-2.244999885559082 7.5,2.255000114440918 7.5,2.255000114440918z"></path></g><g opacity="1" transform="matrix(1,0,0,1,250,257.25)"><path class="primary" fill="currentColor" fill-opacity="1" d=" M8.25,-0.75 C8.25,-0.75 -8.25,-0.75 -8.25,-0.75 C-8.65999984741211,-0.75 -9,-0.4099999964237213 -9,0 C-9,0.4099999964237213 -8.65999984741211,0.75 -8.25,0.75 C-8.25,0.75 8.25,0.75 8.25,0.75 C8.65999984741211,0.75 9,0.4099999964237213 9,0 C9,-0.4099999964237213 8.65999984741211,-0.75 8.25,-0.75z"></path></g><g opacity="1" transform="matrix(1,0,0,1,250,242.75)"><path class="primary" fill="currentColor" fill-opacity="1" d=" M-8.25,0.75 C-8.25,0.75 8.25,0.75 8.25,0.75 C8.65999984741211,0.75 9,0.4099999964237213 9,0 C9,-0.4099999964237213 8.65999984741211,-0.75 8.25,-0.75 C8.25,-0.75 -8.25,-0.75 -8.25,-0.75 C-8.65999984741211,-0.75 -9,-0.4099999964237213 -9,0 C-9,0.4099999964237213 -8.65999984741211,0.75 -8.25,0.75z"></path></g></g><g class="primary design" style="display: none;"><g><path stroke-linecap="butt" stroke-linejoin="miter" fill-opacity="0" stroke-miterlimit="4" class="primary"></path></g><g><path class="primary"></path></g><g><path class="primary"></path></g><g><path class="primary"></path></g></g><g class="primary design" style="display: none;" transform="matrix(1,0,0,1,250.06500244140625,61.0407600402832)" opacity="1"><g opacity="1" transform="matrix(1,0,0,1,0,0)"><path stroke-linecap="round" stroke-linejoin="round" fill-opacity="0" class="primary" stroke="rgb(255,255,255)" stroke-opacity="1" stroke-width="31.3" d=" M-171.87600708007812,45.08399963378906 C-171.87600708007812,46.23099899291992 -171.87600708007812,46.85499954223633 -171.87600708007812,46.85499954223633 C-171.87600708007812,58.361000061035156 -162.54800415039062,67.68800354003906 -151.04200744628906,67.68800354003906 C-151.04200744628906,67.68800354003906 151.04200744628906,67.68800354003906 151.04200744628906,67.68800354003906 C162.54800415039062,67.68800354003906 171.87600708007812,58.361000061035156 171.87600708007812,46.85499954223633 C171.87600708007812,46.85499954223633 171.87600708007812,46.117000579833984 171.87600708007812,44.770999908447266"></path></g></g><g class="primary design" style="display: none;" transform="matrix(1,0,0,1,250.06500244140625,47.32442855834961)" opacity="1"><g opacity="1" transform="matrix(1,0,0,1,0,0)"><path stroke-linecap="round" stroke-linejoin="round" fill-opacity="0" class="primary" stroke="rgb(255,255,255)" stroke-opacity="1" stroke-width="31.3" d=" M-173.92999267578125,64.5739974975586 C-170.74600219726562,66.5479965209961 -166.98899841308594,67.68800354003906 -162.9669952392578,67.68800354003906 C-162.9669952392578,67.68800354003906 162.9669952392578,67.68800354003906 162.9669952392578,67.68800354003906 C167.87899780273438,67.68800354003906 172.3939971923828,65.98799896240234 175.95599365234375,63.14400100708008"></path></g></g><g class="primary design" style="display: none;" transform="matrix(1,0,0,1,250.06500244140625,62.216426849365234)" opacity="1"><g opacity="1" transform="matrix(1,0,0,1,0,0)"><path stroke-linecap="round" stroke-linejoin="round" fill-opacity="0" class="primary" stroke="rgb(255,255,255)" stroke-opacity="1" stroke-width="31.3" d=" M-171.9010009765625,42.220001220703125 C-171.9010009765625,45.15800094604492 -171.9010009765625,46.85499954223633 -171.9010009765625,46.85499954223633 C-171.9010009765625,58.361000061035156 -162.572998046875,67.68800354003906 -151.06700134277344,67.68800354003906 C-151.06700134277344,67.68800354003906 151.06700134277344,67.68800354003906 151.06700134277344,67.68800354003906 C162.572998046875,67.68800354003906 171.9010009765625,58.361000061035156 171.9010009765625,46.85499954223633 C171.9010009765625,46.85499954223633 171.9010009765625,44.64699935913086 171.9010009765625,40.909000396728516"></path></g></g><g class="primary design" style="display: none;" transform="matrix(1,0,0,1,250.06500244140625,249.96200561523438)" opacity="1"><g opacity="1" transform="matrix(1,0,0,1,0,0)"><path stroke-linecap="round" stroke-linejoin="round" fill-opacity="0" class="primary" stroke="rgb(255,255,255)" stroke-opacity="1" stroke-width="31.3" d=" M15.562999725341797,67.68800354003906 C85.55500030517578,67.68800354003906 151.04200744628906,67.68800354003906 151.04200744628906,67.68800354003906 C162.54800415039062,67.68800354003906 171.87600708007812,58.361000061035156 171.87600708007812,46.85499954223633 C171.87600708007812,46.85499954223633 171.87600708007812,-46.85499954223633 171.87600708007812,-46.85499954223633 C171.87600708007812,-58.36000061035156 162.54800415039062,-67.68800354003906 151.04200744628906,-67.68800354003906 C151.04200744628906,-67.68800354003906 151.04200744628906,-67.68800354003906 151.04200744628906,-67.68800354003906 C151.04200744628906,-67.68800354003906 -151.04200744628906,-67.68800354003906 -151.04200744628906,-67.68800354003906 C-162.54800415039062,-67.68800354003906 -171.87600708007812,-58.36000061035156 -171.87600708007812,-46.85499954223633 C-171.87600708007812,-46.85499954223633 -171.87600708007812,46.85499954223633 -171.87600708007812,46.85499954223633 C-171.87600708007812,58.361000061035156 -162.54800415039062,67.68800354003906 -151.04200744628906,67.68800354003906 C-151.04200744628906,67.68800354003906 -64.77200317382812,67.68800354003906 15.562999725341797,67.68800354003906"></path></g></g><g class="primary design" style="display: none;" transform="matrix(1,0,0,1,250.00399780273438,401.010986328125)" opacity="1"><g opacity="1" transform="matrix(1,0,0,1,0,0)"><path stroke-linecap="round" stroke-linejoin="round" fill-opacity="0" class="primary" stroke="rgb(255,255,255)" stroke-opacity="1" stroke-width="31.3" d=" M171.87600708007812,0 C171.87600708007812,0 -171.87600708007812,0 -171.87600708007812,0"></path></g></g><g class="primary design" style="display: none;" transform="matrix(1,0,0,1,250.00399780273438,99.14399719238281)" opacity="1"><g opacity="1" transform="matrix(1,0,0,1,0,0)"><path stroke-linecap="round" stroke-linejoin="round" fill-opacity="0" class="primary" stroke="rgb(255,255,255)" stroke-opacity="1" stroke-width="31.3" d=" M171.87600708007812,0 C171.87600708007812,0 -171.87600708007812,0 -171.87600708007812,0"></path></g></g></g></g></symbol>
<symbol viewBox="0 0 28 28" fill="none" id="mailchimp">
<path d="M19.2626 13.3712C19.4123 13.3712 19.562 13.3712 19.7118 13.3712C19.8071 13.167 19.8071 12.8675 19.7118 12.5272C19.6165 12.0235 19.4668 11.6832 19.1673 11.724C18.8678 11.7785 18.8678 12.1732 18.9631 12.6769C19.0039 12.9764 19.1128 13.2214 19.2626 13.3712Z" fill="currentColor"></path>
<path d="M16.6216 13.8202C16.8258 13.9155 16.9756 13.9699 17.0164 13.9155C17.0709 13.861 17.0164 13.8202 16.962 13.7113C16.8667 13.5071 16.608 13.3573 16.4174 13.2621C15.9138 13.0579 15.3693 13.1123 14.92 13.4662C14.7703 13.5615 14.6206 13.7113 14.675 13.8202C14.675 13.8746 14.7295 13.8746 14.7703 13.8746C14.8656 13.8746 15.3148 13.6704 15.8185 13.6296C16.118 13.616 16.4174 13.7249 16.6216 13.8202Z" fill="currentColor"></path>
<path d="M16.1723 14.0654C15.8728 14.1199 15.7231 14.2152 15.6278 14.3104C15.5325 14.4057 15.478 14.4602 15.478 14.5146V14.5691H15.5325C15.5869 14.5691 15.7367 14.5146 15.7367 14.5146C16.1314 14.3649 16.3901 14.3649 16.6351 14.4193C16.7849 14.4193 16.8393 14.4738 16.8801 14.4193C16.8801 14.4193 16.8801 14.3649 16.8801 14.3241C16.8665 14.1743 16.5671 14.0246 16.1723 14.0654Z" fill="currentColor"></path>
<path d="M18.3641 14.9635C18.5683 15.0587 18.7589 15.0179 18.8678 14.8682C18.9223 14.7184 18.8134 14.5142 18.6228 14.4189C18.4186 14.3236 18.228 14.3645 18.1191 14.5142C18.0102 14.664 18.1599 14.8682 18.3641 14.9635Z" fill="currentColor"></path>
<path d="M19.6027 13.8745C19.453 13.8745 19.3032 14.0243 19.3032 14.2693C19.3032 14.4735 19.3985 14.6641 19.6027 14.6641C19.7524 14.6641 19.9022 14.5143 19.9022 14.2693C19.8613 14.0651 19.7524 13.8745 19.6027 13.8745Z" fill="currentColor"></path>
<path d="M9.05252 17.7542C8.99807 17.6998 8.95723 17.6998 8.90278 17.7542C8.84833 17.7542 8.80749 17.7542 8.75304 17.7542C8.65775 17.7542 8.54885 17.6998 8.50801 17.6045C8.46717 17.5092 8.45356 17.3595 8.50801 17.1553L8.56246 17.06C8.7122 16.7605 8.91639 16.3113 8.65775 15.862C8.45356 15.5081 8.20853 15.3175 7.85459 15.2631C7.50066 15.2086 7.16034 15.3584 6.95615 15.617C6.60221 16.0118 6.56137 16.5155 6.60221 16.706C6.60221 16.7605 6.65666 16.8013 6.6975 16.8013C6.75195 16.8013 6.84724 16.7469 6.9017 16.5971V16.5427C6.9017 16.4474 6.95615 16.3385 7.05144 16.1888C7.14673 16.039 7.29647 15.9437 7.44621 15.9437C7.59595 15.8893 7.80014 15.9437 7.94988 16.039C8.19491 16.1888 8.30382 16.4882 8.19491 16.7877C8.04517 16.9375 7.99072 17.1825 7.99072 17.4411C8.04517 17.8904 8.34466 18.0946 8.58969 18.1354C8.83472 18.1354 9.03891 17.9856 9.03891 17.8904C9.09336 17.8087 9.05252 17.8087 9.05252 17.7542Z" fill="currentColor"></path>
<path d="M23.5368 16.9103C23.5368 16.8558 23.4823 16.6652 23.387 16.3658L23.1828 15.9165C23.5368 15.4129 23.5368 14.9228 23.4823 14.6778C23.4279 14.3783 23.2781 14.0788 23.0331 13.7793C22.7881 13.4798 22.1891 13.1804 21.4404 12.9762L21.0456 12.8809C21.0456 12.8809 21.0456 11.928 20.9912 11.5332C20.9912 11.2337 20.9367 10.7845 20.787 10.3353C20.6372 9.73631 20.3377 9.19179 19.943 8.83786C20.9367 7.78967 21.5901 6.59174 21.5901 5.598C21.5901 3.70582 19.2487 3.10685 16.3084 4.30478L15.7094 4.54982C15.7094 4.54982 14.6204 3.46079 14.5659 3.46079C11.3397 0.574869 1.03476 12.0777 4.31545 14.8683L5.0097 15.4673C4.80551 15.971 4.76467 16.5155 4.80551 17.1145C4.9008 17.8632 5.30918 18.6119 5.89454 19.2108C6.4935 19.7553 7.28305 20.1093 8.0862 20.1093C9.37942 23.1041 12.3198 24.8874 15.7502 24.9963C19.4393 25.0916 22.5703 23.3491 23.8635 20.259C23.9588 20.0548 24.3127 19.0611 24.3127 18.1626C24.3944 17.2506 23.8907 16.9103 23.5368 16.9103ZM8.3993 19.2517C8.30401 19.2517 8.15427 19.3061 8.04536 19.2517C6.95634 19.1972 5.70396 18.2035 5.60867 17.0056C5.51338 15.7123 6.15318 14.7186 7.35111 14.46C7.50085 14.4055 7.65059 14.4055 7.85478 14.4055C8.5082 14.46 9.50194 14.95 9.74697 16.393C9.93755 17.7543 9.65168 19.0475 8.3993 19.2517ZM7.16053 13.6704C6.41182 13.8202 5.77202 14.2149 5.36364 14.8139C5.11861 14.6097 4.66938 14.2149 4.61493 14.0652C3.96151 12.8673 5.30919 10.485 6.26208 9.17818C8.54904 5.89749 12.1837 3.40634 13.8308 3.84195C14.1303 3.93724 15.0287 4.98543 15.0287 4.98543C15.0287 4.98543 13.3408 5.93832 11.7889 7.23154C9.69252 8.78341 8.09981 11.1248 7.16053 13.6704ZM18.9084 18.748L18.9629 18.6935C18.9629 18.6391 18.9084 18.6391 18.9084 18.6391C18.9084 18.6391 17.166 18.8841 15.5188 18.2852C15.723 17.6862 16.1722 17.8904 16.9073 17.9857C18.2005 18.081 19.3985 17.8904 20.2425 17.6317C20.9912 17.4276 21.9849 16.9783 22.7336 16.393C22.9786 16.9375 23.0875 17.5909 23.0875 17.5909C23.0875 17.5909 23.2917 17.5365 23.4415 17.6454C23.5912 17.7406 23.6865 17.9448 23.6457 18.4485C23.4959 19.4423 23.0467 20.191 22.4069 20.9397C22.0121 21.3889 21.454 21.7837 20.8687 22.0831C20.5692 22.2329 20.2152 22.3826 19.8749 22.4779C17.1796 23.3219 14.4978 22.4235 13.6539 20.3815C13.5994 20.2318 13.5041 20.0821 13.5041 19.8779C13.1502 18.5302 13.4497 16.9375 14.457 15.9438C14.5115 15.8893 14.5523 15.794 14.5523 15.6987C14.5523 15.6034 14.4978 15.549 14.457 15.4945C14.1031 14.9909 12.9188 14.1469 13.1638 12.4997C13.3135 11.3018 14.3617 10.5122 15.301 10.5531H15.546C15.9408 10.5531 16.3492 10.6484 16.6351 10.6484C17.1796 10.6484 17.7241 10.5939 18.3231 10.1039C18.5272 9.95411 18.677 9.80437 18.9765 9.74992C19.0309 9.74992 19.0718 9.69547 19.2215 9.74992C19.3712 9.74992 19.521 9.80437 19.6163 9.89966C20.1199 10.2536 20.1608 10.9887 20.2152 11.5876C20.2152 11.9416 20.2697 12.7311 20.2697 12.9353C20.3241 13.439 20.4194 13.5343 20.7189 13.6296C20.8687 13.684 21.0184 13.7249 21.2226 13.7793C21.876 13.9835 22.2708 14.1332 22.5158 14.3783C22.6655 14.528 22.72 14.6778 22.7608 14.8275C22.8561 15.372 22.3116 16.0663 20.9639 16.7197C19.4665 17.4139 17.7241 17.5637 16.4853 17.4139L16.0361 17.3595C15.0424 17.2097 14.4978 18.503 15.0832 19.347C15.478 19.8915 16.5262 20.2999 17.5199 20.2999C19.9158 20.2999 21.7535 19.3061 22.4069 18.4077L22.4614 18.3124C22.5158 18.2579 22.4614 18.2171 22.4069 18.2579C21.8624 18.6527 19.3712 20.1501 16.7303 19.7009C16.7303 19.7009 16.4309 19.6464 16.1314 19.5512C15.8864 19.4559 15.4371 19.2517 15.3282 18.748C17.5607 19.4014 18.9084 18.748 18.9084 18.748ZM11.435 9.19179C12.2381 8.23889 13.2727 7.3949 14.1711 6.94567C14.2256 6.94567 14.2256 6.94568 14.2256 7.00013C14.1711 7.14987 14.0214 7.3949 13.9806 7.59909C13.9806 7.65354 14.035 7.65354 14.035 7.65354C14.5795 7.25877 15.5733 6.85038 16.4309 6.80954C16.4853 6.80954 16.4853 6.864 16.4853 6.864C16.3356 6.95929 16.2403 7.10903 16.0905 7.25877C16.0905 7.25877 16.0905 7.31322 16.145 7.31322C16.744 7.31322 17.588 7.51741 18.1325 7.85773C18.1869 7.85773 18.1325 7.95302 18.078 7.95302C17.234 7.74883 15.8864 7.59909 14.4434 7.95302C13.1502 8.25251 12.1973 8.75618 11.503 9.24624C11.435 9.23263 11.3941 9.23263 11.435 9.19179Z" fill="currentColor"></path>
</symbol>
<symbol viewBox="0 0 16 16" fill="none" id="plus-icon">
<path d="M7.99998 2C8.33749 2 8.61642 2.3564 8.6606 2.81882L8.66665 2.94737V13.0526C8.66665 13.5758 8.36816 14 7.99998 14C7.66247 14 7.38353 13.6435 7.33936 13.1812L7.33331 13.0526V2.94737C7.33331 2.42416 7.6318 2 7.99998 2Z" fill="currentColor" fill-opacity="0.784314"></path>
<path d="M13.0526 7.33331C13.5758 7.33331 14 7.6318 14 7.99998C14 8.33749 13.6435 8.61642 13.1812 8.6606L13.0526 8.66665H2.94737C2.42416 8.66665 2 8.36816 2 7.99998C2 7.66247 2.3564 7.38353 2.81882 7.33936L2.94737 7.33331H13.0526Z" fill="currentColor" fill-opacity="0.784314"></path>
</symbol>
<symbol viewBox="0 0 24 24" fill="none" stroke="currentColor" stroke-width="1.5" stroke-linecap="round" stroke-linejoin="round" id="records"><path d="M15 2H6a2 2 0 0 0-2 2v16a2 2 0 0 0 2 2h12a2 2 0 0 0 2-2V7Z"></path><path d="M14 2v4a2 2 0 0 0 2 2h4"></path><path d="M10 9H8"></path><path d="M16 13H8"></path><path d="M16 17H8"></path></symbol>
<symbol viewBox="0 0 15 15" fill="none" id="search">
  <path d="M13.4349 12.6027L10.0413 9.20825C10.7819 8.23427 11.1252 7.01521 11.0015 5.7977C10.8778 4.5802 10.2963 3.45516 9.37477 2.65019C8.45326 1.84523 7.26046 1.42042 6.03769 1.46174C4.81493 1.50306 3.65351 2.0074 2.78839 2.87274C1.92327 3.73808 1.41905 4.8998 1.37775 6.12288C1.33645 7.34596 1.76114 8.53906 2.5659 9.46086C3.37066 10.3826 4.49541 10.9642 5.7126 11.0879C6.92979 11.2117 8.14853 10.8684 9.12226 10.1274L12.5158 13.5219C12.6388 13.6419 12.8037 13.709 12.9754 13.709C13.1471 13.709 13.3119 13.6419 13.4349 13.5219C13.5566 13.4 13.625 13.2347 13.625 13.0624C13.625 12.89 13.5566 12.7247 13.4349 12.6027ZM2.70978 6.30195C2.70978 5.60786 2.91555 4.92935 3.30106 4.35223C3.68659 3.77512 4.23454 3.3253 4.87563 3.05969C5.51672 2.79407 6.22217 2.72457 6.90275 2.85998C7.58332 2.9954 8.20848 3.32963 8.69915 3.82043C9.18982 4.31123 9.52396 4.93654 9.65932 5.6173C9.79469 6.29806 9.72521 7.00367 9.45973 7.64494C9.19415 8.2862 8.74446 8.83429 8.16749 9.21991C7.59052 9.6055 6.91219 9.81138 6.21827 9.81138C5.2881 9.81025 4.39634 9.44012 3.73861 8.78225C3.08088 8.12435 2.71088 7.23236 2.70978 6.30195Z" fill="currentColor"></path>
</symbol>
<symbol viewBox="0 0 24 24" fill="none" stroke="currentColor" stroke-width="2" stroke-linecap="round" stroke-linejoin="round" class="lucide lucide-workflow" id="workflow"><rect width="8" height="8" x="3" y="3" rx="2"></rect><path d="M7 11v4a2 2 0 0 0 2 2h4"></path><rect width="8" height="8" x="13" y="13" rx="2"></rect></symbol>
</defs>
</svg>
