<?xml version="1.0" encoding="utf-8"?>
<!-- This file is generated automatically by pnpm run build:icons -->
<svg xmlns="http://www.w3.org/2000/svg" xmlns:xlink="http://www.w3.org/1999/xlink" width="0" height="0">
<defs>
<symbol viewBox="0 0 86 85" fill="none" id="logo">
  <g filter="url(#filter0_d_12459_11835)">
    <mask id="path-1-inside-1_12459_11835" fill="white">
      <path fill-rule="evenodd" clip-rule="evenodd" d="M67.8504 55.8396C65.0091 60.6028 60.7267 64.4066 55.605 66.6495C43.1192 64.8787 33.6065 54.5565 33.6065 42.1827C33.6065 29.8087 43.1193 19.4864 55.6054 17.7158C60.7269 19.9586 65.0091 23.7623 67.8503 28.5253C50.361 30.0242 37.3787 35.5701 37.3787 42.1825C37.3787 48.7948 50.361 54.3408 67.8504 55.8396ZM30.3435 19.8033V64.5619C23.038 59.7983 18.209 51.5544 18.209 42.1826C18.209 32.8107 23.038 24.5668 30.3435 19.8033Z"></path>
    </mask>
    <path fill-rule="evenodd" clip-rule="evenodd" d="M67.8504 55.8396C65.0091 60.6028 60.7267 64.4066 55.605 66.6495C43.1192 64.8787 33.6065 54.5565 33.6065 42.1827C33.6065 29.8087 43.1193 19.4864 55.6054 17.7158C60.7269 19.9586 65.0091 23.7623 67.8503 28.5253C50.361 30.0242 37.3787 35.5701 37.3787 42.1825C37.3787 48.7948 50.361 54.3408 67.8504 55.8396ZM30.3435 19.8033V64.5619C23.038 59.7983 18.209 51.5544 18.209 42.1826C18.209 32.8107 23.038 24.5668 30.3435 19.8033Z" fill="currentColor"></path>
    <path fill-rule="evenodd" clip-rule="evenodd" d="M67.8504 55.8396C65.0091 60.6028 60.7267 64.4066 55.605 66.6495C43.1192 64.8787 33.6065 54.5565 33.6065 42.1827C33.6065 29.8087 43.1193 19.4864 55.6054 17.7158C60.7269 19.9586 65.0091 23.7623 67.8503 28.5253C50.361 30.0242 37.3787 35.5701 37.3787 42.1825C37.3787 48.7948 50.361 54.3408 67.8504 55.8396ZM30.3435 19.8033V64.5619C23.038 59.7983 18.209 51.5544 18.209 42.1826C18.209 32.8107 23.038 24.5668 30.3435 19.8033Z" fill="currentColor" fill-opacity="0.8"></path>
    <path d="M67.8504 55.8396L68.2285 56.0652L68.589 55.461L67.888 55.4009L67.8504 55.8396ZM55.605 66.6495L55.5432 67.0854L55.6671 67.103L55.7817 67.0528L55.605 66.6495ZM55.6054 17.7158L55.782 17.3125L55.6674 17.2623L55.5435 17.2798L55.6054 17.7158ZM67.8503 28.5253L67.8879 28.964L68.5889 28.904L68.2284 28.2997L67.8503 28.5253ZM30.3435 19.8033H30.7839V18.9905L30.103 19.4344L30.3435 19.8033ZM30.3435 64.5619L30.103 64.9307L30.7839 65.3747V64.5619H30.3435ZM67.4722 55.6141C64.6776 60.299 60.4654 64.0404 55.4284 66.2461L55.7817 67.0528C60.9881 64.7729 65.3406 60.9066 68.2285 56.0652L67.4722 55.6141ZM33.1661 42.1827C33.1661 54.792 42.8566 65.2863 55.5432 67.0854L55.6669 66.2135C43.3817 64.4712 34.0468 54.3211 34.0468 42.1827H33.1661ZM55.5435 17.2798C42.8568 19.0789 33.1661 29.5732 33.1661 42.1827H34.0468C34.0468 30.0441 43.3819 19.8939 55.6672 18.1518L55.5435 17.2798ZM55.4287 18.1192C60.4655 20.3249 64.6775 24.0661 67.4721 28.7509L68.2284 28.2997C65.3406 23.4586 60.9882 19.5924 55.782 17.3125L55.4287 18.1192ZM37.819 42.1825C37.819 40.6843 38.5525 39.2039 39.99 37.7829C41.4289 36.3605 43.5462 35.0269 46.234 33.8391C51.6074 31.4645 59.1739 29.7108 67.8879 28.964L67.8127 28.0866C59.0374 28.8386 51.3681 30.6074 45.878 33.0336C43.134 34.2462 40.9127 35.6325 39.3709 37.1566C37.8277 38.682 36.9384 40.3745 36.9384 42.1825H37.819ZM67.888 55.4009C59.174 54.6541 51.6074 52.9005 46.234 50.5259C43.5463 49.3381 41.429 48.0044 39.99 46.5821C38.5525 45.1611 37.819 43.6806 37.819 42.1825H36.9384C36.9384 43.9905 37.8277 45.6829 39.3709 47.2084C40.9127 48.7324 43.134 50.1188 45.878 51.3314C51.3681 53.7576 59.0374 55.5263 67.8128 56.2784L67.888 55.4009ZM29.9032 19.8033V64.5619H30.7839V19.8033H29.9032ZM30.5841 64.193C23.3979 59.5073 18.6493 51.3994 18.6493 42.1826H17.7686C17.7686 51.7094 22.6781 60.0894 30.103 64.9307L30.5841 64.193ZM18.6493 42.1826C18.6493 32.9658 23.3979 24.8578 30.5841 20.1721L30.103 19.4344C22.6781 24.2758 17.7686 32.6557 17.7686 42.1826H18.6493Z" fill="currentColor" mask="url(#path-1-inside-1_12459_11835)"></path>
  </g>
  <g opacity="0.4" filter="url(#filter1_f_12459_11835)">
    <path fill-rule="evenodd" clip-rule="evenodd" d="M67.8504 55.8396C65.0091 60.6028 60.7267 64.4066 55.605 66.6495C43.1192 64.8787 33.6065 54.5565 33.6065 42.1827C33.6065 29.8087 43.1193 19.4864 55.6054 17.7158C60.7269 19.9586 65.0091 23.7623 67.8503 28.5253C50.361 30.0242 37.3787 35.5701 37.3787 42.1825C37.3787 48.7948 50.361 54.3408 67.8504 55.8396ZM30.3435 19.8033V64.5619C23.038 59.7983 18.209 51.5544 18.209 42.1826C18.209 32.8107 23.038 24.5668 30.3435 19.8033Z" fill="currentColor"></path>
  </g>
  <defs>
    <filter id="filter0_d_12459_11835" x="0.595499" y="0.102335" width="84.8683" height="84.1606" filterUnits="userSpaceOnUse" color-interpolation-filters="sRGB">
      <feFlood flood-opacity="0" result="BackgroundImageFix"></feFlood>
      <feColorMatrix in="SourceAlpha" type="matrix" values="0 0 0 0 0 0 0 0 0 0 0 0 0 0 0 0 0 0 127 0" result="hardAlpha"></feColorMatrix>
      <feOffset></feOffset>
      <feGaussianBlur stdDeviation="8.80674"></feGaussianBlur>
      <feComposite in2="hardAlpha" operator="out"></feComposite>
      <feColorMatrix type="matrix" values="0 0 0 0 0 0 0 0 0 0 0 0 0 0 0 0 0 0 0.25 0"></feColorMatrix>
      <feBlend mode="normal" in2="BackgroundImageFix" result="effect1_dropShadow_12459_11835"></feBlend>
      <feBlend mode="normal" in="SourceGraphic" in2="effect1_dropShadow_12459_11835" result="shape"></feBlend>
    </filter>
    <filter id="filter1_f_12459_11835" x="12.0443" y="11.5511" width="61.9708" height="61.263" filterUnits="userSpaceOnUse" color-interpolation-filters="sRGB">
      <feFlood flood-opacity="0" result="BackgroundImageFix"></feFlood>
      <feBlend mode="normal" in="SourceGraphic" in2="BackgroundImageFix" result="shape"></feBlend>
      <feGaussianBlur stdDeviation="3.08236" result="effect1_foregroundBlur_12459_11835"></feGaussianBlur>
    </filter>
    <linearGradient id="paint0_linear_12459_11835" x1="14.3614" y1="-3.20419" x2="73.0692" y2="2.5497" gradientUnits="userSpaceOnUse">
      <stop stop-color="#D5D5D5"></stop>
      <stop offset="1" stop-color="#C9C9C9"></stop>
    </linearGradient>
    <linearGradient id="paint1_linear_12459_11835" x1="26.0995" y1="63.18" x2="8.2088" y2="28.3271" gradientUnits="userSpaceOnUse">
      <stop stop-color="white" stop-opacity="0"></stop>
      <stop offset="1" stop-color="white"></stop>
    </linearGradient>
    <linearGradient id="paint2_linear_12459_11835" x1="47.5691" y1="29.2405" x2="64.6414" y2="59.2371" gradientUnits="userSpaceOnUse">
      <stop stop-color="white"></stop>
      <stop offset="1" stop-color="#E2E2E2" stop-opacity="0"></stop>
    </linearGradient>
    <linearGradient id="paint3_linear_12459_11835" x1="23.5342" y1="21.5928" x2="32.9817" y2="45.7282" gradientUnits="userSpaceOnUse">
      <stop stop-color="#D9D9D9"></stop>
      <stop offset="1" stop-color="white" stop-opacity="0"></stop>
    </linearGradient>
  </defs>
</symbol>
<symbol viewBox="0 0 24 24" fill="none" stroke="currentColor" stroke-width="1.8" stroke-linecap="round" stroke-linejoin="round" class="lucide lucide-logs" id="logs"><path d="M13 12h8"></path><path d="M13 18h8"></path><path d="M13 6h8"></path><path d="M3 12h1"></path><path d="M3 18h1"></path><path d="M3 6h1"></path><path d="M8 12h1"></path><path d="M8 18h1"></path><path d="M8 6h1"></path></symbol>
<symbol viewBox="0 0 16 17" fill="none" stroke-width="1.5" id="records">
<g id="Views">
<path id="Vector" fill-rule="evenodd" clip-rule="evenodd" d="M12.6541 11.2952L14.7544 12.1213C14.8576 12.1618 14.9394 12.2434 14.9801 12.3466C15.0511 12.5264 14.9828 12.7268 14.827 12.8284L14.755 12.8656L8.35645 15.3924C8.15935 15.4703 7.94372 15.4831 7.74052 15.4309L7.62035 15.3918L1.25259 12.8653C1.1499 12.8246 1.06864 12.7432 1.02806 12.6404C0.95707 12.4607 1.02536 12.2603 1.1812 12.1587L1.25319 12.1215L3.34307 11.2962L7.06917 12.7751C7.65895 13.0091 8.31525 13.0097 8.9054 12.7766L12.6541 11.2952ZM12.6541 7.27688L14.7544 8.10289C14.8576 8.14346 14.9394 8.22508 14.9801 8.32824C15.0511 8.50803 14.9828 8.70839 14.827 8.81004L14.755 8.8472L10.6001 10.4882L9.619 10.875L8.35645 11.3741L8.317 11.386L8.23566 11.4132C8.20301 11.4215 8.17004 11.4282 8.13688 11.4331C8.12585 11.4346 8.11547 11.436 8.10507 11.4372C8.02541 11.4468 7.94422 11.4464 7.86397 11.4363L7.74052 11.4126L7.62035 11.3735L6.391 10.885L5.38907 10.4882L1.25259 8.84697C1.1499 8.80623 1.06864 8.72483 1.02806 8.62208C0.95707 8.44229 1.02536 8.24192 1.1812 8.14029L1.25319 8.10312L3.34307 7.27788L7.06917 8.75677C7.65895 8.99078 8.31525 8.9913 8.9054 8.75824L12.6541 7.27688ZM7.62186 1.56989C7.85734 1.47691 8.11932 1.4767 8.35494 1.56931L14.7544 4.08452C14.8576 4.12509 14.9394 4.20671 14.9801 4.30987C15.0612 4.51534 14.9605 4.74769 14.755 4.82884L10.6001 6.46988L8.35565 7.356L8.27468 7.38396C8.25405 7.3901 8.23326 7.39557 8.21236 7.40036C8.09824 7.42674 7.98013 7.43258 7.86397 7.41788L7.74052 7.39419L7.62035 7.3551L1.25259 4.8286C1.1499 4.78786 1.06864 4.70646 1.02806 4.60371C0.946927 4.39823 1.04772 4.16589 1.25319 4.08475L7.62186 1.56989Z" fill="currentColor"></path>
</g>
</symbol>
<symbol viewBox="0 0 15 15" fill="none" id="search">
  <path d="M13.4349 12.6027L10.0413 9.20825C10.7819 8.23427 11.1252 7.01521 11.0015 5.7977C10.8778 4.5802 10.2963 3.45516 9.37477 2.65019C8.45326 1.84523 7.26046 1.42042 6.03769 1.46174C4.81493 1.50306 3.65351 2.0074 2.78839 2.87274C1.92327 3.73808 1.41905 4.8998 1.37775 6.12288C1.33645 7.34596 1.76114 8.53906 2.5659 9.46086C3.37066 10.3826 4.49541 10.9642 5.7126 11.0879C6.92979 11.2117 8.14853 10.8684 9.12226 10.1274L12.5158 13.5219C12.6388 13.6419 12.8037 13.709 12.9754 13.709C13.1471 13.709 13.3119 13.6419 13.4349 13.5219C13.5566 13.4 13.625 13.2347 13.625 13.0624C13.625 12.89 13.5566 12.7247 13.4349 12.6027ZM2.70978 6.30195C2.70978 5.60786 2.91555 4.92935 3.30106 4.35223C3.68659 3.77512 4.23454 3.3253 4.87563 3.05969C5.51672 2.79407 6.22217 2.72457 6.90275 2.85998C7.58332 2.9954 8.20848 3.32963 8.69915 3.82043C9.18982 4.31123 9.52396 4.93654 9.65932 5.6173C9.79469 6.29806 9.72521 7.00367 9.45973 7.64494C9.19415 8.2862 8.74446 8.83429 8.16749 9.21991C7.59052 9.6055 6.91219 9.81138 6.21827 9.81138C5.2881 9.81025 4.39634 9.44012 3.73861 8.78225C3.08088 8.12435 2.71088 7.23236 2.70978 6.30195Z" fill="currentColor"></path>
</symbol>
<symbol viewBox="0 0 17 16" fill="none" stroke-width="1.5" id="workflow">
  <path fill-rule="evenodd" clip-rule="evenodd" d="M5.75 1.175C5.75 0.733172 6.10817 0.375 6.55 0.375H10.45C10.8918 0.375 11.25 0.733172 11.25 1.175V3.825C11.25 4.26683 10.8918 4.625 10.45 4.625H9.5V7.21327L10.3333 9.49545C10.2127 9.46475 10.0858 9.43383 9.95314 9.40184L9.87392 9.38278C9.48161 9.28848 9.01569 9.17649 8.64674 9.03006C8.60037 9.01166 8.55108 8.99106 8.5 8.96789C8.44892 8.99106 8.39963 9.01166 8.35326 9.03006C7.98431 9.17649 7.51839 9.28848 7.12608 9.38278L7.04686 9.40184C6.91416 9.43383 6.78728 9.46475 6.66666 9.49545L7.5 7.21327V4.625H6.55C6.10817 4.625 5.75 4.26683 5.75 3.825V1.175ZM6.66666 9.49545C6.66666 9.49545 6.66667 9.49545 6.66666 9.49545L5.98035 11.375H6.45C6.89183 11.375 7.25 11.7332 7.25 12.175V14.825C7.25 15.2668 6.89183 15.625 6.45 15.625H2.55C2.10817 15.625 1.75 15.2668 1.75 14.825V12.175C1.75 11.7332 2.10817 11.375 2.55 11.375H3.33888C3.3705 11.0068 3.41405 10.6204 3.47454 10.2575C3.54791 9.81729 3.66031 9.31832 3.85557 8.92779C4.16007 8.3188 4.77901 8.02135 5.18092 7.86331C5.63169 7.68606 6.15413 7.55975 6.57814 7.45754C6.97303 7.36234 7.27621 7.28898 7.5 7.21327L6.66666 9.49545ZM5.98035 11.375L6.66666 9.49545C6.37734 9.5691 6.12401 9.64153 5.91283 9.72458C5.73044 9.7963 5.65054 9.84958 5.62363 9.86839C5.57156 9.9949 5.50642 10.2317 5.44733 10.5863C5.40635 10.8322 5.3734 11.1014 5.34711 11.375H5.98035ZM10.3333 9.49545L9.5 7.21327C9.72379 7.28898 10.027 7.36234 10.4219 7.45754C10.8459 7.55975 11.3683 7.68606 11.8191 7.86331C12.221 8.02135 12.8399 8.3188 13.1444 8.92779C13.3397 9.31832 13.4521 9.81729 13.5255 10.2575C13.5859 10.6204 13.6295 11.0068 13.6611 11.375H14.45C14.8918 11.375 15.25 11.7332 15.25 12.175V14.825C15.25 15.2668 14.8918 15.625 14.45 15.625H10.55C10.1082 15.625 9.75 15.2668 9.75 14.825V12.175C9.75 11.7332 10.1082 11.375 10.55 11.375H11.0197L10.3333 9.49545ZM10.3333 9.49545L11.0197 11.375H11.6529C11.6266 11.1014 11.5937 10.8322 11.5527 10.5863C11.4936 10.2317 11.4284 9.9949 11.3764 9.86839C11.3495 9.84958 11.2696 9.7963 11.0872 9.72458C10.876 9.64153 10.6227 9.5691 10.3333 9.49545Z" fill="currentColor"></path>
</symbol>
</defs>
</svg>
