<svg width="16" height="17" viewBox="0 0 16 17" fill="none" xmlns="http://www.w3.org/2000/svg">
<path fill-rule="evenodd" clip-rule="evenodd" d="M2 4C2 3.172 2.674 2.5 3.5 2.5H5.5C6.328 2.5 7 3.174 7 4V6C7 6.828 6.326 7.5 5.5 7.5H3.5C2.672 7.5 2 6.826 2 6V4ZM2 11C2 10.172 2.674 9.5 3.5 9.5H5.5C6.328 9.5 7 10.174 7 11V13C7 13.828 6.326 14.5 5.5 14.5H3.5C2.672 14.5 2 13.826 2 13V11ZM9 4C9 3.172 9.674 2.5 10.5 2.5H12.5C13.328 2.5 14 3.174 14 4V6C14 6.828 13.326 7.5 12.5 7.5H10.5C9.672 7.5 9 6.826 9 6V4ZM9 11C9 10.172 9.674 9.5 10.5 9.5H12.5C13.328 9.5 14 10.174 14 11V13C14 13.828 13.326 14.5 12.5 14.5H10.5C9.672 14.5 9 13.826 9 13V11Z" fill="#E6E6E6"/>
</svg>
