<svg width="17" height="17" viewBox="0 0 17 17" fill="none" xmlns="http://www.w3.org/2000/svg">
<g id="Task">
<path id="Subtract" fill-rule="evenodd" clip-rule="evenodd" d="M8.05835 15.5C11.9243 15.5 15.0583 12.366 15.0583 8.5C15.0583 4.63401 11.9243 1.5 8.05835 1.5C4.19236 1.5 1.05835 4.63401 1.05835 8.5C1.05835 12.366 4.19236 15.5 8.05835 15.5ZM11.6997 5.95296C12.022 6.2735 12.0383 6.81053 11.7361 7.15245L8.09139 11.2764C7.59716 11.8356 6.77294 11.8754 6.23285 11.3661L4.22105 9.46925C3.89082 9.15789 3.86108 8.6215 4.15461 8.27121C4.44814 7.92092 4.9538 7.88937 5.28403 8.20074L7.10174 9.91466L10.5689 5.99165C10.8711 5.64974 11.3773 5.63241 11.6997 5.95296Z" fill="white"/>
</g>
</svg>
