<svg width="10" height="6" viewBox="0 0 10 6" fill="none" xmlns="http://www.w3.org/2000/svg">
<g id="chevron-down" clip-path="url(#clip0_3668_3293)">
<path id="Vector" d="M1.97334 1.05705C1.84728 0.93699 1.67928 0.870974 1.50521 0.873097C1.33114 0.875219 1.1648 0.945311 1.0417 1.06841C0.918609 1.1915 0.848516 1.35784 0.846394 1.53191C0.844271 1.70598 0.910287 1.87399 1.03034 2.00005L3.89234 4.86205C3.97983 4.94964 4.08373 5.01913 4.19809 5.06654C4.31246 5.11396 4.43504 5.13836 4.55885 5.13836C4.68265 5.13836 4.80523 5.11396 4.9196 5.06654C5.03396 5.01913 5.13786 4.94964 5.22534 4.86205L8.08635 2.00005C8.2064 1.87399 8.27242 1.70598 8.2703 1.53191C8.26817 1.35784 8.19808 1.1915 8.07499 1.06841C7.95189 0.945311 7.78555 0.875219 7.61148 0.873097C7.43741 0.870974 7.26941 0.93699 7.14335 1.05705L4.55835 3.64005L1.97334 1.05705Z" fill="#737373"/>
</g>
<defs>
<clipPath id="clip0_3668_3293">
<rect width="9" height="5" fill="white" transform="translate(0.0583496 0.5)"/>
</clipPath>
</defs>
</svg>
