<svg width="16" height="17" viewBox="0 0 16 17" fill="none" xmlns="http://www.w3.org/2000/svg">
<path fill-rule="evenodd" clip-rule="evenodd" d="M1.32698 3.13803C1 3.77976 1 4.61984 1 6.3V10.7C1 12.3802 1 13.2202 1.32698 13.862C1.6146 14.4265 2.07354 14.8854 2.63803 15.173C3.27976 15.5 4.11984 15.5 5.8 15.5H10.2C11.8802 15.5 12.7202 15.5 13.362 15.173C13.9265 14.8854 14.3854 14.4265 14.673 13.862C15 13.2202 15 12.3802 15 10.7V6.3C15 4.61984 15 3.77976 14.673 3.13803C14.3854 2.57354 13.9265 2.1146 13.362 1.82698C12.7202 1.5 11.8802 1.5 10.2 1.5H5.8C4.11984 1.5 3.27976 1.5 2.63803 1.82698C2.07354 2.1146 1.6146 2.57354 1.32698 3.13803ZM4.15148 7.61652C3.80161 7.39478 3.33824 7.49864 3.11649 7.8485C2.89475 8.19836 2.99861 8.66174 3.34847 8.88348L5.89898 10.5L3.34847 12.1165C2.99861 12.3383 2.89475 12.8016 3.11649 13.1515C3.33824 13.5014 3.80161 13.6052 4.15148 13.3835L7.70148 11.1335C7.91847 10.996 8.04997 10.7569 8.04997 10.5C8.04997 10.2431 7.91847 10.0041 7.70148 9.86652L4.15148 7.61652Z" fill="#E6E6E6"/>
</svg>
