<svg width="17" height="16" viewBox="0 0 17 16" fill="none" xmlns="http://www.w3.org/2000/svg">
<rect x="1.41357" y="6.38281" width="4.43823" height="8.33674" rx="0.6" fill="#707070"/>
<path fill-rule="evenodd" clip-rule="evenodd" d="M7.54629 1.28125C7.21492 1.28125 6.94629 1.54988 6.94629 1.88125V14.1198C6.94629 14.4512 7.21492 14.7198 7.54629 14.7198H10.4785C10.7547 14.7198 10.9785 14.496 10.9785 14.2198V12.3439C10.9785 12.0125 11.2471 11.7439 11.5785 11.7439H13.0286C13.3599 11.7439 13.6286 12.0125 13.6286 12.3439V14.2198C13.6286 14.496 13.8524 14.7198 14.1286 14.7198H14.9869C15.3183 14.7198 15.5869 14.4512 15.5869 14.1198V1.88125C15.5869 1.54988 15.3183 1.28125 14.9869 1.28125H7.54629Z" fill="#707070"/>
</svg>
