<svg width="14" height="14" viewBox="0 0 14 14" fill="none" xmlns="http://www.w3.org/2000/svg">
<path fill-rule="evenodd" clip-rule="evenodd" d="M3.76403 2.31566L5.56519 1.11489C5.6528 1.05648 5.84285 1.03603 5.93948 1.0732L10.8089 2.94606C10.8618 2.9664 10.9375 3.07667 10.9375 3.13817V11.8825C10.9375 12.1242 11.1334 12.32 11.375 12.32C11.6166 12.32 11.8125 12.1242 11.8125 11.8825V3.13817C11.8125 2.71472 11.5139 2.27973 11.123 2.12938L6.25358 0.256519C5.89286 0.117779 5.40463 0.170309 5.07982 0.386847L2.81982 1.89352L2.52762 2.08832L2.52984 2.09403C2.32238 2.1877 2.1875 2.40325 2.1875 2.69503V10.6127C2.1875 11.0959 2.55339 11.6229 3.00284 11.789L8.36058 13.7688C8.81087 13.9351 9.17591 13.6759 9.17591 13.1955V4.89158C9.17591 4.40857 8.80018 3.8989 8.34681 3.75637L3.76403 2.31566Z" fill="#939393"/>
</svg>
