<svg width="17" height="17" viewBox="0 0 17 17" fill="none" xmlns="http://www.w3.org/2000/svg">
<path d="M3.32617 6.73145C3.724 6.73145 4.10553 6.88948 4.38683 7.17078C4.66814 7.45209 4.82617 7.83362 4.82617 8.23145C4.82617 8.62927 4.66814 9.0108 4.38683 9.29211C4.10553 9.57341 3.724 9.73145 3.32617 9.73145C2.92835 9.73145 2.54682 9.57341 2.26551 9.29211C1.98421 9.0108 1.82617 8.62927 1.82617 8.23145C1.82617 7.83362 1.98421 7.45209 2.26551 7.17078C2.54682 6.88948 2.92835 6.73145 3.32617 6.73145ZM8.32617 6.73145C8.724 6.73145 9.10553 6.88948 9.38683 7.17078C9.66814 7.45209 9.82617 7.83362 9.82617 8.23145C9.82617 8.62927 9.66814 9.0108 9.38683 9.29211C9.10553 9.57341 8.724 9.73145 8.32617 9.73145C7.92835 9.73145 7.54682 9.57341 7.26551 9.29211C6.98421 9.0108 6.82617 8.62927 6.82617 8.23145C6.82617 7.83362 6.98421 7.45209 7.26551 7.17078C7.54682 6.88948 7.92835 6.73145 8.32617 6.73145ZM13.3262 6.73145C13.724 6.73145 14.1055 6.88948 14.3868 7.17078C14.6681 7.45209 14.8262 7.83362 14.8262 8.23145C14.8262 8.62927 14.6681 9.0108 14.3868 9.29211C14.1055 9.57341 13.724 9.73145 13.3262 9.73145C12.9283 9.73145 12.5468 9.57341 12.2655 9.29211C11.9842 9.0108 11.8262 8.62927 11.8262 8.23145C11.8262 7.83362 11.9842 7.45209 12.2655 7.17078C12.5468 6.88948 12.9283 6.73145 13.3262 6.73145Z" fill="#737373"/>
</svg>
