<svg xmlns="http://www.w3.org/2000/svg" width="15" height="15" viewBox="0 0 15 15" fill="none">
    <path
        d="M3.39215 9.97187C4.50508 9.98552 5.43563 10.84 5.55059 11.9504C4.96858 12.3132 3.71671 12.6336 2.95473 12.8055C2.66507 12.8707 2.42021 12.6056 2.50814 12.3231C2.71159 11.6694 3.05517 10.6398 3.39215 9.97187Z"
        fill="#7C7C7C" />
    <path
        d="M12.7618 4.6922C13.1279 4.09122 13.0537 3.29314 12.5391 2.77209C12.0195 2.24606 11.2212 2.17448 10.6258 2.55736C11.1129 3.46283 11.8558 4.20542 12.7618 4.6922Z"
        fill="#7C7C7C" />
    <path
        d="M9.64788 3.48964L4.36389 8.80443C5.40323 9.11436 6.24577 9.89547 6.63751 10.9065L11.8417 5.67762C10.9461 5.13401 10.1937 4.38351 9.64788 3.48964Z"
        fill="#7C7C7C" />
</svg>