<svg width="20" height="21" viewBox="0 0 20 21" fill="none" xmlns="http://www.w3.org/2000/svg">
<path fill-rule="evenodd" clip-rule="evenodd" d="M4.375 4.25C2.99429 4.25 1.875 5.36929 1.875 6.75V14.25C1.875 15.6307 2.99429 16.75 4.375 16.75H15.625C17.0057 16.75 18.125 15.6307 18.125 14.25V6.75C18.125 5.36929 17.0057 4.25 15.625 4.25H4.375ZM5.41157 6.27965C5.1518 6.05235 4.75695 6.07867 4.52965 6.33844C4.30235 6.59822 4.32867 6.99307 4.58844 7.22037L9.58844 11.5954C9.82408 11.8016 10.1759 11.8016 10.4116 11.5954L15.4116 7.22037C15.6713 6.99307 15.6977 6.59822 15.4704 6.33844C15.2431 6.07867 14.8482 6.05235 14.5884 6.27965L10 10.2945L5.41157 6.27965Z" fill="#939393"/>
</svg>
