<svg xmlns="http://www.w3.org/2000/svg" width="14" height="14" viewBox="0 0 14 14" fill="none">
  <path fill-rule="evenodd" clip-rule="evenodd" d="M2.28589 3.46373C2.28589 2.81316 2.81546 2.28516 3.46446 2.28516H5.03589C5.68646 2.28516 6.21446 2.81473 6.21446 3.46373V5.03516C6.21446 5.68573 5.68489 6.21373 5.03589 6.21373H3.46446C2.81389 6.21373 2.28589 5.68416 2.28589 5.03516V3.46373ZM2.28589 8.96373C2.28589 8.31316 2.81546 7.78516 3.46446 7.78516H5.03589C5.68646 7.78516 6.21446 8.31473 6.21446 8.96373V10.5352C6.21446 11.1857 5.68489 11.7137 5.03589 11.7137H3.46446C2.81389 11.7137 2.28589 11.1842 2.28589 10.5352V8.96373ZM7.78589 3.46373C7.78589 2.81316 8.31546 2.28516 8.96446 2.28516H10.5359C11.1865 2.28516 11.7145 2.81473 11.7145 3.46373V5.03516C11.7145 5.68573 11.1849 6.21373 10.5359 6.21373H8.96446C8.31389 6.21373 7.78589 5.68416 7.78589 5.03516V3.46373ZM7.78589 8.96373C7.78589 8.31316 8.31546 7.78516 8.96446 7.78516H10.5359C11.1865 7.78516 11.7145 8.31473 11.7145 8.96373V10.5352C11.7145 11.1857 11.1849 11.7137 10.5359 11.7137H8.96446C8.31389 11.7137 7.78589 11.1842 7.78589 10.5352V8.96373Z" fill="#C8C8C8"/>
</svg>