<svg width="15" height="14" viewBox="0 0 15 14" fill="none" xmlns="http://www.w3.org/2000/svg">
<g clip-path="url(#clip0_12063_134302)">
<path d="M13.5018 7.13949C13.5018 6.70522 13.4628 6.28765 13.3904 5.88678H7.62241V8.25858H10.9184C10.7737 9.02134 10.3394 9.66718 9.68799 10.1015V11.6437H11.6756C12.8337 10.5747 13.5018 9.00464 13.5018 7.13949Z" fill="white"/>
<path d="M7.6222 13.1247C9.27578 13.1247 10.6623 12.579 11.6756 11.6437L9.68799 10.1015C9.14236 10.4689 8.4462 10.6917 7.6222 10.6917C6.02986 10.6917 4.67694 9.61716 4.19256 8.16959H2.15482V9.75078C3.16255 11.7496 5.22813 13.1247 7.6222 13.1247Z" fill="white"/>
<path d="M4.19277 8.16397C4.07028 7.79651 3.9979 7.40677 3.9979 7.00034C3.9979 6.5939 4.07028 6.20417 4.19277 5.83671V4.25551H2.15502C1.73745 5.07952 1.49805 6.00931 1.49805 7.00034C1.49805 7.99137 1.73745 8.92116 2.15502 9.74517L3.74179 8.50916L4.19277 8.16397Z" fill="white"/>
<path d="M7.6222 3.31458C8.52415 3.31458 9.32588 3.62637 9.96616 4.22767L11.72 2.47388C10.6565 1.48284 9.27577 0.875977 7.6222 0.875977C5.22813 0.875977 3.16276 2.25118 2.15502 4.25551L4.19277 5.83671C4.67715 4.38914 6.02986 3.31458 7.6222 3.31458Z" fill="white"/>
</g>
<defs>
<clipPath id="clip0_12063_134302">
<rect width="12.2487" height="12.2487" fill="white" transform="translate(1.37585 0.875977)"/>
</clipPath>
</defs>
</svg>
