<svg width="16" height="17" viewBox="0 0 16 17" fill="none" xmlns="http://www.w3.org/2000/svg">
<rect width="4.99902" height="3.42873" rx="0.6" transform="matrix(-1 0 0 1 6.30859 6.83984)" fill="#F5F5F5"/>
<rect width="4.99902" height="3.42873" rx="0.6" transform="matrix(-1 0 0 1 6.30859 1.81055)" fill="#F5F5F5"/>
<rect width="4.99902" height="3.42873" rx="0.6" transform="matrix(-1 0 0 1 6.30859 11.7617)" fill="#F5F5F5"/>
<rect width="3.42842" height="3.50567" rx="0.6" transform="matrix(-2.37171e-08 1 1 8.05614e-08 7.59473 6.83984)" fill="#F5F5F5"/>
<rect width="3.42842" height="3.50567" rx="0.6" transform="matrix(-3.79023e-08 1 1 5.04108e-08 7.59473 1.81055)" fill="#F5F5F5"/>
<rect width="3.42842" height="2.30326" rx="0.6" transform="matrix(-1.55824e-08 1 1 1.22618e-07 12.3867 6.83984)" fill="#F5F5F5"/>
<rect width="3.42842" height="2.30326" rx="0.6" transform="matrix(-2.49022e-08 1 1 7.67276e-08 12.3867 1.81055)" fill="#F5F5F5"/>
<rect width="3.42842" height="3.50567" rx="0.6" transform="matrix(-2.18985e-08 1 1 8.72518e-08 7.59473 11.7617)" fill="#F5F5F5"/>
<rect width="3.42842" height="2.30326" rx="0.6" transform="matrix(-1.43875e-08 1 1 1.32801e-07 12.3867 11.7617)" fill="#F5F5F5"/>
</svg>
