<svg width="16" height="13" viewBox="0 0 16 13" fill="none" xmlns="http://www.w3.org/2000/svg">
<path d="M7.82396 1.50793L5.20855 3.86191C4.77355 4.25223 4.6898 4.95482 5.01942 5.45624C5.36796 5.99069 6.04613 6.09578 6.51356 5.69044L9.19651 3.3725C9.38564 3.21036 9.65582 3.24639 9.80443 3.45657C9.95303 3.66674 9.9179 3.96699 9.72877 4.13213L9.16408 4.61854L13.9518 9.51865H14.0498C14.7658 9.51865 15.3467 8.87311 15.3467 8.07744V4.23422C15.3467 3.43855 14.7658 2.79301 14.0498 2.79301H13.0278H12.9197H12.9008L12.7954 2.71795L10.8338 1.32178C10.4205 1.02753 9.93682 0.871399 9.44508 0.871399C8.85607 0.871399 8.28328 1.09659 7.82396 1.50793ZM8.43999 5.24306L7.04312 6.45008C6.19203 7.18869 4.95728 6.99653 4.31964 6.02372C3.71983 5.10795 3.87113 3.82888 4.66278 3.11728L6.91073 1.09659C6.59731 0.949464 6.25958 0.874401 5.91644 0.874401C5.40849 0.871399 4.91405 1.03954 4.48986 1.3518L2.54452 2.79301H1.64357C0.927581 2.79301 0.34668 3.43855 0.34668 4.23422V8.07744C0.34668 8.87311 0.927581 9.51865 1.64357 9.51865H3.30644L5.77595 12.0227C6.30551 12.5602 7.12418 12.5182 7.60781 11.9297C7.75641 11.7465 7.85638 11.5333 7.90772 11.3112L8.36703 11.7795C8.8939 12.317 9.71526 12.278 10.1989 11.6925C10.3205 11.5453 10.4096 11.3742 10.4664 11.1971C10.9905 11.5874 11.7038 11.5063 12.1442 10.9719C12.6279 10.3864 12.5928 9.47361 12.0659 8.93616L8.43999 5.24306Z" fill="#E8E8E8"/>
</svg>
