<svg width="16" height="17" viewBox="0 0 16 17" fill="none" xmlns="http://www.w3.org/2000/svg">
<g id="List mini">
<path id="Vector" d="M2 3.84535C2 3.56535 2 3.42535 2.04629 3.31835C2.08756 3.22438 2.15327 3.14807 2.234 3.10035C2.32571 3.04535 2.44571 3.04535 2.68571 3.04535H13.3143C13.5543 3.04535 13.6743 3.04535 13.766 3.09935C13.8465 3.1475 13.912 3.22416 13.9529 3.31835C14 3.42535 14 3.56535 14 3.84535V4.24535C14 4.52535 14 4.66535 13.9529 4.77235C13.912 4.86654 13.8465 4.9432 13.766 4.99135C13.6743 5.04535 13.5543 5.04535 13.3143 5.04535H2.68571C2.44571 5.04535 2.32571 5.04535 2.234 4.99135C2.15346 4.9432 2.08805 4.86654 2.04714 4.77235C2 4.66535 2 4.52535 2 4.24535V3.84535ZM2 11.8453C2 11.5653 2 11.4253 2.04629 11.3183C2.08756 11.2244 2.15327 11.1481 2.234 11.1003C2.32571 11.0453 2.44571 11.0453 2.68571 11.0453H13.3143C13.5543 11.0453 13.6743 11.0453 13.766 11.1003C13.8464 11.1482 13.9118 11.2245 13.9529 11.3183C14 11.4253 14 11.5653 14 11.8453V12.2453C14 12.5253 14 12.6653 13.9529 12.7723C13.9118 12.8662 13.8464 12.9425 13.766 12.9903C13.6743 13.0453 13.5543 13.0453 13.3143 13.0453H2.68571C2.44571 13.0453 2.32571 13.0453 2.234 12.9903C2.15359 12.9425 2.08819 12.8662 2.04714 12.7723C2 12.6653 2 12.5253 2 12.2453V11.8453ZM2 7.84535C2 7.56535 2 7.42535 2.04629 7.31835C2.08756 7.22438 2.15327 7.14807 2.234 7.10035C2.32571 7.04535 2.44571 7.04535 2.68571 7.04535H13.3143C13.5543 7.04535 13.6743 7.04535 13.766 7.09935C13.8465 7.1475 13.912 7.22416 13.9529 7.31835C14 7.42535 14 7.56535 14 7.84535V8.24535C14 8.52535 14 8.66535 13.9529 8.77235C13.9118 8.86616 13.8464 8.94246 13.766 8.99035C13.6743 9.04535 13.5543 9.04535 13.3143 9.04535H2.68571C2.44571 9.04535 2.32571 9.04535 2.234 8.99135C2.15346 8.9432 2.08805 8.86654 2.04714 8.77235C2 8.66535 2 8.52535 2 8.24535V7.84535Z" fill="#C6C6CA"/>
</g>
</svg>
