<svg xmlns="http://www.w3.org/2000/svg" xmlns:xlink="http://www.w3.org/1999/xlink" viewBox="0 0 500 500" width="500" height="500" preserveAspectRatio="xMidYMid meet" style="width: 100%; height: 100%; transform: translate3d(0px, 0px, 0px); content-visibility: visible;"><defs><clipPath id="__lottie_element_137"><rect width="500" height="500" x="0" y="0"></rect></clipPath><clipPath id="__lottie_element_140"><path d="M0,0 L500,0 L500,500 L0,500z"></path></clipPath></defs><g clip-path="url(#__lottie_element_137)"><g clip-path="url(#__lottie_element_140)" transform="matrix(1,0,0,1,0,0)" opacity="1" style="display: block;"><g class="primary design" transform="matrix(20.829999923706055,0,0,20.829999923706055,-4957.498046875,-4957.498046875)" opacity="1" style="display: block;"><g opacity="1" transform="matrix(1,0,0,1,0,0)"><path stroke-linecap="butt" stroke-linejoin="miter" fill-opacity="0" stroke-miterlimit="4" class="primary" stroke="rgb(255,255,255)" stroke-opacity="1" stroke-width="2" d="M0 0"></path></g><g opacity="1" transform="matrix(1,0,0,1,250,249.9949951171875)"><path class="primary" fill="rgb(255,255,255)" fill-opacity="1" d=" M7.25,-4.005000114440918 C7.25,-4.005000114440918 -7.25,-4.005000114440918 -7.25,-4.005000114440918 C-8.210000038146973,-4.005000114440918 -9,-3.2149999141693115 -9,-2.255000114440918 C-9,-2.255000114440918 -9,2.244999885559082 -9,2.244999885559082 C-9,3.2149999141693115 -8.210000038146973,4.005000114440918 -7.25,4.005000114440918 C-7.25,4.005000114440918 7.25,4.005000114440918 7.25,4.005000114440918 C8.210000038146973,4.005000114440918 9,3.2149999141693115 9,2.255000114440918 C9,2.255000114440918 9,-2.244999885559082 9,-2.244999885559082 C9,-3.2149999141693115 8.210000038146973,-4.005000114440918 7.25,-4.005000114440918z M7.5,2.255000114440918 C7.5,2.3949999809265137 7.389999866485596,2.505000114440918 7.25,2.505000114440918 C7.25,2.505000114440918 -7.25,2.505000114440918 -7.25,2.505000114440918 C-7.389999866485596,2.505000114440918 -7.5,2.3949999809265137 -7.5,2.255000114440918 C-7.5,2.255000114440918 -7.5,-2.244999885559082 -7.5,-2.244999885559082 C-7.5,-2.384999990463257 -7.389999866485596,-2.494999885559082 -7.25,-2.494999885559082 C-7.25,-2.494999885559082 7.25,-2.494999885559082 7.25,-2.494999885559082 C7.389999866485596,-2.494999885559082 7.5,-2.384999990463257 7.5,-2.244999885559082 C7.5,-2.244999885559082 7.5,2.255000114440918 7.5,2.255000114440918z"></path></g><g opacity="1" transform="matrix(1,0,0,1,250,257.25)"><path class="primary" fill="rgb(255,255,255)" fill-opacity="1" d=" M8.25,-0.75 C8.25,-0.75 -8.25,-0.75 -8.25,-0.75 C-8.65999984741211,-0.75 -9,-0.4099999964237213 -9,0 C-9,0.4099999964237213 -8.65999984741211,0.75 -8.25,0.75 C-8.25,0.75 8.25,0.75 8.25,0.75 C8.65999984741211,0.75 9,0.4099999964237213 9,0 C9,-0.4099999964237213 8.65999984741211,-0.75 8.25,-0.75z"></path></g><g opacity="1" transform="matrix(1,0,0,1,250,242.75)"><path class="primary" fill="rgb(255,255,255)" fill-opacity="1" d=" M-8.25,0.75 C-8.25,0.75 8.25,0.75 8.25,0.75 C8.65999984741211,0.75 9,0.4099999964237213 9,0 C9,-0.4099999964237213 8.65999984741211,-0.75 8.25,-0.75 C8.25,-0.75 -8.25,-0.75 -8.25,-0.75 C-8.65999984741211,-0.75 -9,-0.4099999964237213 -9,0 C-9,0.4099999964237213 -8.65999984741211,0.75 -8.25,0.75z"></path></g></g><g class="primary design" style="display: none;"><g><path stroke-linecap="butt" stroke-linejoin="miter" fill-opacity="0" stroke-miterlimit="4" class="primary"></path></g><g><path class="primary"></path></g><g><path class="primary"></path></g><g><path class="primary"></path></g></g><g class="primary design" style="display: none;" transform="matrix(1,0,0,1,250.06500244140625,61.0407600402832)" opacity="1"><g opacity="1" transform="matrix(1,0,0,1,0,0)"><path stroke-linecap="round" stroke-linejoin="round" fill-opacity="0" class="primary" stroke="rgb(255,255,255)" stroke-opacity="1" stroke-width="31.3" d=" M-171.87600708007812,45.08399963378906 C-171.87600708007812,46.23099899291992 -171.87600708007812,46.85499954223633 -171.87600708007812,46.85499954223633 C-171.87600708007812,58.361000061035156 -162.54800415039062,67.68800354003906 -151.04200744628906,67.68800354003906 C-151.04200744628906,67.68800354003906 151.04200744628906,67.68800354003906 151.04200744628906,67.68800354003906 C162.54800415039062,67.68800354003906 171.87600708007812,58.361000061035156 171.87600708007812,46.85499954223633 C171.87600708007812,46.85499954223633 171.87600708007812,46.117000579833984 171.87600708007812,44.770999908447266"></path></g></g><g class="primary design" style="display: none;" transform="matrix(1,0,0,1,250.06500244140625,47.32442855834961)" opacity="1"><g opacity="1" transform="matrix(1,0,0,1,0,0)"><path stroke-linecap="round" stroke-linejoin="round" fill-opacity="0" class="primary" stroke="rgb(255,255,255)" stroke-opacity="1" stroke-width="31.3" d=" M-173.92999267578125,64.5739974975586 C-170.74600219726562,66.5479965209961 -166.98899841308594,67.68800354003906 -162.9669952392578,67.68800354003906 C-162.9669952392578,67.68800354003906 162.9669952392578,67.68800354003906 162.9669952392578,67.68800354003906 C167.87899780273438,67.68800354003906 172.3939971923828,65.98799896240234 175.95599365234375,63.14400100708008"></path></g></g><g class="primary design" style="display: none;" transform="matrix(1,0,0,1,250.06500244140625,62.216426849365234)" opacity="1"><g opacity="1" transform="matrix(1,0,0,1,0,0)"><path stroke-linecap="round" stroke-linejoin="round" fill-opacity="0" class="primary" stroke="rgb(255,255,255)" stroke-opacity="1" stroke-width="31.3" d=" M-171.9010009765625,42.220001220703125 C-171.9010009765625,45.15800094604492 -171.9010009765625,46.85499954223633 -171.9010009765625,46.85499954223633 C-171.9010009765625,58.361000061035156 -162.572998046875,67.68800354003906 -151.06700134277344,67.68800354003906 C-151.06700134277344,67.68800354003906 151.06700134277344,67.68800354003906 151.06700134277344,67.68800354003906 C162.572998046875,67.68800354003906 171.9010009765625,58.361000061035156 171.9010009765625,46.85499954223633 C171.9010009765625,46.85499954223633 171.9010009765625,44.64699935913086 171.9010009765625,40.909000396728516"></path></g></g><g class="primary design" style="display: none;" transform="matrix(1,0,0,1,250.06500244140625,249.96200561523438)" opacity="1"><g opacity="1" transform="matrix(1,0,0,1,0,0)"><path stroke-linecap="round" stroke-linejoin="round" fill-opacity="0" class="primary" stroke="rgb(255,255,255)" stroke-opacity="1" stroke-width="31.3" d=" M15.562999725341797,67.68800354003906 C85.55500030517578,67.68800354003906 151.04200744628906,67.68800354003906 151.04200744628906,67.68800354003906 C162.54800415039062,67.68800354003906 171.87600708007812,58.361000061035156 171.87600708007812,46.85499954223633 C171.87600708007812,46.85499954223633 171.87600708007812,-46.85499954223633 171.87600708007812,-46.85499954223633 C171.87600708007812,-58.36000061035156 162.54800415039062,-67.68800354003906 151.04200744628906,-67.68800354003906 C151.04200744628906,-67.68800354003906 151.04200744628906,-67.68800354003906 151.04200744628906,-67.68800354003906 C151.04200744628906,-67.68800354003906 -151.04200744628906,-67.68800354003906 -151.04200744628906,-67.68800354003906 C-162.54800415039062,-67.68800354003906 -171.87600708007812,-58.36000061035156 -171.87600708007812,-46.85499954223633 C-171.87600708007812,-46.85499954223633 -171.87600708007812,46.85499954223633 -171.87600708007812,46.85499954223633 C-171.87600708007812,58.361000061035156 -162.54800415039062,67.68800354003906 -151.04200744628906,67.68800354003906 C-151.04200744628906,67.68800354003906 -64.77200317382812,67.68800354003906 15.562999725341797,67.68800354003906"></path></g></g><g class="primary design" style="display: none;" transform="matrix(1,0,0,1,250.00399780273438,401.010986328125)" opacity="1"><g opacity="1" transform="matrix(1,0,0,1,0,0)"><path stroke-linecap="round" stroke-linejoin="round" fill-opacity="0" class="primary" stroke="rgb(255,255,255)" stroke-opacity="1" stroke-width="31.3" d=" M171.87600708007812,0 C171.87600708007812,0 -171.87600708007812,0 -171.87600708007812,0"></path></g></g><g class="primary design" style="display: none;" transform="matrix(1,0,0,1,250.00399780273438,99.14399719238281)" opacity="1"><g opacity="1" transform="matrix(1,0,0,1,0,0)"><path stroke-linecap="round" stroke-linejoin="round" fill-opacity="0" class="primary" stroke="rgb(255,255,255)" stroke-opacity="1" stroke-width="31.3" d=" M171.87600708007812,0 C171.87600708007812,0 -171.87600708007812,0 -171.87600708007812,0"></path></g></g></g></g></svg>