<svg width="28" height="28" viewBox="0 0 28 28" fill="none" xmlns="http://www.w3.org/2000/svg">
<path d="M19.2626 13.3712C19.4123 13.3712 19.562 13.3712 19.7118 13.3712C19.8071 13.167 19.8071 12.8675 19.7118 12.5272C19.6165 12.0235 19.4668 11.6832 19.1673 11.724C18.8678 11.7785 18.8678 12.1732 18.9631 12.6769C19.0039 12.9764 19.1128 13.2214 19.2626 13.3712Z" fill="#F3DF45"/>
<path d="M16.6216 13.8202C16.8258 13.9155 16.9756 13.9699 17.0164 13.9155C17.0709 13.861 17.0164 13.8202 16.962 13.7113C16.8667 13.5071 16.608 13.3573 16.4174 13.2621C15.9138 13.0579 15.3693 13.1123 14.92 13.4662C14.7703 13.5615 14.6206 13.7113 14.675 13.8202C14.675 13.8746 14.7295 13.8746 14.7703 13.8746C14.8656 13.8746 15.3148 13.6704 15.8185 13.6296C16.118 13.616 16.4174 13.7249 16.6216 13.8202Z" fill="#F3DF45"/>
<path d="M16.1723 14.0654C15.8728 14.1199 15.7231 14.2152 15.6278 14.3104C15.5325 14.4057 15.478 14.4602 15.478 14.5146V14.5691H15.5325C15.5869 14.5691 15.7367 14.5146 15.7367 14.5146C16.1314 14.3649 16.3901 14.3649 16.6351 14.4193C16.7849 14.4193 16.8393 14.4738 16.8801 14.4193C16.8801 14.4193 16.8801 14.3649 16.8801 14.3241C16.8665 14.1743 16.5671 14.0246 16.1723 14.0654Z" fill="#F3DF45"/>
<path d="M18.3641 14.9635C18.5683 15.0587 18.7589 15.0179 18.8678 14.8682C18.9223 14.7184 18.8134 14.5142 18.6228 14.4189C18.4186 14.3236 18.228 14.3645 18.1191 14.5142C18.0102 14.664 18.1599 14.8682 18.3641 14.9635Z" fill="#F3DF45"/>
<path d="M19.6027 13.8745C19.453 13.8745 19.3032 14.0243 19.3032 14.2693C19.3032 14.4735 19.3985 14.6641 19.6027 14.6641C19.7524 14.6641 19.9022 14.5143 19.9022 14.2693C19.8613 14.0651 19.7524 13.8745 19.6027 13.8745Z" fill="#F3DF45"/>
<path d="M9.05252 17.7542C8.99807 17.6998 8.95723 17.6998 8.90278 17.7542C8.84833 17.7542 8.80749 17.7542 8.75304 17.7542C8.65775 17.7542 8.54885 17.6998 8.50801 17.6045C8.46717 17.5092 8.45356 17.3595 8.50801 17.1553L8.56246 17.06C8.7122 16.7605 8.91639 16.3113 8.65775 15.862C8.45356 15.5081 8.20853 15.3175 7.85459 15.2631C7.50066 15.2086 7.16034 15.3584 6.95615 15.617C6.60221 16.0118 6.56137 16.5155 6.60221 16.706C6.60221 16.7605 6.65666 16.8013 6.6975 16.8013C6.75195 16.8013 6.84724 16.7469 6.9017 16.5971V16.5427C6.9017 16.4474 6.95615 16.3385 7.05144 16.1888C7.14673 16.039 7.29647 15.9437 7.44621 15.9437C7.59595 15.8893 7.80014 15.9437 7.94988 16.039C8.19491 16.1888 8.30382 16.4882 8.19491 16.7877C8.04517 16.9375 7.99072 17.1825 7.99072 17.4411C8.04517 17.8904 8.34466 18.0946 8.58969 18.1354C8.83472 18.1354 9.03891 17.9856 9.03891 17.8904C9.09336 17.8087 9.05252 17.8087 9.05252 17.7542Z" fill="#F3DF45"/>
<path d="M23.5368 16.9103C23.5368 16.8558 23.4823 16.6652 23.387 16.3658L23.1828 15.9165C23.5368 15.4129 23.5368 14.9228 23.4823 14.6778C23.4279 14.3783 23.2781 14.0788 23.0331 13.7793C22.7881 13.4798 22.1891 13.1804 21.4404 12.9762L21.0456 12.8809C21.0456 12.8809 21.0456 11.928 20.9912 11.5332C20.9912 11.2337 20.9367 10.7845 20.787 10.3353C20.6372 9.73631 20.3377 9.19179 19.943 8.83786C20.9367 7.78967 21.5901 6.59174 21.5901 5.598C21.5901 3.70582 19.2487 3.10685 16.3084 4.30478L15.7094 4.54982C15.7094 4.54982 14.6204 3.46079 14.5659 3.46079C11.3397 0.574869 1.03476 12.0777 4.31545 14.8683L5.0097 15.4673C4.80551 15.971 4.76467 16.5155 4.80551 17.1145C4.9008 17.8632 5.30918 18.6119 5.89454 19.2108C6.4935 19.7553 7.28305 20.1093 8.0862 20.1093C9.37942 23.1041 12.3198 24.8874 15.7502 24.9963C19.4393 25.0916 22.5703 23.3491 23.8635 20.259C23.9588 20.0548 24.3127 19.0611 24.3127 18.1626C24.3944 17.2506 23.8907 16.9103 23.5368 16.9103ZM8.3993 19.2517C8.30401 19.2517 8.15427 19.3061 8.04536 19.2517C6.95634 19.1972 5.70396 18.2035 5.60867 17.0056C5.51338 15.7123 6.15318 14.7186 7.35111 14.46C7.50085 14.4055 7.65059 14.4055 7.85478 14.4055C8.5082 14.46 9.50194 14.95 9.74697 16.393C9.93755 17.7543 9.65168 19.0475 8.3993 19.2517ZM7.16053 13.6704C6.41182 13.8202 5.77202 14.2149 5.36364 14.8139C5.11861 14.6097 4.66938 14.2149 4.61493 14.0652C3.96151 12.8673 5.30919 10.485 6.26208 9.17818C8.54904 5.89749 12.1837 3.40634 13.8308 3.84195C14.1303 3.93724 15.0287 4.98543 15.0287 4.98543C15.0287 4.98543 13.3408 5.93832 11.7889 7.23154C9.69252 8.78341 8.09981 11.1248 7.16053 13.6704ZM18.9084 18.748L18.9629 18.6935C18.9629 18.6391 18.9084 18.6391 18.9084 18.6391C18.9084 18.6391 17.166 18.8841 15.5188 18.2852C15.723 17.6862 16.1722 17.8904 16.9073 17.9857C18.2005 18.081 19.3985 17.8904 20.2425 17.6317C20.9912 17.4276 21.9849 16.9783 22.7336 16.393C22.9786 16.9375 23.0875 17.5909 23.0875 17.5909C23.0875 17.5909 23.2917 17.5365 23.4415 17.6454C23.5912 17.7406 23.6865 17.9448 23.6457 18.4485C23.4959 19.4423 23.0467 20.191 22.4069 20.9397C22.0121 21.3889 21.454 21.7837 20.8687 22.0831C20.5692 22.2329 20.2152 22.3826 19.8749 22.4779C17.1796 23.3219 14.4978 22.4235 13.6539 20.3815C13.5994 20.2318 13.5041 20.0821 13.5041 19.8779C13.1502 18.5302 13.4497 16.9375 14.457 15.9438C14.5115 15.8893 14.5523 15.794 14.5523 15.6987C14.5523 15.6034 14.4978 15.549 14.457 15.4945C14.1031 14.9909 12.9188 14.1469 13.1638 12.4997C13.3135 11.3018 14.3617 10.5122 15.301 10.5531H15.546C15.9408 10.5531 16.3492 10.6484 16.6351 10.6484C17.1796 10.6484 17.7241 10.5939 18.3231 10.1039C18.5272 9.95411 18.677 9.80437 18.9765 9.74992C19.0309 9.74992 19.0718 9.69547 19.2215 9.74992C19.3712 9.74992 19.521 9.80437 19.6163 9.89966C20.1199 10.2536 20.1608 10.9887 20.2152 11.5876C20.2152 11.9416 20.2697 12.7311 20.2697 12.9353C20.3241 13.439 20.4194 13.5343 20.7189 13.6296C20.8687 13.684 21.0184 13.7249 21.2226 13.7793C21.876 13.9835 22.2708 14.1332 22.5158 14.3783C22.6655 14.528 22.72 14.6778 22.7608 14.8275C22.8561 15.372 22.3116 16.0663 20.9639 16.7197C19.4665 17.4139 17.7241 17.5637 16.4853 17.4139L16.0361 17.3595C15.0424 17.2097 14.4978 18.503 15.0832 19.347C15.478 19.8915 16.5262 20.2999 17.5199 20.2999C19.9158 20.2999 21.7535 19.3061 22.4069 18.4077L22.4614 18.3124C22.5158 18.2579 22.4614 18.2171 22.4069 18.2579C21.8624 18.6527 19.3712 20.1501 16.7303 19.7009C16.7303 19.7009 16.4309 19.6464 16.1314 19.5512C15.8864 19.4559 15.4371 19.2517 15.3282 18.748C17.5607 19.4014 18.9084 18.748 18.9084 18.748ZM11.435 9.19179C12.2381 8.23889 13.2727 7.3949 14.1711 6.94567C14.2256 6.94567 14.2256 6.94568 14.2256 7.00013C14.1711 7.14987 14.0214 7.3949 13.9806 7.59909C13.9806 7.65354 14.035 7.65354 14.035 7.65354C14.5795 7.25877 15.5733 6.85038 16.4309 6.80954C16.4853 6.80954 16.4853 6.864 16.4853 6.864C16.3356 6.95929 16.2403 7.10903 16.0905 7.25877C16.0905 7.25877 16.0905 7.31322 16.145 7.31322C16.744 7.31322 17.588 7.51741 18.1325 7.85773C18.1869 7.85773 18.1325 7.95302 18.078 7.95302C17.234 7.74883 15.8864 7.59909 14.4434 7.95302C13.1502 8.25251 12.1973 8.75618 11.503 9.24624C11.435 9.23263 11.3941 9.23263 11.435 9.19179Z" fill="#F3DF45"/>
</svg>
