<svg xmlns="http://www.w3.org/2000/svg" width="17" height="16" viewBox="0 0 17 16" fill="none">
  <path fill-rule="evenodd" clip-rule="evenodd" d="M8.5 15C10.3565 15 12.137 14.2625 13.4497 12.9497C14.7625 11.637 15.5 9.85652 15.5 8C15.5 6.14348 14.7625 4.36301 13.4497 3.05025C12.137 1.7375 10.3565 1 8.5 1C6.64348 1 4.86301 1.7375 3.55025 3.05025C2.2375 4.36301 1.5 6.14348 1.5 8C1.5 9.85652 2.2375 11.637 3.55025 12.9497C4.86301 14.2625 6.64348 15 8.5 15ZM5.621 10.879L4.611 11.889C3.84179 11.1198 3.31794 10.1398 3.1057 9.07291C2.89346 8.00601 3.00236 6.90013 3.41864 5.89512C3.83491 4.89012 4.53986 4.03112 5.44434 3.42676C6.34881 2.8224 7.41219 2.49983 8.5 2.49983C9.58781 2.49983 10.6512 2.8224 11.5557 3.42676C12.4601 4.03112 13.1651 4.89012 13.5814 5.89512C13.9976 6.90013 14.1065 8.00601 13.8943 9.07291C13.6821 10.1398 13.1582 11.1198 12.389 11.889L11.379 10.879C11.1004 10.6003 10.7696 10.3792 10.4055 10.2284C10.0414 10.0776 9.6511 9.99995 9.257 10H7.743C7.3489 9.99995 6.95865 10.0776 6.59455 10.2284C6.23045 10.3792 5.89963 10.6003 5.621 10.879Z" fill="#707070"/>
  <path d="M8.5 4C7.96957 4 7.46086 4.21071 7.08579 4.58579C6.71071 4.96086 6.5 5.46957 6.5 6V6.5C6.5 7.03043 6.71071 7.53914 7.08579 7.91421C7.46086 8.28929 7.96957 8.5 8.5 8.5C9.03043 8.5 9.53914 8.28929 9.91421 7.91421C10.2893 7.53914 10.5 7.03043 10.5 6.5V6C10.5 5.46957 10.2893 4.96086 9.91421 4.58579C9.53914 4.21071 9.03043 4 8.5 4Z" fill="#707070"/>
</svg>