<svg width="15" height="15" viewBox="0 0 15 15" fill="none" xmlns="http://www.w3.org/2000/svg">
<path fill-rule="evenodd" clip-rule="evenodd" d="M1.23225 1.82553C0.905273 2.46726 0.905273 3.30734 0.905273 4.9875V9.3875C0.905273 11.0677 0.905273 11.9077 1.23225 12.5495C1.51987 13.114 1.97881 13.5729 2.5433 13.8605C3.18503 14.1875 4.02511 14.1875 5.70527 14.1875H10.1053C11.7855 14.1875 12.6255 14.1875 13.2673 13.8605C13.8318 13.5729 14.2907 13.114 14.5783 12.5495C14.9053 11.9077 14.9053 11.0677 14.9053 9.3875V4.9875C14.9053 3.30734 14.9053 2.46726 14.5783 1.82553C14.2907 1.26104 13.8318 0.8021 13.2673 0.51448C12.6255 0.1875 11.7855 0.1875 10.1053 0.1875H5.70527C4.02511 0.1875 3.18503 0.1875 2.5433 0.51448C1.97881 0.8021 1.51987 1.26104 1.23225 1.82553ZM4.05675 6.30402C3.70688 6.08228 3.24351 6.18614 3.02176 6.536C2.80002 6.88586 2.90388 7.34924 3.25374 7.57098L5.80425 9.1875L3.25374 10.804C2.90388 11.0258 2.80002 11.4891 3.02176 11.839C3.24351 12.1889 3.70688 12.2927 4.05675 12.071L7.60675 9.821C7.82374 9.6835 7.95524 9.4444 7.95524 9.1875C7.95524 8.93059 7.82374 8.69156 7.60675 8.55402L4.05675 6.30402Z" fill="#939393"/>
</svg>
