<svg width="16" height="17" viewBox="0 0 16 17" fill="none" xmlns="http://www.w3.org/2000/svg">
<path fill-rule="evenodd" clip-rule="evenodd" d="M10.5386 1.97437C12.4665 1.97437 14.0293 3.53719 14.0293 5.46503V5.92637C14.0293 6.31193 13.7167 6.6245 13.3312 6.6245C12.9456 6.6245 12.633 6.31193 12.633 5.92637V5.46503C12.633 4.30833 11.6953 3.37063 10.5386 3.37063H4.95355C3.79685 3.37063 2.85915 4.30833 2.85915 5.46503V11.2553C2.85915 12.412 3.79685 13.3497 4.95355 13.3497H6.1697C6.55527 13.3497 6.86783 13.6622 6.86783 14.0479C6.86783 14.4334 6.55527 14.746 6.1697 14.746H4.95355C3.02572 14.746 1.46289 13.1831 1.46289 11.2553V5.46503C1.46289 3.53719 3.02572 1.97437 4.95355 1.97437H10.5386ZM10.7988 14.746C10.5227 14.746 10.2988 14.5221 10.2988 14.246V11.9497H8.00244C7.7263 11.9497 7.50244 11.7258 7.50244 11.4497V11.1824C7.50244 10.9063 7.7263 10.6824 8.00244 10.6824H10.2988V8.38574C10.2988 8.1096 10.5227 7.88574 10.7988 7.88574H11.0661C11.3422 7.88574 11.5661 8.1096 11.5661 8.38574V10.6824H13.8627C14.1388 10.6824 14.3627 10.9063 14.3627 11.1824V11.4497C14.3627 11.7258 14.1388 11.9497 13.8627 11.9497H11.5661V14.246C11.5661 14.5221 11.3422 14.746 11.0661 14.746H10.7988Z" fill="#A9A9A9"/>
</svg>
