<svg xmlns="http://www.w3.org/2000/svg" width="16" height="16" viewBox="0 0 256 256" fill="none" class="w:24 h:auto mr:6 h:auto">
        <path fill="url(#logo-icon-light-a)" d="M7.7 171.7a10.6 10.6 0 1 0 20-7.3 106.9 106.9 0 0 1 137-136.7 10.6 10.6 0 1 0 7.3-20 128 128 0 0 0-164.2 164Z"></path>
        <path fill="url(#logo-icon-light-b)" d="m111.8 83.4 63.5 35.3c7.3 4 7.3 14.5 0 18.5l-63.5 35.3c-7 4-15.8-1.2-15.8-9.3V92.7c0-8.1 8.8-13.3 15.8-9.3Z"></path>
        <path fill="url(#logo-icon-light-c)" d="M128 255.9a128 128 0 0 1-43.8-7.7 10.6 10.6 0 1 1 7.3-20A106.8 106.8 0 0 0 228.3 91.5a10.6 10.6 0 1 1 20-7.3A128.1 128.1 0 0 1 128 256l.2-.1Z"></path>
        <path fill="url(#logo-icon-light-d)" d="M224.4 45a13.3 13.3 0 1 1-26.7 0 13.3 13.3 0 0 1 26.7 0Z"></path>
        <path fill="url(#logo-icon-light-e)" d="M45 224.2a13.3 13.3 0 1 0 0-26.6 13.3 13.3 0 0 0 0 26.6Z"></path>
        <defs>
            <radialGradient id="logo-icon-light-a" cx="0" cy="0" r="1" gradientTransform="matrix(0 256 -405 0 128 0)" gradientUnits="userSpaceOnUse">
                <stop stop-color="#20AFFF"></stop>
                <stop offset="1" stop-color="#0036F3"></stop>
            </radialGradient>
            <radialGradient id="logo-icon-light-b" cx="0" cy="0" r="1" gradientTransform="matrix(0 256 -405 0 128 0)" gradientUnits="userSpaceOnUse">
                <stop stop-color="#20AFFF"></stop>
                <stop offset="1" stop-color="#0036F3"></stop>
            </radialGradient>
            <radialGradient id="logo-icon-light-c" cx="0" cy="0" r="1" gradientTransform="matrix(0 256 -405 0 128 0)" gradientUnits="userSpaceOnUse">
                <stop stop-color="#20AFFF"></stop>
                <stop offset="1" stop-color="#0036F3"></stop>
            </radialGradient>
            <radialGradient id="logo-icon-light-d" cx="0" cy="0" r="1" gradientTransform="matrix(0 256 -405 0 128 0)" gradientUnits="userSpaceOnUse">
                <stop stop-color="#20AFFF"></stop>
                <stop offset="1" stop-color="#0036F3"></stop>
            </radialGradient>
            <radialGradient id="logo-icon-light-e" cx="0" cy="0" r="1" gradientTransform="matrix(0 256 -405 0 128 0)" gradientUnits="userSpaceOnUse">
                <stop stop-color="#20AFFF"></stop>
                <stop offset="1" stop-color="#0036F3"></stop>
            </radialGradient>
        </defs>
    </svg>