<svg width="17" height="16" viewBox="0 0 17 16" fill="none" xmlns="http://www.w3.org/2000/svg">
<g id="settings">
<path id="Vector" d="M9.48527 1C9.6034 1.00084 9.71742 1.04348 9.80711 1.12036C9.8968 1.19724 9.95638 1.30339 9.97527 1.42L10.2253 2.9C10.2408 2.98726 10.2796 3.06869 10.3378 3.13561C10.3959 3.20252 10.471 3.25243 10.5553 3.28C10.7353 3.339 10.9083 3.412 11.0753 3.5C11.1521 3.54682 11.2403 3.57158 11.3303 3.57158C11.4202 3.57158 11.5085 3.54682 11.5853 3.5L12.8053 2.63C12.8951 2.55517 13.0083 2.51419 13.1253 2.51419C13.2422 2.51419 13.3554 2.55517 13.4453 2.63L14.2653 3.45C14.3474 3.53385 14.3974 3.64391 14.4065 3.76092C14.4157 3.87792 14.3834 3.99442 14.3153 4.09L13.4453 5.31C13.3985 5.38682 13.3737 5.47504 13.3737 5.565C13.3737 5.65496 13.3985 5.74318 13.4453 5.82C13.5333 5.987 13.6063 6.16 13.6653 6.34C13.6928 6.42423 13.7428 6.4994 13.8097 6.55752C13.8766 6.61563 13.958 6.6545 14.0453 6.67L15.5253 6.92C15.6419 6.9389 15.748 6.99847 15.8249 7.08816C15.9018 7.17786 15.9444 7.29187 15.9453 7.41V8.58C15.9444 8.69813 15.9018 8.81214 15.8249 8.90184C15.748 8.99153 15.6419 9.0511 15.5253 9.07L14.0453 9.32C13.958 9.3355 13.8766 9.37437 13.8097 9.43248C13.7428 9.4906 13.6928 9.56577 13.6653 9.65C13.6066 9.82917 13.533 10.0031 13.4453 10.17C13.3985 10.2468 13.3737 10.335 13.3737 10.425C13.3737 10.515 13.3985 10.6032 13.4453 10.68L14.3153 11.9C14.3834 11.9956 14.4157 12.1121 14.4065 12.2291C14.3974 12.3461 14.3474 12.4562 14.2653 12.54L13.4453 13.36C13.3614 13.4421 13.2514 13.4921 13.1344 13.5013C13.0174 13.5104 12.9009 13.4781 12.8053 13.41L11.5853 12.54C11.5085 12.4932 11.4202 12.4684 11.3303 12.4684C11.2403 12.4684 11.1521 12.4932 11.0753 12.54C10.9084 12.6277 10.7344 12.7013 10.5553 12.76C10.471 12.7876 10.3959 12.8375 10.3378 12.9044C10.2796 12.9713 10.2408 13.0527 10.2253 13.14L9.97527 14.62C9.95638 14.7366 9.8968 14.8428 9.80711 14.9196C9.71742 14.9965 9.6034 15.0392 9.48527 15.04H8.32527C8.20715 15.0392 8.09313 14.9965 8.00344 14.9196C7.91375 14.8428 7.85417 14.7366 7.83527 14.62L7.58527 13.1C7.56978 13.0127 7.5309 12.9313 7.47279 12.8644C7.41468 12.7975 7.3395 12.7476 7.25527 12.72C7.07611 12.6613 6.90217 12.5877 6.73527 12.5C6.65846 12.4532 6.57023 12.4284 6.48027 12.4284C6.39031 12.4284 6.30209 12.4532 6.22527 12.5L5.00527 13.37C4.90969 13.4381 4.7932 13.4704 4.67619 13.4613C4.55918 13.4521 4.44912 13.4021 4.36527 13.32L3.54527 12.5C3.47044 12.4102 3.42946 12.2969 3.42946 12.18C3.42946 12.0631 3.47044 11.9498 3.54527 11.86L4.41527 10.64C4.46209 10.5632 4.48685 10.475 4.48685 10.385C4.48685 10.295 4.46209 10.2068 4.41527 10.13C4.32757 9.96311 4.25398 9.78917 4.19527 9.61C4.1677 9.52577 4.1178 9.4506 4.05088 9.39248C3.98396 9.33437 3.90254 9.2955 3.81527 9.28L2.32527 9.07C2.20866 9.0511 2.10251 8.99153 2.02563 8.90184C1.94875 8.81214 1.90611 8.69813 1.90527 8.58V7.42C1.90611 7.30187 1.94875 7.18786 2.02563 7.09817C2.10251 7.00847 2.20866 6.9489 2.32527 6.93L3.80527 6.68C3.89254 6.6645 3.97396 6.62563 4.04088 6.56752C4.1078 6.5094 4.1577 6.43423 4.18527 6.35C4.24398 6.17083 4.31757 5.99689 4.40527 5.83C4.45209 5.75318 4.47685 5.66496 4.47685 5.575C4.47685 5.48504 4.45209 5.39682 4.40527 5.32L3.49527 4.1C3.42044 4.01016 3.37946 3.89693 3.37946 3.78C3.37946 3.66307 3.42044 3.54984 3.49527 3.46L4.31527 2.64C4.40512 2.56517 4.51835 2.52419 4.63527 2.52419C4.7522 2.52419 4.86543 2.56517 4.95527 2.64L6.17527 3.51C6.25209 3.55682 6.34031 3.58158 6.43027 3.58158C6.52023 3.58158 6.60846 3.55682 6.68527 3.51C6.85217 3.42229 7.02611 3.3487 7.20527 3.29C7.2895 3.26243 7.36468 3.21252 7.42279 3.14561C7.4809 3.07869 7.51978 2.99726 7.53527 2.91L7.83527 1.42C7.85417 1.30339 7.91375 1.19724 8.00344 1.12036C8.09313 1.04348 8.20715 1.00084 8.32527 1H9.48527ZM8.90527 6C8.37484 6 7.86613 6.21071 7.49106 6.58579C7.11599 6.96086 6.90527 7.46957 6.90527 8C6.90527 8.53043 7.11599 9.03914 7.49106 9.41421C7.86613 9.78929 8.37484 10 8.90527 10C9.43571 10 9.94441 9.78929 10.3195 9.41421C10.6946 9.03914 10.9053 8.53043 10.9053 8C10.9053 7.46957 10.6946 6.96086 10.3195 6.58579C9.94441 6.21071 9.43571 6 8.90527 6Z" fill="#939393"/>
</g>
</svg>
