<svg xmlns="http://www.w3.org/2000/svg" width="17" height="17" viewBox="0 0 17 17" fill="none">
<path fill-rule="evenodd" clip-rule="evenodd" d="M2.43174 2.52282C2.32202 2.79369 2.32202 3.13611 2.32202 3.82094V13.3509C2.32202 14.0357 2.32202 14.3781 2.43174 14.649C2.58415 15.0253 2.8826 15.3238 3.2589 15.4762C3.52977 15.5859 3.87219 15.5859 4.55702 15.5859H12.087C12.7718 15.5859 13.1142 15.5859 13.3851 15.4762C13.7614 15.3238 14.0599 15.0253 14.2123 14.649C14.322 14.3781 14.322 14.0357 14.322 13.3509V7.58594V3.82094C14.322 3.13611 14.322 2.79369 14.2123 2.52282C14.0599 2.14652 13.7614 1.84807 13.3851 1.69566C13.1142 1.58594 12.7718 1.58594 12.087 1.58594H9.95838H4.55702C3.87219 1.58594 3.52977 1.58594 3.2589 1.69566C2.8826 1.84807 2.58415 2.14652 2.43174 2.52282ZM12.322 4.08594C12.322 3.8098 12.0981 3.58594 11.822 3.58594H4.82202C4.54588 3.58594 4.32202 3.8098 4.32202 4.08594V6.08594C4.32202 6.36208 4.54588 6.58594 4.82202 6.58594H4.93163C5.16107 6.58594 5.36106 6.42979 5.4167 6.20721L5.74627 4.88893C5.79079 4.71086 5.95078 4.58594 6.13433 4.58594H7.57202V11.5859C7.57202 12.1382 7.1243 12.5859 6.57202 12.5859H6.15535C5.69512 12.5859 5.32202 12.959 5.32202 13.4192C5.32202 13.5113 5.39664 13.5859 5.48869 13.5859H11.1553C11.2474 13.5859 11.322 13.5113 11.322 13.4192C11.322 12.959 10.9489 12.5859 10.4887 12.5859H10.072C9.51974 12.5859 9.07202 12.1382 9.07202 11.5859V4.58594H10.5097C10.6932 4.58594 10.8532 4.71086 10.8977 4.88893L11.2273 6.20721C11.283 6.42979 11.483 6.58594 11.7124 6.58594H11.822C12.0981 6.58594 12.322 6.36208 12.322 6.08594V4.08594Z" fill="#727275"/>
</svg>