<svg width="17" height="16" viewBox="0 0 17 16" fill="none" xmlns="http://www.w3.org/2000/svg">
<g id="trash">
<path id="Vector" fill-rule="evenodd" clip-rule="evenodd" d="M12.427 6.5C12.7031 6.5 12.927 6.72386 12.927 7C12.927 7.03856 12.9225 7.07699 12.9137 7.11452L11.4211 13.4581C11.2085 14.3615 10.4024 15 9.47432 15H6.64238C5.71428 15 4.90812 14.3615 4.69555 13.4581L3.20294 7.11452C3.1397 6.84572 3.30633 6.57654 3.57513 6.51329C3.61266 6.50446 3.65109 6.5 3.68965 6.5H12.427ZM8.55835 1C9.93906 1 11.0583 2.11929 11.0583 3.5H13.0583C13.6106 3.5 14.0583 3.94772 14.0583 4.5V5C14.0583 5.27614 13.8344 5.5 13.5583 5.5H2.55835C2.28221 5.5 2.05835 5.27614 2.05835 5V4.5C2.05835 3.94772 2.50607 3.5 3.05835 3.5H5.05835C5.05835 2.11929 6.17764 1 7.55835 1H8.55835ZM8.55835 2.5H7.55835C7.00607 2.5 6.55835 2.94772 6.55835 3.5H9.55835C9.55835 2.94772 9.11063 2.5 8.55835 2.5Z" fill="#737373"/>
</g>
</svg>
