<svg xmlns="http://www.w3.org/2000/svg" height="48" width="48" fill="none" viewBox="0 0 48 48"><path d="M15 32.846a3.846 3.846 0 1 0 0-7.692 3.846 3.846 0 0 0 0 7.692m0-10a3.846 3.846 0 1 0 0-7.692 3.846 3.846 0 0 0 0 7.692m10 10a3.846 3.846 0 1 0 0-7.692 3.846 3.846 0 0 0 0 7.692m0-10a3.846 3.846 0 1 0 0-7.692 3.846 3.846 0 0 0 0 7.692M20 4c10.833 0 20 9.167 20 20s-9.167 20-20 20S0 34.833 0 24 9.167 4 20 4m0 5.385c-8.049 0-14.615 6.339-14.615 14.347S11.95 38.615 20 38.615s14.615-6.876 14.615-14.884S28.05 9.386 20 9.38" fill="#F22F46"/></svg>