<svg width="15" height="15" viewBox="0 0 15 15" fill="none" xmlns="http://www.w3.org/2000/svg">
<path fill-rule="evenodd" clip-rule="evenodd" d="M5.72057 12.0736L3.12994 12.4437C2.63963 12.5137 2.3115 12.1771 2.38049 11.6942L2.75058 9.10359C2.81939 8.6219 3.15131 8.51456 3.49301 8.85627L4.11173 9.47499L5.21137 8.41441C5.55543 8.07035 6.10698 8.07282 6.44869 8.41453C6.79278 8.75862 6.79045 9.31021 6.44881 9.65185L5.34917 10.7124L5.96789 11.3311C6.31198 11.6752 6.19887 12.0053 5.72057 12.0736ZM9.6779 2.184L12.2685 1.81391C12.7588 1.74387 13.087 2.08047 13.018 2.56336L12.6479 5.15399C12.5791 5.63568 12.2472 5.74302 11.9055 5.40131L11.2867 4.78259L10.2265 5.79757C9.88242 6.14163 9.33088 6.13916 8.98917 5.79745C8.64508 5.45336 8.64741 4.90177 8.98905 4.56013L10.0493 3.54516L9.43058 2.92644C9.08649 2.58235 9.1996 2.25233 9.6779 2.184Z" fill="#A9A9A9"/>
<path fill-rule="evenodd" clip-rule="evenodd" d="M12.644 9.10682L13.0141 11.6975C13.0842 12.1878 12.7476 12.5159 12.2647 12.4469L9.67403 12.0768C9.19234 12.008 9.085 11.6761 9.42671 11.3344L10.0454 10.7157L8.98485 9.61602C8.64078 9.27196 8.64326 8.72042 8.98497 8.37871C9.32906 8.03462 9.88064 8.03694 10.2223 8.37859L11.2829 9.47822L11.9016 8.8595C12.2457 8.51541 12.5757 8.62852 12.644 9.10682ZM2.75443 5.14949L2.38434 2.55886C2.3143 2.06855 2.6509 1.74042 3.1338 1.80941L5.72442 2.1795C6.20611 2.24831 6.31345 2.58023 5.97175 2.92194L5.35303 3.54066L6.368 4.6009C6.71207 4.94497 6.70959 5.49651 6.36788 5.83822C6.02379 6.18231 5.47221 6.17998 5.13057 5.83834L4.11559 4.77809L3.49687 5.39681C3.15278 5.7409 2.82276 5.62779 2.75443 5.14949Z" fill="#A9A9A9"/>
</svg>
